%TF.GenerationSoftware,KiCad,Pcbnew,8.0.6*%
%TF.CreationDate,2024-11-20T14:38:13-08:00*%
%TF.ProjectId,SleepBud,536c6565-7042-4756-942e-6b696361645f,rev?*%
%TF.SameCoordinates,Original*%
%TF.FileFunction,Legend,Top*%
%TF.FilePolarity,Positive*%
%FSLAX46Y46*%
G04 Gerber Fmt 4.6, Leading zero omitted, Abs format (unit mm)*
G04 Created by KiCad (PCBNEW 8.0.6) date 2024-11-20 14:38:13*
%MOMM*%
%LPD*%
G01*
G04 APERTURE LIST*
G04 Aperture macros list*
%AMRoundRect*
0 Rectangle with rounded corners*
0 $1 Rounding radius*
0 $2 $3 $4 $5 $6 $7 $8 $9 X,Y pos of 4 corners*
0 Add a 4 corners polygon primitive as box body*
4,1,4,$2,$3,$4,$5,$6,$7,$8,$9,$2,$3,0*
0 Add four circle primitives for the rounded corners*
1,1,$1+$1,$2,$3*
1,1,$1+$1,$4,$5*
1,1,$1+$1,$6,$7*
1,1,$1+$1,$8,$9*
0 Add four rect primitives between the rounded corners*
20,1,$1+$1,$2,$3,$4,$5,0*
20,1,$1+$1,$4,$5,$6,$7,0*
20,1,$1+$1,$6,$7,$8,$9,0*
20,1,$1+$1,$8,$9,$2,$3,0*%
G04 Aperture macros list end*
%ADD10C,0.300000*%
%ADD11C,0.150000*%
%ADD12C,0.200000*%
%ADD13C,0.050000*%
%ADD14C,0.100000*%
%ADD15C,0.152400*%
%ADD16C,0.120000*%
%ADD17C,0.508000*%
%ADD18C,0.127000*%
%ADD19C,0.400000*%
%ADD20C,0.750000*%
%ADD21RoundRect,0.102000X0.400000X-0.400000X0.400000X0.400000X-0.400000X0.400000X-0.400000X-0.400000X0*%
%ADD22R,1.500000X2.500000*%
%ADD23R,7.000000X7.000000*%
%ADD24RoundRect,0.102000X0.660400X0.279400X-0.660400X0.279400X-0.660400X-0.279400X0.660400X-0.279400X0*%
%ADD25RoundRect,0.225000X-0.250000X0.225000X-0.250000X-0.225000X0.250000X-0.225000X0.250000X0.225000X0*%
%ADD26RoundRect,0.250000X-0.312500X-0.625000X0.312500X-0.625000X0.312500X0.625000X-0.312500X0.625000X0*%
%ADD27RoundRect,0.225000X-0.225000X-0.250000X0.225000X-0.250000X0.225000X0.250000X-0.225000X0.250000X0*%
%ADD28RoundRect,0.102000X0.400000X0.400000X-0.400000X0.400000X-0.400000X-0.400000X0.400000X-0.400000X0*%
%ADD29RoundRect,0.250000X0.625000X-0.312500X0.625000X0.312500X-0.625000X0.312500X-0.625000X-0.312500X0*%
%ADD30RoundRect,0.250000X0.450000X-0.262500X0.450000X0.262500X-0.450000X0.262500X-0.450000X-0.262500X0*%
%ADD31RoundRect,0.250000X-0.625000X0.312500X-0.625000X-0.312500X0.625000X-0.312500X0.625000X0.312500X0*%
%ADD32R,1.250000X1.000000*%
%ADD33C,1.701800*%
%ADD34R,0.500000X2.000000*%
%ADD35R,1.500000X0.900000*%
%ADD36R,0.900000X1.500000*%
%ADD37C,0.600000*%
%ADD38R,3.900000X3.900000*%
%ADD39R,1.143000X1.092200*%
%ADD40RoundRect,0.250000X-0.250000X-0.475000X0.250000X-0.475000X0.250000X0.475000X-0.250000X0.475000X0*%
%ADD41RoundRect,0.100000X-0.100000X0.637500X-0.100000X-0.637500X0.100000X-0.637500X0.100000X0.637500X0*%
%ADD42RoundRect,0.250000X0.312500X0.625000X-0.312500X0.625000X-0.312500X-0.625000X0.312500X-0.625000X0*%
%ADD43R,1.000000X1.250000*%
%ADD44R,0.400000X1.350000*%
%ADD45O,1.200000X1.900000*%
%ADD46R,1.200000X1.900000*%
%ADD47C,1.450000*%
%ADD48R,1.500000X1.900000*%
%ADD49R,2.000000X0.500000*%
%ADD50RoundRect,0.225000X0.225000X0.250000X-0.225000X0.250000X-0.225000X-0.250000X0.225000X-0.250000X0*%
%ADD51RoundRect,0.200000X-0.200000X-0.275000X0.200000X-0.275000X0.200000X0.275000X-0.200000X0.275000X0*%
%ADD52RoundRect,0.250000X-0.450000X0.262500X-0.450000X-0.262500X0.450000X-0.262500X0.450000X0.262500X0*%
%ADD53RoundRect,0.250000X-0.475000X0.250000X-0.475000X-0.250000X0.475000X-0.250000X0.475000X0.250000X0*%
%ADD54RoundRect,0.099250X0.297750X-1.027750X0.297750X1.027750X-0.297750X1.027750X-0.297750X-1.027750X0*%
%ADD55R,3.810000X4.495800*%
%ADD56RoundRect,0.375000X0.375000X-0.625000X0.375000X0.625000X-0.375000X0.625000X-0.375000X-0.625000X0*%
%ADD57RoundRect,0.500000X1.400000X-0.500000X1.400000X0.500000X-1.400000X0.500000X-1.400000X-0.500000X0*%
%ADD58RoundRect,0.250000X0.262500X0.450000X-0.262500X0.450000X-0.262500X-0.450000X0.262500X-0.450000X0*%
%ADD59RoundRect,0.150000X-0.587500X-0.150000X0.587500X-0.150000X0.587500X0.150000X-0.587500X0.150000X0*%
G04 APERTURE END LIST*
D10*
X58820225Y-99985912D02*
X59677368Y-99985912D01*
X59248796Y-101485912D02*
X59248796Y-99985912D01*
X60748796Y-101414484D02*
X60605939Y-101485912D01*
X60605939Y-101485912D02*
X60320225Y-101485912D01*
X60320225Y-101485912D02*
X60177367Y-101414484D01*
X60177367Y-101414484D02*
X60105939Y-101271626D01*
X60105939Y-101271626D02*
X60105939Y-100700198D01*
X60105939Y-100700198D02*
X60177367Y-100557341D01*
X60177367Y-100557341D02*
X60320225Y-100485912D01*
X60320225Y-100485912D02*
X60605939Y-100485912D01*
X60605939Y-100485912D02*
X60748796Y-100557341D01*
X60748796Y-100557341D02*
X60820225Y-100700198D01*
X60820225Y-100700198D02*
X60820225Y-100843055D01*
X60820225Y-100843055D02*
X60105939Y-100985912D01*
X62105939Y-101485912D02*
X62105939Y-100700198D01*
X62105939Y-100700198D02*
X62034510Y-100557341D01*
X62034510Y-100557341D02*
X61891653Y-100485912D01*
X61891653Y-100485912D02*
X61605939Y-100485912D01*
X61605939Y-100485912D02*
X61463081Y-100557341D01*
X62105939Y-101414484D02*
X61963081Y-101485912D01*
X61963081Y-101485912D02*
X61605939Y-101485912D01*
X61605939Y-101485912D02*
X61463081Y-101414484D01*
X61463081Y-101414484D02*
X61391653Y-101271626D01*
X61391653Y-101271626D02*
X61391653Y-101128769D01*
X61391653Y-101128769D02*
X61463081Y-100985912D01*
X61463081Y-100985912D02*
X61605939Y-100914484D01*
X61605939Y-100914484D02*
X61963081Y-100914484D01*
X61963081Y-100914484D02*
X62105939Y-100843055D01*
X62820224Y-101485912D02*
X62820224Y-100485912D01*
X62820224Y-100628769D02*
X62891653Y-100557341D01*
X62891653Y-100557341D02*
X63034510Y-100485912D01*
X63034510Y-100485912D02*
X63248796Y-100485912D01*
X63248796Y-100485912D02*
X63391653Y-100557341D01*
X63391653Y-100557341D02*
X63463082Y-100700198D01*
X63463082Y-100700198D02*
X63463082Y-101485912D01*
X63463082Y-100700198D02*
X63534510Y-100557341D01*
X63534510Y-100557341D02*
X63677367Y-100485912D01*
X63677367Y-100485912D02*
X63891653Y-100485912D01*
X63891653Y-100485912D02*
X64034510Y-100557341D01*
X64034510Y-100557341D02*
X64105939Y-100700198D01*
X64105939Y-100700198D02*
X64105939Y-101485912D01*
X65820224Y-99985912D02*
X66748796Y-99985912D01*
X66748796Y-99985912D02*
X66248796Y-100557341D01*
X66248796Y-100557341D02*
X66463081Y-100557341D01*
X66463081Y-100557341D02*
X66605939Y-100628769D01*
X66605939Y-100628769D02*
X66677367Y-100700198D01*
X66677367Y-100700198D02*
X66748796Y-100843055D01*
X66748796Y-100843055D02*
X66748796Y-101200198D01*
X66748796Y-101200198D02*
X66677367Y-101343055D01*
X66677367Y-101343055D02*
X66605939Y-101414484D01*
X66605939Y-101414484D02*
X66463081Y-101485912D01*
X66463081Y-101485912D02*
X66034510Y-101485912D01*
X66034510Y-101485912D02*
X65891653Y-101414484D01*
X65891653Y-101414484D02*
X65820224Y-101343055D01*
X68463081Y-101414484D02*
X68677367Y-101485912D01*
X68677367Y-101485912D02*
X69034509Y-101485912D01*
X69034509Y-101485912D02*
X69177367Y-101414484D01*
X69177367Y-101414484D02*
X69248795Y-101343055D01*
X69248795Y-101343055D02*
X69320224Y-101200198D01*
X69320224Y-101200198D02*
X69320224Y-101057341D01*
X69320224Y-101057341D02*
X69248795Y-100914484D01*
X69248795Y-100914484D02*
X69177367Y-100843055D01*
X69177367Y-100843055D02*
X69034509Y-100771626D01*
X69034509Y-100771626D02*
X68748795Y-100700198D01*
X68748795Y-100700198D02*
X68605938Y-100628769D01*
X68605938Y-100628769D02*
X68534509Y-100557341D01*
X68534509Y-100557341D02*
X68463081Y-100414484D01*
X68463081Y-100414484D02*
X68463081Y-100271626D01*
X68463081Y-100271626D02*
X68534509Y-100128769D01*
X68534509Y-100128769D02*
X68605938Y-100057341D01*
X68605938Y-100057341D02*
X68748795Y-99985912D01*
X68748795Y-99985912D02*
X69105938Y-99985912D01*
X69105938Y-99985912D02*
X69320224Y-100057341D01*
X70177366Y-101485912D02*
X70034509Y-101414484D01*
X70034509Y-101414484D02*
X69963080Y-101271626D01*
X69963080Y-101271626D02*
X69963080Y-99985912D01*
X71320223Y-101414484D02*
X71177366Y-101485912D01*
X71177366Y-101485912D02*
X70891652Y-101485912D01*
X70891652Y-101485912D02*
X70748794Y-101414484D01*
X70748794Y-101414484D02*
X70677366Y-101271626D01*
X70677366Y-101271626D02*
X70677366Y-100700198D01*
X70677366Y-100700198D02*
X70748794Y-100557341D01*
X70748794Y-100557341D02*
X70891652Y-100485912D01*
X70891652Y-100485912D02*
X71177366Y-100485912D01*
X71177366Y-100485912D02*
X71320223Y-100557341D01*
X71320223Y-100557341D02*
X71391652Y-100700198D01*
X71391652Y-100700198D02*
X71391652Y-100843055D01*
X71391652Y-100843055D02*
X70677366Y-100985912D01*
X72605937Y-101414484D02*
X72463080Y-101485912D01*
X72463080Y-101485912D02*
X72177366Y-101485912D01*
X72177366Y-101485912D02*
X72034508Y-101414484D01*
X72034508Y-101414484D02*
X71963080Y-101271626D01*
X71963080Y-101271626D02*
X71963080Y-100700198D01*
X71963080Y-100700198D02*
X72034508Y-100557341D01*
X72034508Y-100557341D02*
X72177366Y-100485912D01*
X72177366Y-100485912D02*
X72463080Y-100485912D01*
X72463080Y-100485912D02*
X72605937Y-100557341D01*
X72605937Y-100557341D02*
X72677366Y-100700198D01*
X72677366Y-100700198D02*
X72677366Y-100843055D01*
X72677366Y-100843055D02*
X71963080Y-100985912D01*
X73320222Y-100485912D02*
X73320222Y-101985912D01*
X73320222Y-100557341D02*
X73463080Y-100485912D01*
X73463080Y-100485912D02*
X73748794Y-100485912D01*
X73748794Y-100485912D02*
X73891651Y-100557341D01*
X73891651Y-100557341D02*
X73963080Y-100628769D01*
X73963080Y-100628769D02*
X74034508Y-100771626D01*
X74034508Y-100771626D02*
X74034508Y-101200198D01*
X74034508Y-101200198D02*
X73963080Y-101343055D01*
X73963080Y-101343055D02*
X73891651Y-101414484D01*
X73891651Y-101414484D02*
X73748794Y-101485912D01*
X73748794Y-101485912D02*
X73463080Y-101485912D01*
X73463080Y-101485912D02*
X73320222Y-101414484D01*
X75177365Y-100700198D02*
X75391651Y-100771626D01*
X75391651Y-100771626D02*
X75463080Y-100843055D01*
X75463080Y-100843055D02*
X75534508Y-100985912D01*
X75534508Y-100985912D02*
X75534508Y-101200198D01*
X75534508Y-101200198D02*
X75463080Y-101343055D01*
X75463080Y-101343055D02*
X75391651Y-101414484D01*
X75391651Y-101414484D02*
X75248794Y-101485912D01*
X75248794Y-101485912D02*
X74677365Y-101485912D01*
X74677365Y-101485912D02*
X74677365Y-99985912D01*
X74677365Y-99985912D02*
X75177365Y-99985912D01*
X75177365Y-99985912D02*
X75320223Y-100057341D01*
X75320223Y-100057341D02*
X75391651Y-100128769D01*
X75391651Y-100128769D02*
X75463080Y-100271626D01*
X75463080Y-100271626D02*
X75463080Y-100414484D01*
X75463080Y-100414484D02*
X75391651Y-100557341D01*
X75391651Y-100557341D02*
X75320223Y-100628769D01*
X75320223Y-100628769D02*
X75177365Y-100700198D01*
X75177365Y-100700198D02*
X74677365Y-100700198D01*
X76820223Y-100485912D02*
X76820223Y-101485912D01*
X76177365Y-100485912D02*
X76177365Y-101271626D01*
X76177365Y-101271626D02*
X76248794Y-101414484D01*
X76248794Y-101414484D02*
X76391651Y-101485912D01*
X76391651Y-101485912D02*
X76605937Y-101485912D01*
X76605937Y-101485912D02*
X76748794Y-101414484D01*
X76748794Y-101414484D02*
X76820223Y-101343055D01*
X78177366Y-101485912D02*
X78177366Y-99985912D01*
X78177366Y-101414484D02*
X78034508Y-101485912D01*
X78034508Y-101485912D02*
X77748794Y-101485912D01*
X77748794Y-101485912D02*
X77605937Y-101414484D01*
X77605937Y-101414484D02*
X77534508Y-101343055D01*
X77534508Y-101343055D02*
X77463080Y-101200198D01*
X77463080Y-101200198D02*
X77463080Y-100771626D01*
X77463080Y-100771626D02*
X77534508Y-100628769D01*
X77534508Y-100628769D02*
X77605937Y-100557341D01*
X77605937Y-100557341D02*
X77748794Y-100485912D01*
X77748794Y-100485912D02*
X78034508Y-100485912D01*
X78034508Y-100485912D02*
X78177366Y-100557341D01*
X79820223Y-99985912D02*
X80320223Y-101485912D01*
X80320223Y-101485912D02*
X80820223Y-99985912D01*
X81891651Y-101414484D02*
X81748794Y-101485912D01*
X81748794Y-101485912D02*
X81463080Y-101485912D01*
X81463080Y-101485912D02*
X81320222Y-101414484D01*
X81320222Y-101414484D02*
X81248794Y-101271626D01*
X81248794Y-101271626D02*
X81248794Y-100700198D01*
X81248794Y-100700198D02*
X81320222Y-100557341D01*
X81320222Y-100557341D02*
X81463080Y-100485912D01*
X81463080Y-100485912D02*
X81748794Y-100485912D01*
X81748794Y-100485912D02*
X81891651Y-100557341D01*
X81891651Y-100557341D02*
X81963080Y-100700198D01*
X81963080Y-100700198D02*
X81963080Y-100843055D01*
X81963080Y-100843055D02*
X81248794Y-100985912D01*
X82605936Y-101485912D02*
X82605936Y-100485912D01*
X82605936Y-100771626D02*
X82677365Y-100628769D01*
X82677365Y-100628769D02*
X82748794Y-100557341D01*
X82748794Y-100557341D02*
X82891651Y-100485912D01*
X82891651Y-100485912D02*
X83034508Y-100485912D01*
X83463079Y-101414484D02*
X83605936Y-101485912D01*
X83605936Y-101485912D02*
X83891650Y-101485912D01*
X83891650Y-101485912D02*
X84034507Y-101414484D01*
X84034507Y-101414484D02*
X84105936Y-101271626D01*
X84105936Y-101271626D02*
X84105936Y-101200198D01*
X84105936Y-101200198D02*
X84034507Y-101057341D01*
X84034507Y-101057341D02*
X83891650Y-100985912D01*
X83891650Y-100985912D02*
X83677365Y-100985912D01*
X83677365Y-100985912D02*
X83534507Y-100914484D01*
X83534507Y-100914484D02*
X83463079Y-100771626D01*
X83463079Y-100771626D02*
X83463079Y-100700198D01*
X83463079Y-100700198D02*
X83534507Y-100557341D01*
X83534507Y-100557341D02*
X83677365Y-100485912D01*
X83677365Y-100485912D02*
X83891650Y-100485912D01*
X83891650Y-100485912D02*
X84034507Y-100557341D01*
X84748793Y-101485912D02*
X84748793Y-100485912D01*
X84748793Y-99985912D02*
X84677365Y-100057341D01*
X84677365Y-100057341D02*
X84748793Y-100128769D01*
X84748793Y-100128769D02*
X84820222Y-100057341D01*
X84820222Y-100057341D02*
X84748793Y-99985912D01*
X84748793Y-99985912D02*
X84748793Y-100128769D01*
X85677365Y-101485912D02*
X85534508Y-101414484D01*
X85534508Y-101414484D02*
X85463079Y-101343055D01*
X85463079Y-101343055D02*
X85391651Y-101200198D01*
X85391651Y-101200198D02*
X85391651Y-100771626D01*
X85391651Y-100771626D02*
X85463079Y-100628769D01*
X85463079Y-100628769D02*
X85534508Y-100557341D01*
X85534508Y-100557341D02*
X85677365Y-100485912D01*
X85677365Y-100485912D02*
X85891651Y-100485912D01*
X85891651Y-100485912D02*
X86034508Y-100557341D01*
X86034508Y-100557341D02*
X86105937Y-100628769D01*
X86105937Y-100628769D02*
X86177365Y-100771626D01*
X86177365Y-100771626D02*
X86177365Y-101200198D01*
X86177365Y-101200198D02*
X86105937Y-101343055D01*
X86105937Y-101343055D02*
X86034508Y-101414484D01*
X86034508Y-101414484D02*
X85891651Y-101485912D01*
X85891651Y-101485912D02*
X85677365Y-101485912D01*
X86820222Y-100485912D02*
X86820222Y-101485912D01*
X86820222Y-100628769D02*
X86891651Y-100557341D01*
X86891651Y-100557341D02*
X87034508Y-100485912D01*
X87034508Y-100485912D02*
X87248794Y-100485912D01*
X87248794Y-100485912D02*
X87391651Y-100557341D01*
X87391651Y-100557341D02*
X87463080Y-100700198D01*
X87463080Y-100700198D02*
X87463080Y-101485912D01*
X90105937Y-101485912D02*
X89248794Y-101485912D01*
X89677365Y-101485912D02*
X89677365Y-99985912D01*
X89677365Y-99985912D02*
X89534508Y-100200198D01*
X89534508Y-100200198D02*
X89391651Y-100343055D01*
X89391651Y-100343055D02*
X89248794Y-100414484D01*
X90748793Y-101343055D02*
X90820222Y-101414484D01*
X90820222Y-101414484D02*
X90748793Y-101485912D01*
X90748793Y-101485912D02*
X90677365Y-101414484D01*
X90677365Y-101414484D02*
X90748793Y-101343055D01*
X90748793Y-101343055D02*
X90748793Y-101485912D01*
X92177365Y-99985912D02*
X91463079Y-99985912D01*
X91463079Y-99985912D02*
X91391651Y-100700198D01*
X91391651Y-100700198D02*
X91463079Y-100628769D01*
X91463079Y-100628769D02*
X91605937Y-100557341D01*
X91605937Y-100557341D02*
X91963079Y-100557341D01*
X91963079Y-100557341D02*
X92105937Y-100628769D01*
X92105937Y-100628769D02*
X92177365Y-100700198D01*
X92177365Y-100700198D02*
X92248794Y-100843055D01*
X92248794Y-100843055D02*
X92248794Y-101200198D01*
X92248794Y-101200198D02*
X92177365Y-101343055D01*
X92177365Y-101343055D02*
X92105937Y-101414484D01*
X92105937Y-101414484D02*
X91963079Y-101485912D01*
X91963079Y-101485912D02*
X91605937Y-101485912D01*
X91605937Y-101485912D02*
X91463079Y-101414484D01*
X91463079Y-101414484D02*
X91391651Y-101343055D01*
X59820225Y-103900828D02*
X58963082Y-103900828D01*
X59391653Y-103900828D02*
X59391653Y-102400828D01*
X59391653Y-102400828D02*
X59248796Y-102615114D01*
X59248796Y-102615114D02*
X59105939Y-102757971D01*
X59105939Y-102757971D02*
X58963082Y-102829400D01*
X61248796Y-103900828D02*
X60391653Y-103900828D01*
X60820224Y-103900828D02*
X60820224Y-102400828D01*
X60820224Y-102400828D02*
X60677367Y-102615114D01*
X60677367Y-102615114D02*
X60534510Y-102757971D01*
X60534510Y-102757971D02*
X60391653Y-102829400D01*
X62963081Y-102329400D02*
X61677367Y-104257971D01*
X63391653Y-102543685D02*
X63463081Y-102472257D01*
X63463081Y-102472257D02*
X63605939Y-102400828D01*
X63605939Y-102400828D02*
X63963081Y-102400828D01*
X63963081Y-102400828D02*
X64105939Y-102472257D01*
X64105939Y-102472257D02*
X64177367Y-102543685D01*
X64177367Y-102543685D02*
X64248796Y-102686542D01*
X64248796Y-102686542D02*
X64248796Y-102829400D01*
X64248796Y-102829400D02*
X64177367Y-103043685D01*
X64177367Y-103043685D02*
X63320224Y-103900828D01*
X63320224Y-103900828D02*
X64248796Y-103900828D01*
X65177367Y-102400828D02*
X65320224Y-102400828D01*
X65320224Y-102400828D02*
X65463081Y-102472257D01*
X65463081Y-102472257D02*
X65534510Y-102543685D01*
X65534510Y-102543685D02*
X65605938Y-102686542D01*
X65605938Y-102686542D02*
X65677367Y-102972257D01*
X65677367Y-102972257D02*
X65677367Y-103329400D01*
X65677367Y-103329400D02*
X65605938Y-103615114D01*
X65605938Y-103615114D02*
X65534510Y-103757971D01*
X65534510Y-103757971D02*
X65463081Y-103829400D01*
X65463081Y-103829400D02*
X65320224Y-103900828D01*
X65320224Y-103900828D02*
X65177367Y-103900828D01*
X65177367Y-103900828D02*
X65034510Y-103829400D01*
X65034510Y-103829400D02*
X64963081Y-103757971D01*
X64963081Y-103757971D02*
X64891652Y-103615114D01*
X64891652Y-103615114D02*
X64820224Y-103329400D01*
X64820224Y-103329400D02*
X64820224Y-102972257D01*
X64820224Y-102972257D02*
X64891652Y-102686542D01*
X64891652Y-102686542D02*
X64963081Y-102543685D01*
X64963081Y-102543685D02*
X65034510Y-102472257D01*
X65034510Y-102472257D02*
X65177367Y-102400828D01*
X67391652Y-102329400D02*
X66105938Y-104257971D01*
X67820224Y-102543685D02*
X67891652Y-102472257D01*
X67891652Y-102472257D02*
X68034510Y-102400828D01*
X68034510Y-102400828D02*
X68391652Y-102400828D01*
X68391652Y-102400828D02*
X68534510Y-102472257D01*
X68534510Y-102472257D02*
X68605938Y-102543685D01*
X68605938Y-102543685D02*
X68677367Y-102686542D01*
X68677367Y-102686542D02*
X68677367Y-102829400D01*
X68677367Y-102829400D02*
X68605938Y-103043685D01*
X68605938Y-103043685D02*
X67748795Y-103900828D01*
X67748795Y-103900828D02*
X68677367Y-103900828D01*
X69605938Y-102400828D02*
X69748795Y-102400828D01*
X69748795Y-102400828D02*
X69891652Y-102472257D01*
X69891652Y-102472257D02*
X69963081Y-102543685D01*
X69963081Y-102543685D02*
X70034509Y-102686542D01*
X70034509Y-102686542D02*
X70105938Y-102972257D01*
X70105938Y-102972257D02*
X70105938Y-103329400D01*
X70105938Y-103329400D02*
X70034509Y-103615114D01*
X70034509Y-103615114D02*
X69963081Y-103757971D01*
X69963081Y-103757971D02*
X69891652Y-103829400D01*
X69891652Y-103829400D02*
X69748795Y-103900828D01*
X69748795Y-103900828D02*
X69605938Y-103900828D01*
X69605938Y-103900828D02*
X69463081Y-103829400D01*
X69463081Y-103829400D02*
X69391652Y-103757971D01*
X69391652Y-103757971D02*
X69320223Y-103615114D01*
X69320223Y-103615114D02*
X69248795Y-103329400D01*
X69248795Y-103329400D02*
X69248795Y-102972257D01*
X69248795Y-102972257D02*
X69320223Y-102686542D01*
X69320223Y-102686542D02*
X69391652Y-102543685D01*
X69391652Y-102543685D02*
X69463081Y-102472257D01*
X69463081Y-102472257D02*
X69605938Y-102400828D01*
X70677366Y-102543685D02*
X70748794Y-102472257D01*
X70748794Y-102472257D02*
X70891652Y-102400828D01*
X70891652Y-102400828D02*
X71248794Y-102400828D01*
X71248794Y-102400828D02*
X71391652Y-102472257D01*
X71391652Y-102472257D02*
X71463080Y-102543685D01*
X71463080Y-102543685D02*
X71534509Y-102686542D01*
X71534509Y-102686542D02*
X71534509Y-102829400D01*
X71534509Y-102829400D02*
X71463080Y-103043685D01*
X71463080Y-103043685D02*
X70605937Y-103900828D01*
X70605937Y-103900828D02*
X71534509Y-103900828D01*
X72820223Y-102900828D02*
X72820223Y-103900828D01*
X72463080Y-102329400D02*
X72105937Y-103400828D01*
X72105937Y-103400828D02*
X73034508Y-103400828D01*
D11*
X157555895Y-98377143D02*
X156755895Y-98377143D01*
X156755895Y-98377143D02*
X156755895Y-98224762D01*
X156755895Y-98224762D02*
X156793990Y-98133333D01*
X156793990Y-98133333D02*
X156870180Y-98072381D01*
X156870180Y-98072381D02*
X156946371Y-98041904D01*
X156946371Y-98041904D02*
X157098752Y-98011428D01*
X157098752Y-98011428D02*
X157213038Y-98011428D01*
X157213038Y-98011428D02*
X157365419Y-98041904D01*
X157365419Y-98041904D02*
X157441609Y-98072381D01*
X157441609Y-98072381D02*
X157517800Y-98133333D01*
X157517800Y-98133333D02*
X157555895Y-98224762D01*
X157555895Y-98224762D02*
X157555895Y-98377143D01*
X157098752Y-97645714D02*
X157060657Y-97706666D01*
X157060657Y-97706666D02*
X157022561Y-97737143D01*
X157022561Y-97737143D02*
X156946371Y-97767619D01*
X156946371Y-97767619D02*
X156908276Y-97767619D01*
X156908276Y-97767619D02*
X156832085Y-97737143D01*
X156832085Y-97737143D02*
X156793990Y-97706666D01*
X156793990Y-97706666D02*
X156755895Y-97645714D01*
X156755895Y-97645714D02*
X156755895Y-97523809D01*
X156755895Y-97523809D02*
X156793990Y-97462857D01*
X156793990Y-97462857D02*
X156832085Y-97432381D01*
X156832085Y-97432381D02*
X156908276Y-97401904D01*
X156908276Y-97401904D02*
X156946371Y-97401904D01*
X156946371Y-97401904D02*
X157022561Y-97432381D01*
X157022561Y-97432381D02*
X157060657Y-97462857D01*
X157060657Y-97462857D02*
X157098752Y-97523809D01*
X157098752Y-97523809D02*
X157098752Y-97645714D01*
X157098752Y-97645714D02*
X157136847Y-97706666D01*
X157136847Y-97706666D02*
X157174942Y-97737143D01*
X157174942Y-97737143D02*
X157251133Y-97767619D01*
X157251133Y-97767619D02*
X157403514Y-97767619D01*
X157403514Y-97767619D02*
X157479704Y-97737143D01*
X157479704Y-97737143D02*
X157517800Y-97706666D01*
X157517800Y-97706666D02*
X157555895Y-97645714D01*
X157555895Y-97645714D02*
X157555895Y-97523809D01*
X157555895Y-97523809D02*
X157517800Y-97462857D01*
X157517800Y-97462857D02*
X157479704Y-97432381D01*
X157479704Y-97432381D02*
X157403514Y-97401904D01*
X157403514Y-97401904D02*
X157251133Y-97401904D01*
X157251133Y-97401904D02*
X157174942Y-97432381D01*
X157174942Y-97432381D02*
X157136847Y-97462857D01*
X157136847Y-97462857D02*
X157098752Y-97523809D01*
X156755895Y-97005714D02*
X156755895Y-96944761D01*
X156755895Y-96944761D02*
X156793990Y-96883809D01*
X156793990Y-96883809D02*
X156832085Y-96853333D01*
X156832085Y-96853333D02*
X156908276Y-96822857D01*
X156908276Y-96822857D02*
X157060657Y-96792380D01*
X157060657Y-96792380D02*
X157251133Y-96792380D01*
X157251133Y-96792380D02*
X157403514Y-96822857D01*
X157403514Y-96822857D02*
X157479704Y-96853333D01*
X157479704Y-96853333D02*
X157517800Y-96883809D01*
X157517800Y-96883809D02*
X157555895Y-96944761D01*
X157555895Y-96944761D02*
X157555895Y-97005714D01*
X157555895Y-97005714D02*
X157517800Y-97066666D01*
X157517800Y-97066666D02*
X157479704Y-97097142D01*
X157479704Y-97097142D02*
X157403514Y-97127619D01*
X157403514Y-97127619D02*
X157251133Y-97158095D01*
X157251133Y-97158095D02*
X157060657Y-97158095D01*
X157060657Y-97158095D02*
X156908276Y-97127619D01*
X156908276Y-97127619D02*
X156832085Y-97097142D01*
X156832085Y-97097142D02*
X156793990Y-97066666D01*
X156793990Y-97066666D02*
X156755895Y-97005714D01*
D12*
X163798095Y-99962219D02*
X163798095Y-100771742D01*
X163798095Y-100771742D02*
X163845714Y-100866980D01*
X163845714Y-100866980D02*
X163893333Y-100914600D01*
X163893333Y-100914600D02*
X163988571Y-100962219D01*
X163988571Y-100962219D02*
X164179047Y-100962219D01*
X164179047Y-100962219D02*
X164274285Y-100914600D01*
X164274285Y-100914600D02*
X164321904Y-100866980D01*
X164321904Y-100866980D02*
X164369523Y-100771742D01*
X164369523Y-100771742D02*
X164369523Y-99962219D01*
X164798095Y-100057457D02*
X164845714Y-100009838D01*
X164845714Y-100009838D02*
X164940952Y-99962219D01*
X164940952Y-99962219D02*
X165179047Y-99962219D01*
X165179047Y-99962219D02*
X165274285Y-100009838D01*
X165274285Y-100009838D02*
X165321904Y-100057457D01*
X165321904Y-100057457D02*
X165369523Y-100152695D01*
X165369523Y-100152695D02*
X165369523Y-100247933D01*
X165369523Y-100247933D02*
X165321904Y-100390790D01*
X165321904Y-100390790D02*
X164750476Y-100962219D01*
X164750476Y-100962219D02*
X165369523Y-100962219D01*
D11*
X145581744Y-105562268D02*
X145425488Y-105484140D01*
X145425488Y-105484140D02*
X145269232Y-105327885D01*
X145269232Y-105327885D02*
X145034849Y-105093501D01*
X145034849Y-105093501D02*
X144878593Y-105015373D01*
X144878593Y-105015373D02*
X144722337Y-105015373D01*
X144800465Y-105406012D02*
X144644210Y-105327885D01*
X144644210Y-105327885D02*
X144487954Y-105171629D01*
X144487954Y-105171629D02*
X144409826Y-104859117D01*
X144409826Y-104859117D02*
X144409826Y-104312222D01*
X144409826Y-104312222D02*
X144487954Y-103999711D01*
X144487954Y-103999711D02*
X144644210Y-103843455D01*
X144644210Y-103843455D02*
X144800465Y-103765327D01*
X144800465Y-103765327D02*
X145112977Y-103765327D01*
X145112977Y-103765327D02*
X145269232Y-103843455D01*
X145269232Y-103843455D02*
X145425488Y-103999711D01*
X145425488Y-103999711D02*
X145503616Y-104312222D01*
X145503616Y-104312222D02*
X145503616Y-104859117D01*
X145503616Y-104859117D02*
X145425488Y-105171629D01*
X145425488Y-105171629D02*
X145269232Y-105327885D01*
X145269232Y-105327885D02*
X145112977Y-105406012D01*
X145112977Y-105406012D02*
X144800465Y-105406012D01*
X147066173Y-105406012D02*
X146128639Y-105406012D01*
X146597406Y-105406012D02*
X146597406Y-103765327D01*
X146597406Y-103765327D02*
X146441150Y-103999711D01*
X146441150Y-103999711D02*
X146284895Y-104155967D01*
X146284895Y-104155967D02*
X146128639Y-104234095D01*
X116719580Y-57946666D02*
X116767200Y-57994285D01*
X116767200Y-57994285D02*
X116814819Y-58137142D01*
X116814819Y-58137142D02*
X116814819Y-58232380D01*
X116814819Y-58232380D02*
X116767200Y-58375237D01*
X116767200Y-58375237D02*
X116671961Y-58470475D01*
X116671961Y-58470475D02*
X116576723Y-58518094D01*
X116576723Y-58518094D02*
X116386247Y-58565713D01*
X116386247Y-58565713D02*
X116243390Y-58565713D01*
X116243390Y-58565713D02*
X116052914Y-58518094D01*
X116052914Y-58518094D02*
X115957676Y-58470475D01*
X115957676Y-58470475D02*
X115862438Y-58375237D01*
X115862438Y-58375237D02*
X115814819Y-58232380D01*
X115814819Y-58232380D02*
X115814819Y-58137142D01*
X115814819Y-58137142D02*
X115862438Y-57994285D01*
X115862438Y-57994285D02*
X115910057Y-57946666D01*
X115814819Y-57089523D02*
X115814819Y-57279999D01*
X115814819Y-57279999D02*
X115862438Y-57375237D01*
X115862438Y-57375237D02*
X115910057Y-57422856D01*
X115910057Y-57422856D02*
X116052914Y-57518094D01*
X116052914Y-57518094D02*
X116243390Y-57565713D01*
X116243390Y-57565713D02*
X116624342Y-57565713D01*
X116624342Y-57565713D02*
X116719580Y-57518094D01*
X116719580Y-57518094D02*
X116767200Y-57470475D01*
X116767200Y-57470475D02*
X116814819Y-57375237D01*
X116814819Y-57375237D02*
X116814819Y-57184761D01*
X116814819Y-57184761D02*
X116767200Y-57089523D01*
X116767200Y-57089523D02*
X116719580Y-57041904D01*
X116719580Y-57041904D02*
X116624342Y-56994285D01*
X116624342Y-56994285D02*
X116386247Y-56994285D01*
X116386247Y-56994285D02*
X116291009Y-57041904D01*
X116291009Y-57041904D02*
X116243390Y-57089523D01*
X116243390Y-57089523D02*
X116195771Y-57184761D01*
X116195771Y-57184761D02*
X116195771Y-57375237D01*
X116195771Y-57375237D02*
X116243390Y-57470475D01*
X116243390Y-57470475D02*
X116291009Y-57518094D01*
X116291009Y-57518094D02*
X116386247Y-57565713D01*
X121513333Y-64434819D02*
X121180000Y-63958628D01*
X120941905Y-64434819D02*
X120941905Y-63434819D01*
X120941905Y-63434819D02*
X121322857Y-63434819D01*
X121322857Y-63434819D02*
X121418095Y-63482438D01*
X121418095Y-63482438D02*
X121465714Y-63530057D01*
X121465714Y-63530057D02*
X121513333Y-63625295D01*
X121513333Y-63625295D02*
X121513333Y-63768152D01*
X121513333Y-63768152D02*
X121465714Y-63863390D01*
X121465714Y-63863390D02*
X121418095Y-63911009D01*
X121418095Y-63911009D02*
X121322857Y-63958628D01*
X121322857Y-63958628D02*
X120941905Y-63958628D01*
X121846667Y-63434819D02*
X122465714Y-63434819D01*
X122465714Y-63434819D02*
X122132381Y-63815771D01*
X122132381Y-63815771D02*
X122275238Y-63815771D01*
X122275238Y-63815771D02*
X122370476Y-63863390D01*
X122370476Y-63863390D02*
X122418095Y-63911009D01*
X122418095Y-63911009D02*
X122465714Y-64006247D01*
X122465714Y-64006247D02*
X122465714Y-64244342D01*
X122465714Y-64244342D02*
X122418095Y-64339580D01*
X122418095Y-64339580D02*
X122370476Y-64387200D01*
X122370476Y-64387200D02*
X122275238Y-64434819D01*
X122275238Y-64434819D02*
X121989524Y-64434819D01*
X121989524Y-64434819D02*
X121894286Y-64387200D01*
X121894286Y-64387200D02*
X121846667Y-64339580D01*
X139877142Y-82859580D02*
X139829523Y-82907200D01*
X139829523Y-82907200D02*
X139686666Y-82954819D01*
X139686666Y-82954819D02*
X139591428Y-82954819D01*
X139591428Y-82954819D02*
X139448571Y-82907200D01*
X139448571Y-82907200D02*
X139353333Y-82811961D01*
X139353333Y-82811961D02*
X139305714Y-82716723D01*
X139305714Y-82716723D02*
X139258095Y-82526247D01*
X139258095Y-82526247D02*
X139258095Y-82383390D01*
X139258095Y-82383390D02*
X139305714Y-82192914D01*
X139305714Y-82192914D02*
X139353333Y-82097676D01*
X139353333Y-82097676D02*
X139448571Y-82002438D01*
X139448571Y-82002438D02*
X139591428Y-81954819D01*
X139591428Y-81954819D02*
X139686666Y-81954819D01*
X139686666Y-81954819D02*
X139829523Y-82002438D01*
X139829523Y-82002438D02*
X139877142Y-82050057D01*
X140829523Y-82954819D02*
X140258095Y-82954819D01*
X140543809Y-82954819D02*
X140543809Y-81954819D01*
X140543809Y-81954819D02*
X140448571Y-82097676D01*
X140448571Y-82097676D02*
X140353333Y-82192914D01*
X140353333Y-82192914D02*
X140258095Y-82240533D01*
X141686666Y-82288152D02*
X141686666Y-82954819D01*
X141448571Y-81907200D02*
X141210476Y-82621485D01*
X141210476Y-82621485D02*
X141829523Y-82621485D01*
X143313333Y-99744819D02*
X142980000Y-99268628D01*
X142741905Y-99744819D02*
X142741905Y-98744819D01*
X142741905Y-98744819D02*
X143122857Y-98744819D01*
X143122857Y-98744819D02*
X143218095Y-98792438D01*
X143218095Y-98792438D02*
X143265714Y-98840057D01*
X143265714Y-98840057D02*
X143313333Y-98935295D01*
X143313333Y-98935295D02*
X143313333Y-99078152D01*
X143313333Y-99078152D02*
X143265714Y-99173390D01*
X143265714Y-99173390D02*
X143218095Y-99221009D01*
X143218095Y-99221009D02*
X143122857Y-99268628D01*
X143122857Y-99268628D02*
X142741905Y-99268628D01*
X144265714Y-99744819D02*
X143694286Y-99744819D01*
X143980000Y-99744819D02*
X143980000Y-98744819D01*
X143980000Y-98744819D02*
X143884762Y-98887676D01*
X143884762Y-98887676D02*
X143789524Y-98982914D01*
X143789524Y-98982914D02*
X143694286Y-99030533D01*
X175922856Y-97368695D02*
X175922856Y-96568695D01*
X175922856Y-96568695D02*
X176075237Y-96568695D01*
X176075237Y-96568695D02*
X176166666Y-96606790D01*
X176166666Y-96606790D02*
X176227618Y-96682980D01*
X176227618Y-96682980D02*
X176258095Y-96759171D01*
X176258095Y-96759171D02*
X176288571Y-96911552D01*
X176288571Y-96911552D02*
X176288571Y-97025838D01*
X176288571Y-97025838D02*
X176258095Y-97178219D01*
X176258095Y-97178219D02*
X176227618Y-97254409D01*
X176227618Y-97254409D02*
X176166666Y-97330600D01*
X176166666Y-97330600D02*
X176075237Y-97368695D01*
X176075237Y-97368695D02*
X175922856Y-97368695D01*
X176501904Y-96568695D02*
X176928571Y-96568695D01*
X176928571Y-96568695D02*
X176654285Y-97368695D01*
X177202857Y-97368695D02*
X177324761Y-97368695D01*
X177324761Y-97368695D02*
X177385714Y-97330600D01*
X177385714Y-97330600D02*
X177416190Y-97292504D01*
X177416190Y-97292504D02*
X177477142Y-97178219D01*
X177477142Y-97178219D02*
X177507619Y-97025838D01*
X177507619Y-97025838D02*
X177507619Y-96721076D01*
X177507619Y-96721076D02*
X177477142Y-96644885D01*
X177477142Y-96644885D02*
X177446666Y-96606790D01*
X177446666Y-96606790D02*
X177385714Y-96568695D01*
X177385714Y-96568695D02*
X177263809Y-96568695D01*
X177263809Y-96568695D02*
X177202857Y-96606790D01*
X177202857Y-96606790D02*
X177172380Y-96644885D01*
X177172380Y-96644885D02*
X177141904Y-96721076D01*
X177141904Y-96721076D02*
X177141904Y-96911552D01*
X177141904Y-96911552D02*
X177172380Y-96987742D01*
X177172380Y-96987742D02*
X177202857Y-97025838D01*
X177202857Y-97025838D02*
X177263809Y-97063933D01*
X177263809Y-97063933D02*
X177385714Y-97063933D01*
X177385714Y-97063933D02*
X177446666Y-97025838D01*
X177446666Y-97025838D02*
X177477142Y-96987742D01*
X177477142Y-96987742D02*
X177507619Y-96911552D01*
X106814819Y-71972857D02*
X106338628Y-72306190D01*
X106814819Y-72544285D02*
X105814819Y-72544285D01*
X105814819Y-72544285D02*
X105814819Y-72163333D01*
X105814819Y-72163333D02*
X105862438Y-72068095D01*
X105862438Y-72068095D02*
X105910057Y-72020476D01*
X105910057Y-72020476D02*
X106005295Y-71972857D01*
X106005295Y-71972857D02*
X106148152Y-71972857D01*
X106148152Y-71972857D02*
X106243390Y-72020476D01*
X106243390Y-72020476D02*
X106291009Y-72068095D01*
X106291009Y-72068095D02*
X106338628Y-72163333D01*
X106338628Y-72163333D02*
X106338628Y-72544285D01*
X106814819Y-71020476D02*
X106814819Y-71591904D01*
X106814819Y-71306190D02*
X105814819Y-71306190D01*
X105814819Y-71306190D02*
X105957676Y-71401428D01*
X105957676Y-71401428D02*
X106052914Y-71496666D01*
X106052914Y-71496666D02*
X106100533Y-71591904D01*
X105814819Y-70401428D02*
X105814819Y-70306190D01*
X105814819Y-70306190D02*
X105862438Y-70210952D01*
X105862438Y-70210952D02*
X105910057Y-70163333D01*
X105910057Y-70163333D02*
X106005295Y-70115714D01*
X106005295Y-70115714D02*
X106195771Y-70068095D01*
X106195771Y-70068095D02*
X106433866Y-70068095D01*
X106433866Y-70068095D02*
X106624342Y-70115714D01*
X106624342Y-70115714D02*
X106719580Y-70163333D01*
X106719580Y-70163333D02*
X106767200Y-70210952D01*
X106767200Y-70210952D02*
X106814819Y-70306190D01*
X106814819Y-70306190D02*
X106814819Y-70401428D01*
X106814819Y-70401428D02*
X106767200Y-70496666D01*
X106767200Y-70496666D02*
X106719580Y-70544285D01*
X106719580Y-70544285D02*
X106624342Y-70591904D01*
X106624342Y-70591904D02*
X106433866Y-70639523D01*
X106433866Y-70639523D02*
X106195771Y-70639523D01*
X106195771Y-70639523D02*
X106005295Y-70591904D01*
X106005295Y-70591904D02*
X105910057Y-70544285D01*
X105910057Y-70544285D02*
X105862438Y-70496666D01*
X105862438Y-70496666D02*
X105814819Y-70401428D01*
X154454819Y-77302857D02*
X153978628Y-77636190D01*
X154454819Y-77874285D02*
X153454819Y-77874285D01*
X153454819Y-77874285D02*
X153454819Y-77493333D01*
X153454819Y-77493333D02*
X153502438Y-77398095D01*
X153502438Y-77398095D02*
X153550057Y-77350476D01*
X153550057Y-77350476D02*
X153645295Y-77302857D01*
X153645295Y-77302857D02*
X153788152Y-77302857D01*
X153788152Y-77302857D02*
X153883390Y-77350476D01*
X153883390Y-77350476D02*
X153931009Y-77398095D01*
X153931009Y-77398095D02*
X153978628Y-77493333D01*
X153978628Y-77493333D02*
X153978628Y-77874285D01*
X154454819Y-76350476D02*
X154454819Y-76921904D01*
X154454819Y-76636190D02*
X153454819Y-76636190D01*
X153454819Y-76636190D02*
X153597676Y-76731428D01*
X153597676Y-76731428D02*
X153692914Y-76826666D01*
X153692914Y-76826666D02*
X153740533Y-76921904D01*
X154454819Y-75398095D02*
X154454819Y-75969523D01*
X154454819Y-75683809D02*
X153454819Y-75683809D01*
X153454819Y-75683809D02*
X153597676Y-75779047D01*
X153597676Y-75779047D02*
X153692914Y-75874285D01*
X153692914Y-75874285D02*
X153740533Y-75969523D01*
X129777142Y-93704819D02*
X129443809Y-93228628D01*
X129205714Y-93704819D02*
X129205714Y-92704819D01*
X129205714Y-92704819D02*
X129586666Y-92704819D01*
X129586666Y-92704819D02*
X129681904Y-92752438D01*
X129681904Y-92752438D02*
X129729523Y-92800057D01*
X129729523Y-92800057D02*
X129777142Y-92895295D01*
X129777142Y-92895295D02*
X129777142Y-93038152D01*
X129777142Y-93038152D02*
X129729523Y-93133390D01*
X129729523Y-93133390D02*
X129681904Y-93181009D01*
X129681904Y-93181009D02*
X129586666Y-93228628D01*
X129586666Y-93228628D02*
X129205714Y-93228628D01*
X130729523Y-93704819D02*
X130158095Y-93704819D01*
X130443809Y-93704819D02*
X130443809Y-92704819D01*
X130443809Y-92704819D02*
X130348571Y-92847676D01*
X130348571Y-92847676D02*
X130253333Y-92942914D01*
X130253333Y-92942914D02*
X130158095Y-92990533D01*
X131205714Y-93704819D02*
X131396190Y-93704819D01*
X131396190Y-93704819D02*
X131491428Y-93657200D01*
X131491428Y-93657200D02*
X131539047Y-93609580D01*
X131539047Y-93609580D02*
X131634285Y-93466723D01*
X131634285Y-93466723D02*
X131681904Y-93276247D01*
X131681904Y-93276247D02*
X131681904Y-92895295D01*
X131681904Y-92895295D02*
X131634285Y-92800057D01*
X131634285Y-92800057D02*
X131586666Y-92752438D01*
X131586666Y-92752438D02*
X131491428Y-92704819D01*
X131491428Y-92704819D02*
X131300952Y-92704819D01*
X131300952Y-92704819D02*
X131205714Y-92752438D01*
X131205714Y-92752438D02*
X131158095Y-92800057D01*
X131158095Y-92800057D02*
X131110476Y-92895295D01*
X131110476Y-92895295D02*
X131110476Y-93133390D01*
X131110476Y-93133390D02*
X131158095Y-93228628D01*
X131158095Y-93228628D02*
X131205714Y-93276247D01*
X131205714Y-93276247D02*
X131300952Y-93323866D01*
X131300952Y-93323866D02*
X131491428Y-93323866D01*
X131491428Y-93323866D02*
X131586666Y-93276247D01*
X131586666Y-93276247D02*
X131634285Y-93228628D01*
X131634285Y-93228628D02*
X131681904Y-93133390D01*
X157967142Y-90399580D02*
X157919523Y-90447200D01*
X157919523Y-90447200D02*
X157776666Y-90494819D01*
X157776666Y-90494819D02*
X157681428Y-90494819D01*
X157681428Y-90494819D02*
X157538571Y-90447200D01*
X157538571Y-90447200D02*
X157443333Y-90351961D01*
X157443333Y-90351961D02*
X157395714Y-90256723D01*
X157395714Y-90256723D02*
X157348095Y-90066247D01*
X157348095Y-90066247D02*
X157348095Y-89923390D01*
X157348095Y-89923390D02*
X157395714Y-89732914D01*
X157395714Y-89732914D02*
X157443333Y-89637676D01*
X157443333Y-89637676D02*
X157538571Y-89542438D01*
X157538571Y-89542438D02*
X157681428Y-89494819D01*
X157681428Y-89494819D02*
X157776666Y-89494819D01*
X157776666Y-89494819D02*
X157919523Y-89542438D01*
X157919523Y-89542438D02*
X157967142Y-89590057D01*
X158919523Y-90494819D02*
X158348095Y-90494819D01*
X158633809Y-90494819D02*
X158633809Y-89494819D01*
X158633809Y-89494819D02*
X158538571Y-89637676D01*
X158538571Y-89637676D02*
X158443333Y-89732914D01*
X158443333Y-89732914D02*
X158348095Y-89780533D01*
X159871904Y-90494819D02*
X159300476Y-90494819D01*
X159586190Y-90494819D02*
X159586190Y-89494819D01*
X159586190Y-89494819D02*
X159490952Y-89637676D01*
X159490952Y-89637676D02*
X159395714Y-89732914D01*
X159395714Y-89732914D02*
X159300476Y-89780533D01*
X169413332Y-88532800D02*
X169270475Y-88485180D01*
X169270475Y-88485180D02*
X169032380Y-88485180D01*
X169032380Y-88485180D02*
X168937142Y-88532800D01*
X168937142Y-88532800D02*
X168889523Y-88580419D01*
X168889523Y-88580419D02*
X168841904Y-88675657D01*
X168841904Y-88675657D02*
X168841904Y-88770895D01*
X168841904Y-88770895D02*
X168889523Y-88866133D01*
X168889523Y-88866133D02*
X168937142Y-88913752D01*
X168937142Y-88913752D02*
X169032380Y-88961371D01*
X169032380Y-88961371D02*
X169222856Y-89008990D01*
X169222856Y-89008990D02*
X169318094Y-89056609D01*
X169318094Y-89056609D02*
X169365713Y-89104228D01*
X169365713Y-89104228D02*
X169413332Y-89199466D01*
X169413332Y-89199466D02*
X169413332Y-89294704D01*
X169413332Y-89294704D02*
X169365713Y-89389942D01*
X169365713Y-89389942D02*
X169318094Y-89437561D01*
X169318094Y-89437561D02*
X169222856Y-89485180D01*
X169222856Y-89485180D02*
X168984761Y-89485180D01*
X168984761Y-89485180D02*
X168841904Y-89437561D01*
X168508570Y-89485180D02*
X168270475Y-88485180D01*
X168270475Y-88485180D02*
X168079999Y-89199466D01*
X168079999Y-89199466D02*
X167889523Y-88485180D01*
X167889523Y-88485180D02*
X167651428Y-89485180D01*
X167318094Y-89389942D02*
X167270475Y-89437561D01*
X167270475Y-89437561D02*
X167175237Y-89485180D01*
X167175237Y-89485180D02*
X166937142Y-89485180D01*
X166937142Y-89485180D02*
X166841904Y-89437561D01*
X166841904Y-89437561D02*
X166794285Y-89389942D01*
X166794285Y-89389942D02*
X166746666Y-89294704D01*
X166746666Y-89294704D02*
X166746666Y-89199466D01*
X166746666Y-89199466D02*
X166794285Y-89056609D01*
X166794285Y-89056609D02*
X167365713Y-88485180D01*
X167365713Y-88485180D02*
X166746666Y-88485180D01*
X122983333Y-104645180D02*
X122983333Y-103930895D01*
X122983333Y-103930895D02*
X123030952Y-103788038D01*
X123030952Y-103788038D02*
X123126190Y-103692800D01*
X123126190Y-103692800D02*
X123269047Y-103645180D01*
X123269047Y-103645180D02*
X123364285Y-103645180D01*
X122030952Y-104645180D02*
X122507142Y-104645180D01*
X122507142Y-104645180D02*
X122554761Y-104168990D01*
X122554761Y-104168990D02*
X122507142Y-104216609D01*
X122507142Y-104216609D02*
X122411904Y-104264228D01*
X122411904Y-104264228D02*
X122173809Y-104264228D01*
X122173809Y-104264228D02*
X122078571Y-104216609D01*
X122078571Y-104216609D02*
X122030952Y-104168990D01*
X122030952Y-104168990D02*
X121983333Y-104073752D01*
X121983333Y-104073752D02*
X121983333Y-103835657D01*
X121983333Y-103835657D02*
X122030952Y-103740419D01*
X122030952Y-103740419D02*
X122078571Y-103692800D01*
X122078571Y-103692800D02*
X122173809Y-103645180D01*
X122173809Y-103645180D02*
X122411904Y-103645180D01*
X122411904Y-103645180D02*
X122507142Y-103692800D01*
X122507142Y-103692800D02*
X122554761Y-103740419D01*
X71183333Y-62289580D02*
X71135714Y-62337200D01*
X71135714Y-62337200D02*
X70992857Y-62384819D01*
X70992857Y-62384819D02*
X70897619Y-62384819D01*
X70897619Y-62384819D02*
X70754762Y-62337200D01*
X70754762Y-62337200D02*
X70659524Y-62241961D01*
X70659524Y-62241961D02*
X70611905Y-62146723D01*
X70611905Y-62146723D02*
X70564286Y-61956247D01*
X70564286Y-61956247D02*
X70564286Y-61813390D01*
X70564286Y-61813390D02*
X70611905Y-61622914D01*
X70611905Y-61622914D02*
X70659524Y-61527676D01*
X70659524Y-61527676D02*
X70754762Y-61432438D01*
X70754762Y-61432438D02*
X70897619Y-61384819D01*
X70897619Y-61384819D02*
X70992857Y-61384819D01*
X70992857Y-61384819D02*
X71135714Y-61432438D01*
X71135714Y-61432438D02*
X71183333Y-61480057D01*
X71659524Y-62384819D02*
X71850000Y-62384819D01*
X71850000Y-62384819D02*
X71945238Y-62337200D01*
X71945238Y-62337200D02*
X71992857Y-62289580D01*
X71992857Y-62289580D02*
X72088095Y-62146723D01*
X72088095Y-62146723D02*
X72135714Y-61956247D01*
X72135714Y-61956247D02*
X72135714Y-61575295D01*
X72135714Y-61575295D02*
X72088095Y-61480057D01*
X72088095Y-61480057D02*
X72040476Y-61432438D01*
X72040476Y-61432438D02*
X71945238Y-61384819D01*
X71945238Y-61384819D02*
X71754762Y-61384819D01*
X71754762Y-61384819D02*
X71659524Y-61432438D01*
X71659524Y-61432438D02*
X71611905Y-61480057D01*
X71611905Y-61480057D02*
X71564286Y-61575295D01*
X71564286Y-61575295D02*
X71564286Y-61813390D01*
X71564286Y-61813390D02*
X71611905Y-61908628D01*
X71611905Y-61908628D02*
X71659524Y-61956247D01*
X71659524Y-61956247D02*
X71754762Y-62003866D01*
X71754762Y-62003866D02*
X71945238Y-62003866D01*
X71945238Y-62003866D02*
X72040476Y-61956247D01*
X72040476Y-61956247D02*
X72088095Y-61908628D01*
X72088095Y-61908628D02*
X72135714Y-61813390D01*
X111393333Y-65689580D02*
X111345714Y-65737200D01*
X111345714Y-65737200D02*
X111202857Y-65784819D01*
X111202857Y-65784819D02*
X111107619Y-65784819D01*
X111107619Y-65784819D02*
X110964762Y-65737200D01*
X110964762Y-65737200D02*
X110869524Y-65641961D01*
X110869524Y-65641961D02*
X110821905Y-65546723D01*
X110821905Y-65546723D02*
X110774286Y-65356247D01*
X110774286Y-65356247D02*
X110774286Y-65213390D01*
X110774286Y-65213390D02*
X110821905Y-65022914D01*
X110821905Y-65022914D02*
X110869524Y-64927676D01*
X110869524Y-64927676D02*
X110964762Y-64832438D01*
X110964762Y-64832438D02*
X111107619Y-64784819D01*
X111107619Y-64784819D02*
X111202857Y-64784819D01*
X111202857Y-64784819D02*
X111345714Y-64832438D01*
X111345714Y-64832438D02*
X111393333Y-64880057D01*
X111964762Y-65213390D02*
X111869524Y-65165771D01*
X111869524Y-65165771D02*
X111821905Y-65118152D01*
X111821905Y-65118152D02*
X111774286Y-65022914D01*
X111774286Y-65022914D02*
X111774286Y-64975295D01*
X111774286Y-64975295D02*
X111821905Y-64880057D01*
X111821905Y-64880057D02*
X111869524Y-64832438D01*
X111869524Y-64832438D02*
X111964762Y-64784819D01*
X111964762Y-64784819D02*
X112155238Y-64784819D01*
X112155238Y-64784819D02*
X112250476Y-64832438D01*
X112250476Y-64832438D02*
X112298095Y-64880057D01*
X112298095Y-64880057D02*
X112345714Y-64975295D01*
X112345714Y-64975295D02*
X112345714Y-65022914D01*
X112345714Y-65022914D02*
X112298095Y-65118152D01*
X112298095Y-65118152D02*
X112250476Y-65165771D01*
X112250476Y-65165771D02*
X112155238Y-65213390D01*
X112155238Y-65213390D02*
X111964762Y-65213390D01*
X111964762Y-65213390D02*
X111869524Y-65261009D01*
X111869524Y-65261009D02*
X111821905Y-65308628D01*
X111821905Y-65308628D02*
X111774286Y-65403866D01*
X111774286Y-65403866D02*
X111774286Y-65594342D01*
X111774286Y-65594342D02*
X111821905Y-65689580D01*
X111821905Y-65689580D02*
X111869524Y-65737200D01*
X111869524Y-65737200D02*
X111964762Y-65784819D01*
X111964762Y-65784819D02*
X112155238Y-65784819D01*
X112155238Y-65784819D02*
X112250476Y-65737200D01*
X112250476Y-65737200D02*
X112298095Y-65689580D01*
X112298095Y-65689580D02*
X112345714Y-65594342D01*
X112345714Y-65594342D02*
X112345714Y-65403866D01*
X112345714Y-65403866D02*
X112298095Y-65308628D01*
X112298095Y-65308628D02*
X112250476Y-65261009D01*
X112250476Y-65261009D02*
X112155238Y-65213390D01*
X178279580Y-74557857D02*
X178327200Y-74605476D01*
X178327200Y-74605476D02*
X178374819Y-74748333D01*
X178374819Y-74748333D02*
X178374819Y-74843571D01*
X178374819Y-74843571D02*
X178327200Y-74986428D01*
X178327200Y-74986428D02*
X178231961Y-75081666D01*
X178231961Y-75081666D02*
X178136723Y-75129285D01*
X178136723Y-75129285D02*
X177946247Y-75176904D01*
X177946247Y-75176904D02*
X177803390Y-75176904D01*
X177803390Y-75176904D02*
X177612914Y-75129285D01*
X177612914Y-75129285D02*
X177517676Y-75081666D01*
X177517676Y-75081666D02*
X177422438Y-74986428D01*
X177422438Y-74986428D02*
X177374819Y-74843571D01*
X177374819Y-74843571D02*
X177374819Y-74748333D01*
X177374819Y-74748333D02*
X177422438Y-74605476D01*
X177422438Y-74605476D02*
X177470057Y-74557857D01*
X178374819Y-73605476D02*
X178374819Y-74176904D01*
X178374819Y-73891190D02*
X177374819Y-73891190D01*
X177374819Y-73891190D02*
X177517676Y-73986428D01*
X177517676Y-73986428D02*
X177612914Y-74081666D01*
X177612914Y-74081666D02*
X177660533Y-74176904D01*
X177470057Y-73224523D02*
X177422438Y-73176904D01*
X177422438Y-73176904D02*
X177374819Y-73081666D01*
X177374819Y-73081666D02*
X177374819Y-72843571D01*
X177374819Y-72843571D02*
X177422438Y-72748333D01*
X177422438Y-72748333D02*
X177470057Y-72700714D01*
X177470057Y-72700714D02*
X177565295Y-72653095D01*
X177565295Y-72653095D02*
X177660533Y-72653095D01*
X177660533Y-72653095D02*
X177803390Y-72700714D01*
X177803390Y-72700714D02*
X178374819Y-73272142D01*
X178374819Y-73272142D02*
X178374819Y-72653095D01*
X150254819Y-58723333D02*
X150969104Y-58723333D01*
X150969104Y-58723333D02*
X151111961Y-58770952D01*
X151111961Y-58770952D02*
X151207200Y-58866190D01*
X151207200Y-58866190D02*
X151254819Y-59009047D01*
X151254819Y-59009047D02*
X151254819Y-59104285D01*
X151254819Y-58247142D02*
X150254819Y-58247142D01*
X150254819Y-58247142D02*
X150254819Y-57866190D01*
X150254819Y-57866190D02*
X150302438Y-57770952D01*
X150302438Y-57770952D02*
X150350057Y-57723333D01*
X150350057Y-57723333D02*
X150445295Y-57675714D01*
X150445295Y-57675714D02*
X150588152Y-57675714D01*
X150588152Y-57675714D02*
X150683390Y-57723333D01*
X150683390Y-57723333D02*
X150731009Y-57770952D01*
X150731009Y-57770952D02*
X150778628Y-57866190D01*
X150778628Y-57866190D02*
X150778628Y-58247142D01*
X151254819Y-56723333D02*
X151254819Y-57294761D01*
X151254819Y-57009047D02*
X150254819Y-57009047D01*
X150254819Y-57009047D02*
X150397676Y-57104285D01*
X150397676Y-57104285D02*
X150492914Y-57199523D01*
X150492914Y-57199523D02*
X150540533Y-57294761D01*
X112776667Y-62547200D02*
X112919524Y-62594819D01*
X112919524Y-62594819D02*
X113157619Y-62594819D01*
X113157619Y-62594819D02*
X113252857Y-62547200D01*
X113252857Y-62547200D02*
X113300476Y-62499580D01*
X113300476Y-62499580D02*
X113348095Y-62404342D01*
X113348095Y-62404342D02*
X113348095Y-62309104D01*
X113348095Y-62309104D02*
X113300476Y-62213866D01*
X113300476Y-62213866D02*
X113252857Y-62166247D01*
X113252857Y-62166247D02*
X113157619Y-62118628D01*
X113157619Y-62118628D02*
X112967143Y-62071009D01*
X112967143Y-62071009D02*
X112871905Y-62023390D01*
X112871905Y-62023390D02*
X112824286Y-61975771D01*
X112824286Y-61975771D02*
X112776667Y-61880533D01*
X112776667Y-61880533D02*
X112776667Y-61785295D01*
X112776667Y-61785295D02*
X112824286Y-61690057D01*
X112824286Y-61690057D02*
X112871905Y-61642438D01*
X112871905Y-61642438D02*
X112967143Y-61594819D01*
X112967143Y-61594819D02*
X113205238Y-61594819D01*
X113205238Y-61594819D02*
X113348095Y-61642438D01*
X113681429Y-61594819D02*
X113919524Y-62594819D01*
X113919524Y-62594819D02*
X114110000Y-61880533D01*
X114110000Y-61880533D02*
X114300476Y-62594819D01*
X114300476Y-62594819D02*
X114538572Y-61594819D01*
X115443333Y-62594819D02*
X114871905Y-62594819D01*
X115157619Y-62594819D02*
X115157619Y-61594819D01*
X115157619Y-61594819D02*
X115062381Y-61737676D01*
X115062381Y-61737676D02*
X114967143Y-61832914D01*
X114967143Y-61832914D02*
X114871905Y-61880533D01*
X132584819Y-71441904D02*
X133394342Y-71441904D01*
X133394342Y-71441904D02*
X133489580Y-71394285D01*
X133489580Y-71394285D02*
X133537200Y-71346666D01*
X133537200Y-71346666D02*
X133584819Y-71251428D01*
X133584819Y-71251428D02*
X133584819Y-71060952D01*
X133584819Y-71060952D02*
X133537200Y-70965714D01*
X133537200Y-70965714D02*
X133489580Y-70918095D01*
X133489580Y-70918095D02*
X133394342Y-70870476D01*
X133394342Y-70870476D02*
X132584819Y-70870476D01*
X132584819Y-70489523D02*
X132584819Y-69870476D01*
X132584819Y-69870476D02*
X132965771Y-70203809D01*
X132965771Y-70203809D02*
X132965771Y-70060952D01*
X132965771Y-70060952D02*
X133013390Y-69965714D01*
X133013390Y-69965714D02*
X133061009Y-69918095D01*
X133061009Y-69918095D02*
X133156247Y-69870476D01*
X133156247Y-69870476D02*
X133394342Y-69870476D01*
X133394342Y-69870476D02*
X133489580Y-69918095D01*
X133489580Y-69918095D02*
X133537200Y-69965714D01*
X133537200Y-69965714D02*
X133584819Y-70060952D01*
X133584819Y-70060952D02*
X133584819Y-70346666D01*
X133584819Y-70346666D02*
X133537200Y-70441904D01*
X133537200Y-70441904D02*
X133489580Y-70489523D01*
X215599819Y-103829934D02*
X216314104Y-103829934D01*
X216314104Y-103829934D02*
X216456961Y-103877553D01*
X216456961Y-103877553D02*
X216552200Y-103972791D01*
X216552200Y-103972791D02*
X216599819Y-104115648D01*
X216599819Y-104115648D02*
X216599819Y-104210886D01*
X215599819Y-102925172D02*
X215599819Y-103115648D01*
X215599819Y-103115648D02*
X215647438Y-103210886D01*
X215647438Y-103210886D02*
X215695057Y-103258505D01*
X215695057Y-103258505D02*
X215837914Y-103353743D01*
X215837914Y-103353743D02*
X216028390Y-103401362D01*
X216028390Y-103401362D02*
X216409342Y-103401362D01*
X216409342Y-103401362D02*
X216504580Y-103353743D01*
X216504580Y-103353743D02*
X216552200Y-103306124D01*
X216552200Y-103306124D02*
X216599819Y-103210886D01*
X216599819Y-103210886D02*
X216599819Y-103020410D01*
X216599819Y-103020410D02*
X216552200Y-102925172D01*
X216552200Y-102925172D02*
X216504580Y-102877553D01*
X216504580Y-102877553D02*
X216409342Y-102829934D01*
X216409342Y-102829934D02*
X216171247Y-102829934D01*
X216171247Y-102829934D02*
X216076009Y-102877553D01*
X216076009Y-102877553D02*
X216028390Y-102925172D01*
X216028390Y-102925172D02*
X215980771Y-103020410D01*
X215980771Y-103020410D02*
X215980771Y-103210886D01*
X215980771Y-103210886D02*
X216028390Y-103306124D01*
X216028390Y-103306124D02*
X216076009Y-103353743D01*
X216076009Y-103353743D02*
X216171247Y-103401362D01*
X146196666Y-92710419D02*
X146244285Y-92662800D01*
X146244285Y-92662800D02*
X146387142Y-92615180D01*
X146387142Y-92615180D02*
X146482380Y-92615180D01*
X146482380Y-92615180D02*
X146625237Y-92662800D01*
X146625237Y-92662800D02*
X146720475Y-92758038D01*
X146720475Y-92758038D02*
X146768094Y-92853276D01*
X146768094Y-92853276D02*
X146815713Y-93043752D01*
X146815713Y-93043752D02*
X146815713Y-93186609D01*
X146815713Y-93186609D02*
X146768094Y-93377085D01*
X146768094Y-93377085D02*
X146720475Y-93472323D01*
X146720475Y-93472323D02*
X146625237Y-93567561D01*
X146625237Y-93567561D02*
X146482380Y-93615180D01*
X146482380Y-93615180D02*
X146387142Y-93615180D01*
X146387142Y-93615180D02*
X146244285Y-93567561D01*
X146244285Y-93567561D02*
X146196666Y-93519942D01*
X145196666Y-92615180D02*
X145529999Y-93091371D01*
X145768094Y-92615180D02*
X145768094Y-93615180D01*
X145768094Y-93615180D02*
X145387142Y-93615180D01*
X145387142Y-93615180D02*
X145291904Y-93567561D01*
X145291904Y-93567561D02*
X145244285Y-93519942D01*
X145244285Y-93519942D02*
X145196666Y-93424704D01*
X145196666Y-93424704D02*
X145196666Y-93281847D01*
X145196666Y-93281847D02*
X145244285Y-93186609D01*
X145244285Y-93186609D02*
X145291904Y-93138990D01*
X145291904Y-93138990D02*
X145387142Y-93091371D01*
X145387142Y-93091371D02*
X145768094Y-93091371D01*
X144244285Y-92615180D02*
X144815713Y-92615180D01*
X144529999Y-92615180D02*
X144529999Y-93615180D01*
X144529999Y-93615180D02*
X144625237Y-93472323D01*
X144625237Y-93472323D02*
X144720475Y-93377085D01*
X144720475Y-93377085D02*
X144815713Y-93329466D01*
X118053333Y-59929580D02*
X118005714Y-59977200D01*
X118005714Y-59977200D02*
X117862857Y-60024819D01*
X117862857Y-60024819D02*
X117767619Y-60024819D01*
X117767619Y-60024819D02*
X117624762Y-59977200D01*
X117624762Y-59977200D02*
X117529524Y-59881961D01*
X117529524Y-59881961D02*
X117481905Y-59786723D01*
X117481905Y-59786723D02*
X117434286Y-59596247D01*
X117434286Y-59596247D02*
X117434286Y-59453390D01*
X117434286Y-59453390D02*
X117481905Y-59262914D01*
X117481905Y-59262914D02*
X117529524Y-59167676D01*
X117529524Y-59167676D02*
X117624762Y-59072438D01*
X117624762Y-59072438D02*
X117767619Y-59024819D01*
X117767619Y-59024819D02*
X117862857Y-59024819D01*
X117862857Y-59024819D02*
X118005714Y-59072438D01*
X118005714Y-59072438D02*
X118053333Y-59120057D01*
X118386667Y-59024819D02*
X119053333Y-59024819D01*
X119053333Y-59024819D02*
X118624762Y-60024819D01*
X119743333Y-57984819D02*
X119410000Y-57508628D01*
X119171905Y-57984819D02*
X119171905Y-56984819D01*
X119171905Y-56984819D02*
X119552857Y-56984819D01*
X119552857Y-56984819D02*
X119648095Y-57032438D01*
X119648095Y-57032438D02*
X119695714Y-57080057D01*
X119695714Y-57080057D02*
X119743333Y-57175295D01*
X119743333Y-57175295D02*
X119743333Y-57318152D01*
X119743333Y-57318152D02*
X119695714Y-57413390D01*
X119695714Y-57413390D02*
X119648095Y-57461009D01*
X119648095Y-57461009D02*
X119552857Y-57508628D01*
X119552857Y-57508628D02*
X119171905Y-57508628D01*
X120124286Y-57080057D02*
X120171905Y-57032438D01*
X120171905Y-57032438D02*
X120267143Y-56984819D01*
X120267143Y-56984819D02*
X120505238Y-56984819D01*
X120505238Y-56984819D02*
X120600476Y-57032438D01*
X120600476Y-57032438D02*
X120648095Y-57080057D01*
X120648095Y-57080057D02*
X120695714Y-57175295D01*
X120695714Y-57175295D02*
X120695714Y-57270533D01*
X120695714Y-57270533D02*
X120648095Y-57413390D01*
X120648095Y-57413390D02*
X120076667Y-57984819D01*
X120076667Y-57984819D02*
X120695714Y-57984819D01*
X167543333Y-107749580D02*
X167495714Y-107797200D01*
X167495714Y-107797200D02*
X167352857Y-107844819D01*
X167352857Y-107844819D02*
X167257619Y-107844819D01*
X167257619Y-107844819D02*
X167114762Y-107797200D01*
X167114762Y-107797200D02*
X167019524Y-107701961D01*
X167019524Y-107701961D02*
X166971905Y-107606723D01*
X166971905Y-107606723D02*
X166924286Y-107416247D01*
X166924286Y-107416247D02*
X166924286Y-107273390D01*
X166924286Y-107273390D02*
X166971905Y-107082914D01*
X166971905Y-107082914D02*
X167019524Y-106987676D01*
X167019524Y-106987676D02*
X167114762Y-106892438D01*
X167114762Y-106892438D02*
X167257619Y-106844819D01*
X167257619Y-106844819D02*
X167352857Y-106844819D01*
X167352857Y-106844819D02*
X167495714Y-106892438D01*
X167495714Y-106892438D02*
X167543333Y-106940057D01*
X167876667Y-106844819D02*
X168495714Y-106844819D01*
X168495714Y-106844819D02*
X168162381Y-107225771D01*
X168162381Y-107225771D02*
X168305238Y-107225771D01*
X168305238Y-107225771D02*
X168400476Y-107273390D01*
X168400476Y-107273390D02*
X168448095Y-107321009D01*
X168448095Y-107321009D02*
X168495714Y-107416247D01*
X168495714Y-107416247D02*
X168495714Y-107654342D01*
X168495714Y-107654342D02*
X168448095Y-107749580D01*
X168448095Y-107749580D02*
X168400476Y-107797200D01*
X168400476Y-107797200D02*
X168305238Y-107844819D01*
X168305238Y-107844819D02*
X168019524Y-107844819D01*
X168019524Y-107844819D02*
X167924286Y-107797200D01*
X167924286Y-107797200D02*
X167876667Y-107749580D01*
X64043333Y-64584819D02*
X63710000Y-64108628D01*
X63471905Y-64584819D02*
X63471905Y-63584819D01*
X63471905Y-63584819D02*
X63852857Y-63584819D01*
X63852857Y-63584819D02*
X63948095Y-63632438D01*
X63948095Y-63632438D02*
X63995714Y-63680057D01*
X63995714Y-63680057D02*
X64043333Y-63775295D01*
X64043333Y-63775295D02*
X64043333Y-63918152D01*
X64043333Y-63918152D02*
X63995714Y-64013390D01*
X63995714Y-64013390D02*
X63948095Y-64061009D01*
X63948095Y-64061009D02*
X63852857Y-64108628D01*
X63852857Y-64108628D02*
X63471905Y-64108628D01*
X64614762Y-64013390D02*
X64519524Y-63965771D01*
X64519524Y-63965771D02*
X64471905Y-63918152D01*
X64471905Y-63918152D02*
X64424286Y-63822914D01*
X64424286Y-63822914D02*
X64424286Y-63775295D01*
X64424286Y-63775295D02*
X64471905Y-63680057D01*
X64471905Y-63680057D02*
X64519524Y-63632438D01*
X64519524Y-63632438D02*
X64614762Y-63584819D01*
X64614762Y-63584819D02*
X64805238Y-63584819D01*
X64805238Y-63584819D02*
X64900476Y-63632438D01*
X64900476Y-63632438D02*
X64948095Y-63680057D01*
X64948095Y-63680057D02*
X64995714Y-63775295D01*
X64995714Y-63775295D02*
X64995714Y-63822914D01*
X64995714Y-63822914D02*
X64948095Y-63918152D01*
X64948095Y-63918152D02*
X64900476Y-63965771D01*
X64900476Y-63965771D02*
X64805238Y-64013390D01*
X64805238Y-64013390D02*
X64614762Y-64013390D01*
X64614762Y-64013390D02*
X64519524Y-64061009D01*
X64519524Y-64061009D02*
X64471905Y-64108628D01*
X64471905Y-64108628D02*
X64424286Y-64203866D01*
X64424286Y-64203866D02*
X64424286Y-64394342D01*
X64424286Y-64394342D02*
X64471905Y-64489580D01*
X64471905Y-64489580D02*
X64519524Y-64537200D01*
X64519524Y-64537200D02*
X64614762Y-64584819D01*
X64614762Y-64584819D02*
X64805238Y-64584819D01*
X64805238Y-64584819D02*
X64900476Y-64537200D01*
X64900476Y-64537200D02*
X64948095Y-64489580D01*
X64948095Y-64489580D02*
X64995714Y-64394342D01*
X64995714Y-64394342D02*
X64995714Y-64203866D01*
X64995714Y-64203866D02*
X64948095Y-64108628D01*
X64948095Y-64108628D02*
X64900476Y-64061009D01*
X64900476Y-64061009D02*
X64805238Y-64013390D01*
X105286666Y-102814819D02*
X105286666Y-103529104D01*
X105286666Y-103529104D02*
X105239047Y-103671961D01*
X105239047Y-103671961D02*
X105143809Y-103767200D01*
X105143809Y-103767200D02*
X105000952Y-103814819D01*
X105000952Y-103814819D02*
X104905714Y-103814819D01*
X106191428Y-103148152D02*
X106191428Y-103814819D01*
X105953333Y-102767200D02*
X105715238Y-103481485D01*
X105715238Y-103481485D02*
X106334285Y-103481485D01*
X130474819Y-82401904D02*
X131284342Y-82401904D01*
X131284342Y-82401904D02*
X131379580Y-82354285D01*
X131379580Y-82354285D02*
X131427200Y-82306666D01*
X131427200Y-82306666D02*
X131474819Y-82211428D01*
X131474819Y-82211428D02*
X131474819Y-82020952D01*
X131474819Y-82020952D02*
X131427200Y-81925714D01*
X131427200Y-81925714D02*
X131379580Y-81878095D01*
X131379580Y-81878095D02*
X131284342Y-81830476D01*
X131284342Y-81830476D02*
X130474819Y-81830476D01*
X130474819Y-80878095D02*
X130474819Y-81354285D01*
X130474819Y-81354285D02*
X130951009Y-81401904D01*
X130951009Y-81401904D02*
X130903390Y-81354285D01*
X130903390Y-81354285D02*
X130855771Y-81259047D01*
X130855771Y-81259047D02*
X130855771Y-81020952D01*
X130855771Y-81020952D02*
X130903390Y-80925714D01*
X130903390Y-80925714D02*
X130951009Y-80878095D01*
X130951009Y-80878095D02*
X131046247Y-80830476D01*
X131046247Y-80830476D02*
X131284342Y-80830476D01*
X131284342Y-80830476D02*
X131379580Y-80878095D01*
X131379580Y-80878095D02*
X131427200Y-80925714D01*
X131427200Y-80925714D02*
X131474819Y-81020952D01*
X131474819Y-81020952D02*
X131474819Y-81259047D01*
X131474819Y-81259047D02*
X131427200Y-81354285D01*
X131427200Y-81354285D02*
X131379580Y-81401904D01*
X142777142Y-78819580D02*
X142729523Y-78867200D01*
X142729523Y-78867200D02*
X142586666Y-78914819D01*
X142586666Y-78914819D02*
X142491428Y-78914819D01*
X142491428Y-78914819D02*
X142348571Y-78867200D01*
X142348571Y-78867200D02*
X142253333Y-78771961D01*
X142253333Y-78771961D02*
X142205714Y-78676723D01*
X142205714Y-78676723D02*
X142158095Y-78486247D01*
X142158095Y-78486247D02*
X142158095Y-78343390D01*
X142158095Y-78343390D02*
X142205714Y-78152914D01*
X142205714Y-78152914D02*
X142253333Y-78057676D01*
X142253333Y-78057676D02*
X142348571Y-77962438D01*
X142348571Y-77962438D02*
X142491428Y-77914819D01*
X142491428Y-77914819D02*
X142586666Y-77914819D01*
X142586666Y-77914819D02*
X142729523Y-77962438D01*
X142729523Y-77962438D02*
X142777142Y-78010057D01*
X143729523Y-78914819D02*
X143158095Y-78914819D01*
X143443809Y-78914819D02*
X143443809Y-77914819D01*
X143443809Y-77914819D02*
X143348571Y-78057676D01*
X143348571Y-78057676D02*
X143253333Y-78152914D01*
X143253333Y-78152914D02*
X143158095Y-78200533D01*
X144062857Y-77914819D02*
X144681904Y-77914819D01*
X144681904Y-77914819D02*
X144348571Y-78295771D01*
X144348571Y-78295771D02*
X144491428Y-78295771D01*
X144491428Y-78295771D02*
X144586666Y-78343390D01*
X144586666Y-78343390D02*
X144634285Y-78391009D01*
X144634285Y-78391009D02*
X144681904Y-78486247D01*
X144681904Y-78486247D02*
X144681904Y-78724342D01*
X144681904Y-78724342D02*
X144634285Y-78819580D01*
X144634285Y-78819580D02*
X144586666Y-78867200D01*
X144586666Y-78867200D02*
X144491428Y-78914819D01*
X144491428Y-78914819D02*
X144205714Y-78914819D01*
X144205714Y-78914819D02*
X144110476Y-78867200D01*
X144110476Y-78867200D02*
X144062857Y-78819580D01*
X157334819Y-70572857D02*
X156858628Y-70906190D01*
X157334819Y-71144285D02*
X156334819Y-71144285D01*
X156334819Y-71144285D02*
X156334819Y-70763333D01*
X156334819Y-70763333D02*
X156382438Y-70668095D01*
X156382438Y-70668095D02*
X156430057Y-70620476D01*
X156430057Y-70620476D02*
X156525295Y-70572857D01*
X156525295Y-70572857D02*
X156668152Y-70572857D01*
X156668152Y-70572857D02*
X156763390Y-70620476D01*
X156763390Y-70620476D02*
X156811009Y-70668095D01*
X156811009Y-70668095D02*
X156858628Y-70763333D01*
X156858628Y-70763333D02*
X156858628Y-71144285D01*
X157334819Y-69620476D02*
X157334819Y-70191904D01*
X157334819Y-69906190D02*
X156334819Y-69906190D01*
X156334819Y-69906190D02*
X156477676Y-70001428D01*
X156477676Y-70001428D02*
X156572914Y-70096666D01*
X156572914Y-70096666D02*
X156620533Y-70191904D01*
X156430057Y-69239523D02*
X156382438Y-69191904D01*
X156382438Y-69191904D02*
X156334819Y-69096666D01*
X156334819Y-69096666D02*
X156334819Y-68858571D01*
X156334819Y-68858571D02*
X156382438Y-68763333D01*
X156382438Y-68763333D02*
X156430057Y-68715714D01*
X156430057Y-68715714D02*
X156525295Y-68668095D01*
X156525295Y-68668095D02*
X156620533Y-68668095D01*
X156620533Y-68668095D02*
X156763390Y-68715714D01*
X156763390Y-68715714D02*
X157334819Y-69287142D01*
X157334819Y-69287142D02*
X157334819Y-68668095D01*
X127607142Y-79274819D02*
X127273809Y-78798628D01*
X127035714Y-79274819D02*
X127035714Y-78274819D01*
X127035714Y-78274819D02*
X127416666Y-78274819D01*
X127416666Y-78274819D02*
X127511904Y-78322438D01*
X127511904Y-78322438D02*
X127559523Y-78370057D01*
X127559523Y-78370057D02*
X127607142Y-78465295D01*
X127607142Y-78465295D02*
X127607142Y-78608152D01*
X127607142Y-78608152D02*
X127559523Y-78703390D01*
X127559523Y-78703390D02*
X127511904Y-78751009D01*
X127511904Y-78751009D02*
X127416666Y-78798628D01*
X127416666Y-78798628D02*
X127035714Y-78798628D01*
X128559523Y-79274819D02*
X127988095Y-79274819D01*
X128273809Y-79274819D02*
X128273809Y-78274819D01*
X128273809Y-78274819D02*
X128178571Y-78417676D01*
X128178571Y-78417676D02*
X128083333Y-78512914D01*
X128083333Y-78512914D02*
X127988095Y-78560533D01*
X129416666Y-78608152D02*
X129416666Y-79274819D01*
X129178571Y-78227200D02*
X128940476Y-78941485D01*
X128940476Y-78941485D02*
X129559523Y-78941485D01*
X146427200Y-78758332D02*
X146474819Y-78615475D01*
X146474819Y-78615475D02*
X146474819Y-78377380D01*
X146474819Y-78377380D02*
X146427200Y-78282142D01*
X146427200Y-78282142D02*
X146379580Y-78234523D01*
X146379580Y-78234523D02*
X146284342Y-78186904D01*
X146284342Y-78186904D02*
X146189104Y-78186904D01*
X146189104Y-78186904D02*
X146093866Y-78234523D01*
X146093866Y-78234523D02*
X146046247Y-78282142D01*
X146046247Y-78282142D02*
X145998628Y-78377380D01*
X145998628Y-78377380D02*
X145951009Y-78567856D01*
X145951009Y-78567856D02*
X145903390Y-78663094D01*
X145903390Y-78663094D02*
X145855771Y-78710713D01*
X145855771Y-78710713D02*
X145760533Y-78758332D01*
X145760533Y-78758332D02*
X145665295Y-78758332D01*
X145665295Y-78758332D02*
X145570057Y-78710713D01*
X145570057Y-78710713D02*
X145522438Y-78663094D01*
X145522438Y-78663094D02*
X145474819Y-78567856D01*
X145474819Y-78567856D02*
X145474819Y-78329761D01*
X145474819Y-78329761D02*
X145522438Y-78186904D01*
X145474819Y-77853570D02*
X146474819Y-77615475D01*
X146474819Y-77615475D02*
X145760533Y-77424999D01*
X145760533Y-77424999D02*
X146474819Y-77234523D01*
X146474819Y-77234523D02*
X145474819Y-76996428D01*
X145474819Y-76710713D02*
X145474819Y-76044047D01*
X145474819Y-76044047D02*
X146474819Y-76472618D01*
X126407142Y-93614819D02*
X126073809Y-93138628D01*
X125835714Y-93614819D02*
X125835714Y-92614819D01*
X125835714Y-92614819D02*
X126216666Y-92614819D01*
X126216666Y-92614819D02*
X126311904Y-92662438D01*
X126311904Y-92662438D02*
X126359523Y-92710057D01*
X126359523Y-92710057D02*
X126407142Y-92805295D01*
X126407142Y-92805295D02*
X126407142Y-92948152D01*
X126407142Y-92948152D02*
X126359523Y-93043390D01*
X126359523Y-93043390D02*
X126311904Y-93091009D01*
X126311904Y-93091009D02*
X126216666Y-93138628D01*
X126216666Y-93138628D02*
X125835714Y-93138628D01*
X126788095Y-92710057D02*
X126835714Y-92662438D01*
X126835714Y-92662438D02*
X126930952Y-92614819D01*
X126930952Y-92614819D02*
X127169047Y-92614819D01*
X127169047Y-92614819D02*
X127264285Y-92662438D01*
X127264285Y-92662438D02*
X127311904Y-92710057D01*
X127311904Y-92710057D02*
X127359523Y-92805295D01*
X127359523Y-92805295D02*
X127359523Y-92900533D01*
X127359523Y-92900533D02*
X127311904Y-93043390D01*
X127311904Y-93043390D02*
X126740476Y-93614819D01*
X126740476Y-93614819D02*
X127359523Y-93614819D01*
X127978571Y-92614819D02*
X128073809Y-92614819D01*
X128073809Y-92614819D02*
X128169047Y-92662438D01*
X128169047Y-92662438D02*
X128216666Y-92710057D01*
X128216666Y-92710057D02*
X128264285Y-92805295D01*
X128264285Y-92805295D02*
X128311904Y-92995771D01*
X128311904Y-92995771D02*
X128311904Y-93233866D01*
X128311904Y-93233866D02*
X128264285Y-93424342D01*
X128264285Y-93424342D02*
X128216666Y-93519580D01*
X128216666Y-93519580D02*
X128169047Y-93567200D01*
X128169047Y-93567200D02*
X128073809Y-93614819D01*
X128073809Y-93614819D02*
X127978571Y-93614819D01*
X127978571Y-93614819D02*
X127883333Y-93567200D01*
X127883333Y-93567200D02*
X127835714Y-93519580D01*
X127835714Y-93519580D02*
X127788095Y-93424342D01*
X127788095Y-93424342D02*
X127740476Y-93233866D01*
X127740476Y-93233866D02*
X127740476Y-92995771D01*
X127740476Y-92995771D02*
X127788095Y-92805295D01*
X127788095Y-92805295D02*
X127835714Y-92710057D01*
X127835714Y-92710057D02*
X127883333Y-92662438D01*
X127883333Y-92662438D02*
X127978571Y-92614819D01*
X153296666Y-97774819D02*
X153296666Y-98489104D01*
X153296666Y-98489104D02*
X153249047Y-98631961D01*
X153249047Y-98631961D02*
X153153809Y-98727200D01*
X153153809Y-98727200D02*
X153010952Y-98774819D01*
X153010952Y-98774819D02*
X152915714Y-98774819D01*
X154296666Y-98774819D02*
X153725238Y-98774819D01*
X154010952Y-98774819D02*
X154010952Y-97774819D01*
X154010952Y-97774819D02*
X153915714Y-97917676D01*
X153915714Y-97917676D02*
X153820476Y-98012914D01*
X153820476Y-98012914D02*
X153725238Y-98060533D01*
X71696666Y-56534819D02*
X71696666Y-57249104D01*
X71696666Y-57249104D02*
X71649047Y-57391961D01*
X71649047Y-57391961D02*
X71553809Y-57487200D01*
X71553809Y-57487200D02*
X71410952Y-57534819D01*
X71410952Y-57534819D02*
X71315714Y-57534819D01*
X72125238Y-56630057D02*
X72172857Y-56582438D01*
X72172857Y-56582438D02*
X72268095Y-56534819D01*
X72268095Y-56534819D02*
X72506190Y-56534819D01*
X72506190Y-56534819D02*
X72601428Y-56582438D01*
X72601428Y-56582438D02*
X72649047Y-56630057D01*
X72649047Y-56630057D02*
X72696666Y-56725295D01*
X72696666Y-56725295D02*
X72696666Y-56820533D01*
X72696666Y-56820533D02*
X72649047Y-56963390D01*
X72649047Y-56963390D02*
X72077619Y-57534819D01*
X72077619Y-57534819D02*
X72696666Y-57534819D01*
X154566666Y-62874819D02*
X154566666Y-63589104D01*
X154566666Y-63589104D02*
X154519047Y-63731961D01*
X154519047Y-63731961D02*
X154423809Y-63827200D01*
X154423809Y-63827200D02*
X154280952Y-63874819D01*
X154280952Y-63874819D02*
X154185714Y-63874819D01*
X155042857Y-63874819D02*
X155042857Y-62874819D01*
X155042857Y-62874819D02*
X155423809Y-62874819D01*
X155423809Y-62874819D02*
X155519047Y-62922438D01*
X155519047Y-62922438D02*
X155566666Y-62970057D01*
X155566666Y-62970057D02*
X155614285Y-63065295D01*
X155614285Y-63065295D02*
X155614285Y-63208152D01*
X155614285Y-63208152D02*
X155566666Y-63303390D01*
X155566666Y-63303390D02*
X155519047Y-63351009D01*
X155519047Y-63351009D02*
X155423809Y-63398628D01*
X155423809Y-63398628D02*
X155042857Y-63398628D01*
X155947619Y-62874819D02*
X156566666Y-62874819D01*
X156566666Y-62874819D02*
X156233333Y-63255771D01*
X156233333Y-63255771D02*
X156376190Y-63255771D01*
X156376190Y-63255771D02*
X156471428Y-63303390D01*
X156471428Y-63303390D02*
X156519047Y-63351009D01*
X156519047Y-63351009D02*
X156566666Y-63446247D01*
X156566666Y-63446247D02*
X156566666Y-63684342D01*
X156566666Y-63684342D02*
X156519047Y-63779580D01*
X156519047Y-63779580D02*
X156471428Y-63827200D01*
X156471428Y-63827200D02*
X156376190Y-63874819D01*
X156376190Y-63874819D02*
X156090476Y-63874819D01*
X156090476Y-63874819D02*
X155995238Y-63827200D01*
X155995238Y-63827200D02*
X155947619Y-63779580D01*
X61377142Y-62299580D02*
X61329523Y-62347200D01*
X61329523Y-62347200D02*
X61186666Y-62394819D01*
X61186666Y-62394819D02*
X61091428Y-62394819D01*
X61091428Y-62394819D02*
X60948571Y-62347200D01*
X60948571Y-62347200D02*
X60853333Y-62251961D01*
X60853333Y-62251961D02*
X60805714Y-62156723D01*
X60805714Y-62156723D02*
X60758095Y-61966247D01*
X60758095Y-61966247D02*
X60758095Y-61823390D01*
X60758095Y-61823390D02*
X60805714Y-61632914D01*
X60805714Y-61632914D02*
X60853333Y-61537676D01*
X60853333Y-61537676D02*
X60948571Y-61442438D01*
X60948571Y-61442438D02*
X61091428Y-61394819D01*
X61091428Y-61394819D02*
X61186666Y-61394819D01*
X61186666Y-61394819D02*
X61329523Y-61442438D01*
X61329523Y-61442438D02*
X61377142Y-61490057D01*
X62329523Y-62394819D02*
X61758095Y-62394819D01*
X62043809Y-62394819D02*
X62043809Y-61394819D01*
X62043809Y-61394819D02*
X61948571Y-61537676D01*
X61948571Y-61537676D02*
X61853333Y-61632914D01*
X61853333Y-61632914D02*
X61758095Y-61680533D01*
X62948571Y-61394819D02*
X63043809Y-61394819D01*
X63043809Y-61394819D02*
X63139047Y-61442438D01*
X63139047Y-61442438D02*
X63186666Y-61490057D01*
X63186666Y-61490057D02*
X63234285Y-61585295D01*
X63234285Y-61585295D02*
X63281904Y-61775771D01*
X63281904Y-61775771D02*
X63281904Y-62013866D01*
X63281904Y-62013866D02*
X63234285Y-62204342D01*
X63234285Y-62204342D02*
X63186666Y-62299580D01*
X63186666Y-62299580D02*
X63139047Y-62347200D01*
X63139047Y-62347200D02*
X63043809Y-62394819D01*
X63043809Y-62394819D02*
X62948571Y-62394819D01*
X62948571Y-62394819D02*
X62853333Y-62347200D01*
X62853333Y-62347200D02*
X62805714Y-62299580D01*
X62805714Y-62299580D02*
X62758095Y-62204342D01*
X62758095Y-62204342D02*
X62710476Y-62013866D01*
X62710476Y-62013866D02*
X62710476Y-61775771D01*
X62710476Y-61775771D02*
X62758095Y-61585295D01*
X62758095Y-61585295D02*
X62805714Y-61490057D01*
X62805714Y-61490057D02*
X62853333Y-61442438D01*
X62853333Y-61442438D02*
X62948571Y-61394819D01*
X160767142Y-89034819D02*
X160433809Y-88558628D01*
X160195714Y-89034819D02*
X160195714Y-88034819D01*
X160195714Y-88034819D02*
X160576666Y-88034819D01*
X160576666Y-88034819D02*
X160671904Y-88082438D01*
X160671904Y-88082438D02*
X160719523Y-88130057D01*
X160719523Y-88130057D02*
X160767142Y-88225295D01*
X160767142Y-88225295D02*
X160767142Y-88368152D01*
X160767142Y-88368152D02*
X160719523Y-88463390D01*
X160719523Y-88463390D02*
X160671904Y-88511009D01*
X160671904Y-88511009D02*
X160576666Y-88558628D01*
X160576666Y-88558628D02*
X160195714Y-88558628D01*
X161719523Y-89034819D02*
X161148095Y-89034819D01*
X161433809Y-89034819D02*
X161433809Y-88034819D01*
X161433809Y-88034819D02*
X161338571Y-88177676D01*
X161338571Y-88177676D02*
X161243333Y-88272914D01*
X161243333Y-88272914D02*
X161148095Y-88320533D01*
X162052857Y-88034819D02*
X162671904Y-88034819D01*
X162671904Y-88034819D02*
X162338571Y-88415771D01*
X162338571Y-88415771D02*
X162481428Y-88415771D01*
X162481428Y-88415771D02*
X162576666Y-88463390D01*
X162576666Y-88463390D02*
X162624285Y-88511009D01*
X162624285Y-88511009D02*
X162671904Y-88606247D01*
X162671904Y-88606247D02*
X162671904Y-88844342D01*
X162671904Y-88844342D02*
X162624285Y-88939580D01*
X162624285Y-88939580D02*
X162576666Y-88987200D01*
X162576666Y-88987200D02*
X162481428Y-89034819D01*
X162481428Y-89034819D02*
X162195714Y-89034819D01*
X162195714Y-89034819D02*
X162100476Y-88987200D01*
X162100476Y-88987200D02*
X162052857Y-88939580D01*
X139707142Y-93664819D02*
X139373809Y-93188628D01*
X139135714Y-93664819D02*
X139135714Y-92664819D01*
X139135714Y-92664819D02*
X139516666Y-92664819D01*
X139516666Y-92664819D02*
X139611904Y-92712438D01*
X139611904Y-92712438D02*
X139659523Y-92760057D01*
X139659523Y-92760057D02*
X139707142Y-92855295D01*
X139707142Y-92855295D02*
X139707142Y-92998152D01*
X139707142Y-92998152D02*
X139659523Y-93093390D01*
X139659523Y-93093390D02*
X139611904Y-93141009D01*
X139611904Y-93141009D02*
X139516666Y-93188628D01*
X139516666Y-93188628D02*
X139135714Y-93188628D01*
X140659523Y-93664819D02*
X140088095Y-93664819D01*
X140373809Y-93664819D02*
X140373809Y-92664819D01*
X140373809Y-92664819D02*
X140278571Y-92807676D01*
X140278571Y-92807676D02*
X140183333Y-92902914D01*
X140183333Y-92902914D02*
X140088095Y-92950533D01*
X141516666Y-92664819D02*
X141326190Y-92664819D01*
X141326190Y-92664819D02*
X141230952Y-92712438D01*
X141230952Y-92712438D02*
X141183333Y-92760057D01*
X141183333Y-92760057D02*
X141088095Y-92902914D01*
X141088095Y-92902914D02*
X141040476Y-93093390D01*
X141040476Y-93093390D02*
X141040476Y-93474342D01*
X141040476Y-93474342D02*
X141088095Y-93569580D01*
X141088095Y-93569580D02*
X141135714Y-93617200D01*
X141135714Y-93617200D02*
X141230952Y-93664819D01*
X141230952Y-93664819D02*
X141421428Y-93664819D01*
X141421428Y-93664819D02*
X141516666Y-93617200D01*
X141516666Y-93617200D02*
X141564285Y-93569580D01*
X141564285Y-93569580D02*
X141611904Y-93474342D01*
X141611904Y-93474342D02*
X141611904Y-93236247D01*
X141611904Y-93236247D02*
X141564285Y-93141009D01*
X141564285Y-93141009D02*
X141516666Y-93093390D01*
X141516666Y-93093390D02*
X141421428Y-93045771D01*
X141421428Y-93045771D02*
X141230952Y-93045771D01*
X141230952Y-93045771D02*
X141135714Y-93093390D01*
X141135714Y-93093390D02*
X141088095Y-93141009D01*
X141088095Y-93141009D02*
X141040476Y-93236247D01*
X172654819Y-99042857D02*
X172178628Y-99376190D01*
X172654819Y-99614285D02*
X171654819Y-99614285D01*
X171654819Y-99614285D02*
X171654819Y-99233333D01*
X171654819Y-99233333D02*
X171702438Y-99138095D01*
X171702438Y-99138095D02*
X171750057Y-99090476D01*
X171750057Y-99090476D02*
X171845295Y-99042857D01*
X171845295Y-99042857D02*
X171988152Y-99042857D01*
X171988152Y-99042857D02*
X172083390Y-99090476D01*
X172083390Y-99090476D02*
X172131009Y-99138095D01*
X172131009Y-99138095D02*
X172178628Y-99233333D01*
X172178628Y-99233333D02*
X172178628Y-99614285D01*
X171750057Y-98661904D02*
X171702438Y-98614285D01*
X171702438Y-98614285D02*
X171654819Y-98519047D01*
X171654819Y-98519047D02*
X171654819Y-98280952D01*
X171654819Y-98280952D02*
X171702438Y-98185714D01*
X171702438Y-98185714D02*
X171750057Y-98138095D01*
X171750057Y-98138095D02*
X171845295Y-98090476D01*
X171845295Y-98090476D02*
X171940533Y-98090476D01*
X171940533Y-98090476D02*
X172083390Y-98138095D01*
X172083390Y-98138095D02*
X172654819Y-98709523D01*
X172654819Y-98709523D02*
X172654819Y-98090476D01*
X171750057Y-97709523D02*
X171702438Y-97661904D01*
X171702438Y-97661904D02*
X171654819Y-97566666D01*
X171654819Y-97566666D02*
X171654819Y-97328571D01*
X171654819Y-97328571D02*
X171702438Y-97233333D01*
X171702438Y-97233333D02*
X171750057Y-97185714D01*
X171750057Y-97185714D02*
X171845295Y-97138095D01*
X171845295Y-97138095D02*
X171940533Y-97138095D01*
X171940533Y-97138095D02*
X172083390Y-97185714D01*
X172083390Y-97185714D02*
X172654819Y-97757142D01*
X172654819Y-97757142D02*
X172654819Y-97138095D01*
X85886666Y-58004819D02*
X85886666Y-58719104D01*
X85886666Y-58719104D02*
X85839047Y-58861961D01*
X85839047Y-58861961D02*
X85743809Y-58957200D01*
X85743809Y-58957200D02*
X85600952Y-59004819D01*
X85600952Y-59004819D02*
X85505714Y-59004819D01*
X86267619Y-58004819D02*
X86886666Y-58004819D01*
X86886666Y-58004819D02*
X86553333Y-58385771D01*
X86553333Y-58385771D02*
X86696190Y-58385771D01*
X86696190Y-58385771D02*
X86791428Y-58433390D01*
X86791428Y-58433390D02*
X86839047Y-58481009D01*
X86839047Y-58481009D02*
X86886666Y-58576247D01*
X86886666Y-58576247D02*
X86886666Y-58814342D01*
X86886666Y-58814342D02*
X86839047Y-58909580D01*
X86839047Y-58909580D02*
X86791428Y-58957200D01*
X86791428Y-58957200D02*
X86696190Y-59004819D01*
X86696190Y-59004819D02*
X86410476Y-59004819D01*
X86410476Y-59004819D02*
X86315238Y-58957200D01*
X86315238Y-58957200D02*
X86267619Y-58909580D01*
X153363333Y-83869580D02*
X153315714Y-83917200D01*
X153315714Y-83917200D02*
X153172857Y-83964819D01*
X153172857Y-83964819D02*
X153077619Y-83964819D01*
X153077619Y-83964819D02*
X152934762Y-83917200D01*
X152934762Y-83917200D02*
X152839524Y-83821961D01*
X152839524Y-83821961D02*
X152791905Y-83726723D01*
X152791905Y-83726723D02*
X152744286Y-83536247D01*
X152744286Y-83536247D02*
X152744286Y-83393390D01*
X152744286Y-83393390D02*
X152791905Y-83202914D01*
X152791905Y-83202914D02*
X152839524Y-83107676D01*
X152839524Y-83107676D02*
X152934762Y-83012438D01*
X152934762Y-83012438D02*
X153077619Y-82964819D01*
X153077619Y-82964819D02*
X153172857Y-82964819D01*
X153172857Y-82964819D02*
X153315714Y-83012438D01*
X153315714Y-83012438D02*
X153363333Y-83060057D01*
X153744286Y-83060057D02*
X153791905Y-83012438D01*
X153791905Y-83012438D02*
X153887143Y-82964819D01*
X153887143Y-82964819D02*
X154125238Y-82964819D01*
X154125238Y-82964819D02*
X154220476Y-83012438D01*
X154220476Y-83012438D02*
X154268095Y-83060057D01*
X154268095Y-83060057D02*
X154315714Y-83155295D01*
X154315714Y-83155295D02*
X154315714Y-83250533D01*
X154315714Y-83250533D02*
X154268095Y-83393390D01*
X154268095Y-83393390D02*
X153696667Y-83964819D01*
X153696667Y-83964819D02*
X154315714Y-83964819D01*
X110399580Y-57826666D02*
X110447200Y-57874285D01*
X110447200Y-57874285D02*
X110494819Y-58017142D01*
X110494819Y-58017142D02*
X110494819Y-58112380D01*
X110494819Y-58112380D02*
X110447200Y-58255237D01*
X110447200Y-58255237D02*
X110351961Y-58350475D01*
X110351961Y-58350475D02*
X110256723Y-58398094D01*
X110256723Y-58398094D02*
X110066247Y-58445713D01*
X110066247Y-58445713D02*
X109923390Y-58445713D01*
X109923390Y-58445713D02*
X109732914Y-58398094D01*
X109732914Y-58398094D02*
X109637676Y-58350475D01*
X109637676Y-58350475D02*
X109542438Y-58255237D01*
X109542438Y-58255237D02*
X109494819Y-58112380D01*
X109494819Y-58112380D02*
X109494819Y-58017142D01*
X109494819Y-58017142D02*
X109542438Y-57874285D01*
X109542438Y-57874285D02*
X109590057Y-57826666D01*
X109494819Y-56921904D02*
X109494819Y-57398094D01*
X109494819Y-57398094D02*
X109971009Y-57445713D01*
X109971009Y-57445713D02*
X109923390Y-57398094D01*
X109923390Y-57398094D02*
X109875771Y-57302856D01*
X109875771Y-57302856D02*
X109875771Y-57064761D01*
X109875771Y-57064761D02*
X109923390Y-56969523D01*
X109923390Y-56969523D02*
X109971009Y-56921904D01*
X109971009Y-56921904D02*
X110066247Y-56874285D01*
X110066247Y-56874285D02*
X110304342Y-56874285D01*
X110304342Y-56874285D02*
X110399580Y-56921904D01*
X110399580Y-56921904D02*
X110447200Y-56969523D01*
X110447200Y-56969523D02*
X110494819Y-57064761D01*
X110494819Y-57064761D02*
X110494819Y-57302856D01*
X110494819Y-57302856D02*
X110447200Y-57398094D01*
X110447200Y-57398094D02*
X110399580Y-57445713D01*
X203854285Y-62881009D02*
X203997142Y-62928628D01*
X203997142Y-62928628D02*
X204044761Y-62976247D01*
X204044761Y-62976247D02*
X204092380Y-63071485D01*
X204092380Y-63071485D02*
X204092380Y-63214342D01*
X204092380Y-63214342D02*
X204044761Y-63309580D01*
X204044761Y-63309580D02*
X203997142Y-63357200D01*
X203997142Y-63357200D02*
X203901904Y-63404819D01*
X203901904Y-63404819D02*
X203520952Y-63404819D01*
X203520952Y-63404819D02*
X203520952Y-62404819D01*
X203520952Y-62404819D02*
X203854285Y-62404819D01*
X203854285Y-62404819D02*
X203949523Y-62452438D01*
X203949523Y-62452438D02*
X203997142Y-62500057D01*
X203997142Y-62500057D02*
X204044761Y-62595295D01*
X204044761Y-62595295D02*
X204044761Y-62690533D01*
X204044761Y-62690533D02*
X203997142Y-62785771D01*
X203997142Y-62785771D02*
X203949523Y-62833390D01*
X203949523Y-62833390D02*
X203854285Y-62881009D01*
X203854285Y-62881009D02*
X203520952Y-62881009D01*
X204378095Y-62404819D02*
X204949523Y-62404819D01*
X204663809Y-63404819D02*
X204663809Y-62404819D01*
X205806666Y-63404819D02*
X205235238Y-63404819D01*
X205520952Y-63404819D02*
X205520952Y-62404819D01*
X205520952Y-62404819D02*
X205425714Y-62547676D01*
X205425714Y-62547676D02*
X205330476Y-62642914D01*
X205330476Y-62642914D02*
X205235238Y-62690533D01*
X203000000Y-61974819D02*
X203000000Y-62212914D01*
X202761905Y-62117676D02*
X203000000Y-62212914D01*
X203000000Y-62212914D02*
X203238095Y-62117676D01*
X202857143Y-62403390D02*
X203000000Y-62212914D01*
X203000000Y-62212914D02*
X203142857Y-62403390D01*
X206540000Y-61874819D02*
X206540000Y-62112914D01*
X206301905Y-62017676D02*
X206540000Y-62112914D01*
X206540000Y-62112914D02*
X206778095Y-62017676D01*
X206397143Y-62303390D02*
X206540000Y-62112914D01*
X206540000Y-62112914D02*
X206682857Y-62303390D01*
X201805833Y-100614819D02*
X201472500Y-100138628D01*
X201234405Y-100614819D02*
X201234405Y-99614819D01*
X201234405Y-99614819D02*
X201615357Y-99614819D01*
X201615357Y-99614819D02*
X201710595Y-99662438D01*
X201710595Y-99662438D02*
X201758214Y-99710057D01*
X201758214Y-99710057D02*
X201805833Y-99805295D01*
X201805833Y-99805295D02*
X201805833Y-99948152D01*
X201805833Y-99948152D02*
X201758214Y-100043390D01*
X201758214Y-100043390D02*
X201710595Y-100091009D01*
X201710595Y-100091009D02*
X201615357Y-100138628D01*
X201615357Y-100138628D02*
X201234405Y-100138628D01*
X202662976Y-99948152D02*
X202662976Y-100614819D01*
X202424881Y-99567200D02*
X202186786Y-100281485D01*
X202186786Y-100281485D02*
X202805833Y-100281485D01*
X147994819Y-92931904D02*
X148804342Y-92931904D01*
X148804342Y-92931904D02*
X148899580Y-92884285D01*
X148899580Y-92884285D02*
X148947200Y-92836666D01*
X148947200Y-92836666D02*
X148994819Y-92741428D01*
X148994819Y-92741428D02*
X148994819Y-92550952D01*
X148994819Y-92550952D02*
X148947200Y-92455714D01*
X148947200Y-92455714D02*
X148899580Y-92408095D01*
X148899580Y-92408095D02*
X148804342Y-92360476D01*
X148804342Y-92360476D02*
X147994819Y-92360476D01*
X148994819Y-91360476D02*
X148994819Y-91931904D01*
X148994819Y-91646190D02*
X147994819Y-91646190D01*
X147994819Y-91646190D02*
X148137676Y-91741428D01*
X148137676Y-91741428D02*
X148232914Y-91836666D01*
X148232914Y-91836666D02*
X148280533Y-91931904D01*
X133127142Y-93664819D02*
X132793809Y-93188628D01*
X132555714Y-93664819D02*
X132555714Y-92664819D01*
X132555714Y-92664819D02*
X132936666Y-92664819D01*
X132936666Y-92664819D02*
X133031904Y-92712438D01*
X133031904Y-92712438D02*
X133079523Y-92760057D01*
X133079523Y-92760057D02*
X133127142Y-92855295D01*
X133127142Y-92855295D02*
X133127142Y-92998152D01*
X133127142Y-92998152D02*
X133079523Y-93093390D01*
X133079523Y-93093390D02*
X133031904Y-93141009D01*
X133031904Y-93141009D02*
X132936666Y-93188628D01*
X132936666Y-93188628D02*
X132555714Y-93188628D01*
X134079523Y-93664819D02*
X133508095Y-93664819D01*
X133793809Y-93664819D02*
X133793809Y-92664819D01*
X133793809Y-92664819D02*
X133698571Y-92807676D01*
X133698571Y-92807676D02*
X133603333Y-92902914D01*
X133603333Y-92902914D02*
X133508095Y-92950533D01*
X134650952Y-93093390D02*
X134555714Y-93045771D01*
X134555714Y-93045771D02*
X134508095Y-92998152D01*
X134508095Y-92998152D02*
X134460476Y-92902914D01*
X134460476Y-92902914D02*
X134460476Y-92855295D01*
X134460476Y-92855295D02*
X134508095Y-92760057D01*
X134508095Y-92760057D02*
X134555714Y-92712438D01*
X134555714Y-92712438D02*
X134650952Y-92664819D01*
X134650952Y-92664819D02*
X134841428Y-92664819D01*
X134841428Y-92664819D02*
X134936666Y-92712438D01*
X134936666Y-92712438D02*
X134984285Y-92760057D01*
X134984285Y-92760057D02*
X135031904Y-92855295D01*
X135031904Y-92855295D02*
X135031904Y-92902914D01*
X135031904Y-92902914D02*
X134984285Y-92998152D01*
X134984285Y-92998152D02*
X134936666Y-93045771D01*
X134936666Y-93045771D02*
X134841428Y-93093390D01*
X134841428Y-93093390D02*
X134650952Y-93093390D01*
X134650952Y-93093390D02*
X134555714Y-93141009D01*
X134555714Y-93141009D02*
X134508095Y-93188628D01*
X134508095Y-93188628D02*
X134460476Y-93283866D01*
X134460476Y-93283866D02*
X134460476Y-93474342D01*
X134460476Y-93474342D02*
X134508095Y-93569580D01*
X134508095Y-93569580D02*
X134555714Y-93617200D01*
X134555714Y-93617200D02*
X134650952Y-93664819D01*
X134650952Y-93664819D02*
X134841428Y-93664819D01*
X134841428Y-93664819D02*
X134936666Y-93617200D01*
X134936666Y-93617200D02*
X134984285Y-93569580D01*
X134984285Y-93569580D02*
X135031904Y-93474342D01*
X135031904Y-93474342D02*
X135031904Y-93283866D01*
X135031904Y-93283866D02*
X134984285Y-93188628D01*
X134984285Y-93188628D02*
X134936666Y-93141009D01*
X134936666Y-93141009D02*
X134841428Y-93093390D01*
X145643091Y-90772857D02*
X145166900Y-91106190D01*
X145643091Y-91344285D02*
X144643091Y-91344285D01*
X144643091Y-91344285D02*
X144643091Y-90963333D01*
X144643091Y-90963333D02*
X144690710Y-90868095D01*
X144690710Y-90868095D02*
X144738329Y-90820476D01*
X144738329Y-90820476D02*
X144833567Y-90772857D01*
X144833567Y-90772857D02*
X144976424Y-90772857D01*
X144976424Y-90772857D02*
X145071662Y-90820476D01*
X145071662Y-90820476D02*
X145119281Y-90868095D01*
X145119281Y-90868095D02*
X145166900Y-90963333D01*
X145166900Y-90963333D02*
X145166900Y-91344285D01*
X145643091Y-89820476D02*
X145643091Y-90391904D01*
X145643091Y-90106190D02*
X144643091Y-90106190D01*
X144643091Y-90106190D02*
X144785948Y-90201428D01*
X144785948Y-90201428D02*
X144881186Y-90296666D01*
X144881186Y-90296666D02*
X144928805Y-90391904D01*
X144643091Y-88915714D02*
X144643091Y-89391904D01*
X144643091Y-89391904D02*
X145119281Y-89439523D01*
X145119281Y-89439523D02*
X145071662Y-89391904D01*
X145071662Y-89391904D02*
X145024043Y-89296666D01*
X145024043Y-89296666D02*
X145024043Y-89058571D01*
X145024043Y-89058571D02*
X145071662Y-88963333D01*
X145071662Y-88963333D02*
X145119281Y-88915714D01*
X145119281Y-88915714D02*
X145214519Y-88868095D01*
X145214519Y-88868095D02*
X145452614Y-88868095D01*
X145452614Y-88868095D02*
X145547852Y-88915714D01*
X145547852Y-88915714D02*
X145595472Y-88963333D01*
X145595472Y-88963333D02*
X145643091Y-89058571D01*
X145643091Y-89058571D02*
X145643091Y-89296666D01*
X145643091Y-89296666D02*
X145595472Y-89391904D01*
X145595472Y-89391904D02*
X145547852Y-89439523D01*
X157857142Y-95004819D02*
X157523809Y-94528628D01*
X157285714Y-95004819D02*
X157285714Y-94004819D01*
X157285714Y-94004819D02*
X157666666Y-94004819D01*
X157666666Y-94004819D02*
X157761904Y-94052438D01*
X157761904Y-94052438D02*
X157809523Y-94100057D01*
X157809523Y-94100057D02*
X157857142Y-94195295D01*
X157857142Y-94195295D02*
X157857142Y-94338152D01*
X157857142Y-94338152D02*
X157809523Y-94433390D01*
X157809523Y-94433390D02*
X157761904Y-94481009D01*
X157761904Y-94481009D02*
X157666666Y-94528628D01*
X157666666Y-94528628D02*
X157285714Y-94528628D01*
X158238095Y-94100057D02*
X158285714Y-94052438D01*
X158285714Y-94052438D02*
X158380952Y-94004819D01*
X158380952Y-94004819D02*
X158619047Y-94004819D01*
X158619047Y-94004819D02*
X158714285Y-94052438D01*
X158714285Y-94052438D02*
X158761904Y-94100057D01*
X158761904Y-94100057D02*
X158809523Y-94195295D01*
X158809523Y-94195295D02*
X158809523Y-94290533D01*
X158809523Y-94290533D02*
X158761904Y-94433390D01*
X158761904Y-94433390D02*
X158190476Y-95004819D01*
X158190476Y-95004819D02*
X158809523Y-95004819D01*
X159761904Y-95004819D02*
X159190476Y-95004819D01*
X159476190Y-95004819D02*
X159476190Y-94004819D01*
X159476190Y-94004819D02*
X159380952Y-94147676D01*
X159380952Y-94147676D02*
X159285714Y-94242914D01*
X159285714Y-94242914D02*
X159190476Y-94290533D01*
X69363333Y-64554819D02*
X69030000Y-64078628D01*
X68791905Y-64554819D02*
X68791905Y-63554819D01*
X68791905Y-63554819D02*
X69172857Y-63554819D01*
X69172857Y-63554819D02*
X69268095Y-63602438D01*
X69268095Y-63602438D02*
X69315714Y-63650057D01*
X69315714Y-63650057D02*
X69363333Y-63745295D01*
X69363333Y-63745295D02*
X69363333Y-63888152D01*
X69363333Y-63888152D02*
X69315714Y-63983390D01*
X69315714Y-63983390D02*
X69268095Y-64031009D01*
X69268095Y-64031009D02*
X69172857Y-64078628D01*
X69172857Y-64078628D02*
X68791905Y-64078628D01*
X70268095Y-63554819D02*
X69791905Y-63554819D01*
X69791905Y-63554819D02*
X69744286Y-64031009D01*
X69744286Y-64031009D02*
X69791905Y-63983390D01*
X69791905Y-63983390D02*
X69887143Y-63935771D01*
X69887143Y-63935771D02*
X70125238Y-63935771D01*
X70125238Y-63935771D02*
X70220476Y-63983390D01*
X70220476Y-63983390D02*
X70268095Y-64031009D01*
X70268095Y-64031009D02*
X70315714Y-64126247D01*
X70315714Y-64126247D02*
X70315714Y-64364342D01*
X70315714Y-64364342D02*
X70268095Y-64459580D01*
X70268095Y-64459580D02*
X70220476Y-64507200D01*
X70220476Y-64507200D02*
X70125238Y-64554819D01*
X70125238Y-64554819D02*
X69887143Y-64554819D01*
X69887143Y-64554819D02*
X69791905Y-64507200D01*
X69791905Y-64507200D02*
X69744286Y-64459580D01*
X114974819Y-72326666D02*
X114498628Y-72659999D01*
X114974819Y-72898094D02*
X113974819Y-72898094D01*
X113974819Y-72898094D02*
X113974819Y-72517142D01*
X113974819Y-72517142D02*
X114022438Y-72421904D01*
X114022438Y-72421904D02*
X114070057Y-72374285D01*
X114070057Y-72374285D02*
X114165295Y-72326666D01*
X114165295Y-72326666D02*
X114308152Y-72326666D01*
X114308152Y-72326666D02*
X114403390Y-72374285D01*
X114403390Y-72374285D02*
X114451009Y-72421904D01*
X114451009Y-72421904D02*
X114498628Y-72517142D01*
X114498628Y-72517142D02*
X114498628Y-72898094D01*
X113974819Y-71993332D02*
X113974819Y-71326666D01*
X113974819Y-71326666D02*
X114974819Y-71755237D01*
X111954819Y-73456666D02*
X111478628Y-73789999D01*
X111954819Y-74028094D02*
X110954819Y-74028094D01*
X110954819Y-74028094D02*
X110954819Y-73647142D01*
X110954819Y-73647142D02*
X111002438Y-73551904D01*
X111002438Y-73551904D02*
X111050057Y-73504285D01*
X111050057Y-73504285D02*
X111145295Y-73456666D01*
X111145295Y-73456666D02*
X111288152Y-73456666D01*
X111288152Y-73456666D02*
X111383390Y-73504285D01*
X111383390Y-73504285D02*
X111431009Y-73551904D01*
X111431009Y-73551904D02*
X111478628Y-73647142D01*
X111478628Y-73647142D02*
X111478628Y-74028094D01*
X111954819Y-72980475D02*
X111954819Y-72789999D01*
X111954819Y-72789999D02*
X111907200Y-72694761D01*
X111907200Y-72694761D02*
X111859580Y-72647142D01*
X111859580Y-72647142D02*
X111716723Y-72551904D01*
X111716723Y-72551904D02*
X111526247Y-72504285D01*
X111526247Y-72504285D02*
X111145295Y-72504285D01*
X111145295Y-72504285D02*
X111050057Y-72551904D01*
X111050057Y-72551904D02*
X111002438Y-72599523D01*
X111002438Y-72599523D02*
X110954819Y-72694761D01*
X110954819Y-72694761D02*
X110954819Y-72885237D01*
X110954819Y-72885237D02*
X111002438Y-72980475D01*
X111002438Y-72980475D02*
X111050057Y-73028094D01*
X111050057Y-73028094D02*
X111145295Y-73075713D01*
X111145295Y-73075713D02*
X111383390Y-73075713D01*
X111383390Y-73075713D02*
X111478628Y-73028094D01*
X111478628Y-73028094D02*
X111526247Y-72980475D01*
X111526247Y-72980475D02*
X111573866Y-72885237D01*
X111573866Y-72885237D02*
X111573866Y-72694761D01*
X111573866Y-72694761D02*
X111526247Y-72599523D01*
X111526247Y-72599523D02*
X111478628Y-72551904D01*
X111478628Y-72551904D02*
X111383390Y-72504285D01*
X136447142Y-93664819D02*
X136113809Y-93188628D01*
X135875714Y-93664819D02*
X135875714Y-92664819D01*
X135875714Y-92664819D02*
X136256666Y-92664819D01*
X136256666Y-92664819D02*
X136351904Y-92712438D01*
X136351904Y-92712438D02*
X136399523Y-92760057D01*
X136399523Y-92760057D02*
X136447142Y-92855295D01*
X136447142Y-92855295D02*
X136447142Y-92998152D01*
X136447142Y-92998152D02*
X136399523Y-93093390D01*
X136399523Y-93093390D02*
X136351904Y-93141009D01*
X136351904Y-93141009D02*
X136256666Y-93188628D01*
X136256666Y-93188628D02*
X135875714Y-93188628D01*
X137399523Y-93664819D02*
X136828095Y-93664819D01*
X137113809Y-93664819D02*
X137113809Y-92664819D01*
X137113809Y-92664819D02*
X137018571Y-92807676D01*
X137018571Y-92807676D02*
X136923333Y-92902914D01*
X136923333Y-92902914D02*
X136828095Y-92950533D01*
X137732857Y-92664819D02*
X138399523Y-92664819D01*
X138399523Y-92664819D02*
X137970952Y-93664819D01*
X118494819Y-71456666D02*
X118018628Y-71789999D01*
X118494819Y-72028094D02*
X117494819Y-72028094D01*
X117494819Y-72028094D02*
X117494819Y-71647142D01*
X117494819Y-71647142D02*
X117542438Y-71551904D01*
X117542438Y-71551904D02*
X117590057Y-71504285D01*
X117590057Y-71504285D02*
X117685295Y-71456666D01*
X117685295Y-71456666D02*
X117828152Y-71456666D01*
X117828152Y-71456666D02*
X117923390Y-71504285D01*
X117923390Y-71504285D02*
X117971009Y-71551904D01*
X117971009Y-71551904D02*
X118018628Y-71647142D01*
X118018628Y-71647142D02*
X118018628Y-72028094D01*
X117494819Y-70599523D02*
X117494819Y-70789999D01*
X117494819Y-70789999D02*
X117542438Y-70885237D01*
X117542438Y-70885237D02*
X117590057Y-70932856D01*
X117590057Y-70932856D02*
X117732914Y-71028094D01*
X117732914Y-71028094D02*
X117923390Y-71075713D01*
X117923390Y-71075713D02*
X118304342Y-71075713D01*
X118304342Y-71075713D02*
X118399580Y-71028094D01*
X118399580Y-71028094D02*
X118447200Y-70980475D01*
X118447200Y-70980475D02*
X118494819Y-70885237D01*
X118494819Y-70885237D02*
X118494819Y-70694761D01*
X118494819Y-70694761D02*
X118447200Y-70599523D01*
X118447200Y-70599523D02*
X118399580Y-70551904D01*
X118399580Y-70551904D02*
X118304342Y-70504285D01*
X118304342Y-70504285D02*
X118066247Y-70504285D01*
X118066247Y-70504285D02*
X117971009Y-70551904D01*
X117971009Y-70551904D02*
X117923390Y-70599523D01*
X117923390Y-70599523D02*
X117875771Y-70694761D01*
X117875771Y-70694761D02*
X117875771Y-70885237D01*
X117875771Y-70885237D02*
X117923390Y-70980475D01*
X117923390Y-70980475D02*
X117971009Y-71028094D01*
X117971009Y-71028094D02*
X118066247Y-71075713D01*
X208004761Y-100820057D02*
X207909523Y-100772438D01*
X207909523Y-100772438D02*
X207814285Y-100677200D01*
X207814285Y-100677200D02*
X207671428Y-100534342D01*
X207671428Y-100534342D02*
X207576190Y-100486723D01*
X207576190Y-100486723D02*
X207480952Y-100486723D01*
X207528571Y-100724819D02*
X207433333Y-100677200D01*
X207433333Y-100677200D02*
X207338095Y-100581961D01*
X207338095Y-100581961D02*
X207290476Y-100391485D01*
X207290476Y-100391485D02*
X207290476Y-100058152D01*
X207290476Y-100058152D02*
X207338095Y-99867676D01*
X207338095Y-99867676D02*
X207433333Y-99772438D01*
X207433333Y-99772438D02*
X207528571Y-99724819D01*
X207528571Y-99724819D02*
X207719047Y-99724819D01*
X207719047Y-99724819D02*
X207814285Y-99772438D01*
X207814285Y-99772438D02*
X207909523Y-99867676D01*
X207909523Y-99867676D02*
X207957142Y-100058152D01*
X207957142Y-100058152D02*
X207957142Y-100391485D01*
X207957142Y-100391485D02*
X207909523Y-100581961D01*
X207909523Y-100581961D02*
X207814285Y-100677200D01*
X207814285Y-100677200D02*
X207719047Y-100724819D01*
X207719047Y-100724819D02*
X207528571Y-100724819D01*
X208338095Y-99820057D02*
X208385714Y-99772438D01*
X208385714Y-99772438D02*
X208480952Y-99724819D01*
X208480952Y-99724819D02*
X208719047Y-99724819D01*
X208719047Y-99724819D02*
X208814285Y-99772438D01*
X208814285Y-99772438D02*
X208861904Y-99820057D01*
X208861904Y-99820057D02*
X208909523Y-99915295D01*
X208909523Y-99915295D02*
X208909523Y-100010533D01*
X208909523Y-100010533D02*
X208861904Y-100153390D01*
X208861904Y-100153390D02*
X208290476Y-100724819D01*
X208290476Y-100724819D02*
X208909523Y-100724819D01*
X173359580Y-102526666D02*
X173407200Y-102574285D01*
X173407200Y-102574285D02*
X173454819Y-102717142D01*
X173454819Y-102717142D02*
X173454819Y-102812380D01*
X173454819Y-102812380D02*
X173407200Y-102955237D01*
X173407200Y-102955237D02*
X173311961Y-103050475D01*
X173311961Y-103050475D02*
X173216723Y-103098094D01*
X173216723Y-103098094D02*
X173026247Y-103145713D01*
X173026247Y-103145713D02*
X172883390Y-103145713D01*
X172883390Y-103145713D02*
X172692914Y-103098094D01*
X172692914Y-103098094D02*
X172597676Y-103050475D01*
X172597676Y-103050475D02*
X172502438Y-102955237D01*
X172502438Y-102955237D02*
X172454819Y-102812380D01*
X172454819Y-102812380D02*
X172454819Y-102717142D01*
X172454819Y-102717142D02*
X172502438Y-102574285D01*
X172502438Y-102574285D02*
X172550057Y-102526666D01*
X172788152Y-101669523D02*
X173454819Y-101669523D01*
X172407200Y-101907618D02*
X173121485Y-102145713D01*
X173121485Y-102145713D02*
X173121485Y-101526666D01*
D13*
%TO.C,TP16*%
X139450000Y-75012500D02*
G75*
G02*
X138550000Y-75012500I-450000J0D01*
G01*
X138550000Y-75012500D02*
G75*
G02*
X139450000Y-75012500I450000J0D01*
G01*
D12*
%TO.C,D80*%
X158100000Y-97700000D02*
X158100000Y-97500000D01*
D14*
X158460000Y-97490000D02*
X158750000Y-97490000D01*
X158600000Y-97730000D02*
X158460000Y-97490000D01*
X158750000Y-97490000D02*
X158600000Y-97730000D01*
D12*
X159100000Y-97500000D02*
X159100000Y-97700000D01*
D15*
%TO.C,Q1*%
X141372800Y-103036200D02*
X141372800Y-103925200D01*
X141372800Y-105144400D02*
X141372800Y-106033400D01*
X141372800Y-106033400D02*
X141779200Y-106033400D01*
X141779200Y-106033400D02*
X142236400Y-106033400D01*
X142236400Y-103036200D02*
X141372800Y-103036200D01*
X141779200Y-106033400D02*
G75*
G02*
X142109400Y-105728600I304748J1115D01*
G01*
D16*
%TO.C,C6*%
X114360000Y-57559420D02*
X114360000Y-57840580D01*
X115380000Y-57559420D02*
X115380000Y-57840580D01*
%TO.C,R3*%
X120952936Y-61180000D02*
X122407064Y-61180000D01*
X120952936Y-63000000D02*
X122407064Y-63000000D01*
D13*
%TO.C,TP4*%
X137150000Y-86800000D02*
G75*
G02*
X136250000Y-86800000I-450000J0D01*
G01*
X136250000Y-86800000D02*
G75*
G02*
X137150000Y-86800000I450000J0D01*
G01*
%TO.C,TP10*%
X59980000Y-69570000D02*
G75*
G02*
X59080000Y-69570000I-450000J0D01*
G01*
X59080000Y-69570000D02*
G75*
G02*
X59980000Y-69570000I450000J0D01*
G01*
D16*
%TO.C,C14*%
X140249420Y-80470000D02*
X140530580Y-80470000D01*
X140249420Y-81490000D02*
X140530580Y-81490000D01*
%TO.C,R1*%
X142752936Y-98380000D02*
X144207064Y-98380000D01*
X142752936Y-100200000D02*
X144207064Y-100200000D01*
D14*
%TO.C,D79*%
X176590000Y-95450000D02*
X176830000Y-95600000D01*
X176590000Y-95740000D02*
X176590000Y-95450000D01*
D12*
X176600000Y-95100000D02*
X176800000Y-95100000D01*
X176800000Y-96100000D02*
X176600000Y-96100000D01*
D14*
X176830000Y-95600000D02*
X176590000Y-95740000D01*
D16*
%TO.C,R10*%
X107490000Y-72009564D02*
X107490000Y-70555436D01*
X109310000Y-72009564D02*
X109310000Y-70555436D01*
%TO.C,R11*%
X153405000Y-73587064D02*
X153405000Y-73132936D01*
X154875000Y-73587064D02*
X154875000Y-73132936D01*
%TO.C,R19*%
X129568272Y-89377936D02*
X129568272Y-90832064D01*
X131388272Y-89377936D02*
X131388272Y-90832064D01*
D13*
%TO.C,TP13*%
X148110000Y-70500000D02*
G75*
G02*
X147210000Y-70500000I-450000J0D01*
G01*
X147210000Y-70500000D02*
G75*
G02*
X148110000Y-70500000I450000J0D01*
G01*
%TO.C,TP22*%
X164840000Y-73140000D02*
G75*
G02*
X163940000Y-73140000I-450000J0D01*
G01*
X163940000Y-73140000D02*
G75*
G02*
X164840000Y-73140000I450000J0D01*
G01*
D16*
%TO.C,C11*%
X158110000Y-87729420D02*
X158110000Y-88010580D01*
X159130000Y-87729420D02*
X159130000Y-88010580D01*
%TO.C,SW2*%
X164825000Y-86980000D02*
X164825000Y-88180000D01*
X164825000Y-89780000D02*
X164825000Y-90980000D01*
X164825000Y-90980000D02*
X171225000Y-90980000D01*
X171225000Y-86980000D02*
X164825000Y-86980000D01*
X171225000Y-88180000D02*
X171225000Y-86980000D01*
X171225000Y-90980000D02*
X171225000Y-89780000D01*
D13*
%TO.C,TP5*%
X138100000Y-84650000D02*
G75*
G02*
X137200000Y-84650000I-450000J0D01*
G01*
X137200000Y-84650000D02*
G75*
G02*
X138100000Y-84650000I450000J0D01*
G01*
D15*
%TO.C,J5*%
X123843001Y-99153000D02*
X123843001Y-108556999D01*
X123843001Y-108556999D02*
X134597000Y-108556999D01*
X134597000Y-99153000D02*
X123843001Y-99153000D01*
X134597000Y-108556999D02*
X134597000Y-99153000D01*
D17*
X135613000Y-104280000D02*
G75*
G02*
X134851000Y-104280000I-381000J0D01*
G01*
X134851000Y-104280000D02*
G75*
G02*
X135613000Y-104280000I381000J0D01*
G01*
D16*
%TO.C,C9*%
X68569420Y-61420000D02*
X68850580Y-61420000D01*
X68569420Y-62440000D02*
X68850580Y-62440000D01*
D13*
%TO.C,TP20*%
X133550000Y-74600000D02*
G75*
G02*
X132650000Y-74600000I-450000J0D01*
G01*
X132650000Y-74600000D02*
G75*
G02*
X133550000Y-74600000I450000J0D01*
G01*
%TO.C,TP8*%
X157370000Y-86050000D02*
G75*
G02*
X156470000Y-86050000I-450000J0D01*
G01*
X156470000Y-86050000D02*
G75*
G02*
X157370000Y-86050000I450000J0D01*
G01*
D16*
%TO.C,C8*%
X114069420Y-64880000D02*
X114350580Y-64880000D01*
X114069420Y-65900000D02*
X114350580Y-65900000D01*
%TO.C,C12*%
X175980000Y-73774420D02*
X175980000Y-74055580D01*
X177000000Y-73774420D02*
X177000000Y-74055580D01*
%TO.C,JP1*%
X147220000Y-56510000D02*
X147270000Y-56510000D01*
X147220000Y-58930000D02*
X147220000Y-56510000D01*
X147220000Y-58930000D02*
X147270000Y-58930000D01*
X147270000Y-60310000D02*
X147270000Y-58930000D01*
X149290000Y-56510000D02*
X149340000Y-56510000D01*
X149290000Y-58930000D02*
X149340000Y-58930000D01*
X149340000Y-58930000D02*
X149340000Y-56510000D01*
%TO.C,SW1*%
X110850000Y-60110000D02*
X110850000Y-61310000D01*
X110850000Y-62910000D02*
X110850000Y-64110000D01*
X110850000Y-64110000D02*
X117250000Y-64110000D01*
X117250000Y-60110000D02*
X110850000Y-60110000D01*
X117250000Y-61310000D02*
X117250000Y-60110000D01*
X117250000Y-64110000D02*
X117250000Y-62910000D01*
%TO.C,U3*%
X127080000Y-47630000D02*
X127080000Y-53830000D01*
X127080000Y-47630000D02*
X145480000Y-47630000D01*
X127080000Y-72480000D02*
X127080000Y-73480000D01*
X127080000Y-73480000D02*
X128580000Y-73480000D01*
X145480000Y-47630000D02*
X145480000Y-53830000D01*
X145480000Y-73480000D02*
X143980000Y-73480000D01*
X145480000Y-73480000D02*
X145480000Y-72480000D01*
X127080000Y-54505000D02*
X126580000Y-54505000D01*
X127080000Y-54005000D01*
X127080000Y-54505000D01*
G36*
X127080000Y-54505000D02*
G01*
X126580000Y-54505000D01*
X127080000Y-54005000D01*
X127080000Y-54505000D01*
G37*
D15*
%TO.C,J6*%
X211868001Y-99869600D02*
X211868001Y-107123601D01*
X211868001Y-107123601D02*
X221272000Y-107123601D01*
X221272000Y-99869600D02*
X211868001Y-99869600D01*
X221272000Y-107123601D02*
X221272000Y-99869600D01*
D17*
X216526000Y-107758600D02*
G75*
G02*
X215764000Y-107758600I-381000J0D01*
G01*
X215764000Y-107758600D02*
G75*
G02*
X216526000Y-107758600I381000J0D01*
G01*
D15*
%TO.C,CR1*%
X143985200Y-96068700D02*
X147134800Y-96068700D01*
X147134800Y-94011300D02*
X143985200Y-94011300D01*
D16*
%TO.C,C7*%
X120559420Y-59090000D02*
X120840580Y-59090000D01*
X120559420Y-60110000D02*
X120840580Y-60110000D01*
%TO.C,R2*%
X119192936Y-56600000D02*
X120647064Y-56600000D01*
X119192936Y-58420000D02*
X120647064Y-58420000D01*
%TO.C,C3*%
X167428748Y-104995000D02*
X167951252Y-104995000D01*
X167428748Y-106465000D02*
X167951252Y-106465000D01*
%TO.C,R8*%
X63512936Y-63190000D02*
X64967064Y-63190000D01*
X63512936Y-65010000D02*
X64967064Y-65010000D01*
D15*
%TO.C,J4*%
X93253000Y-99303001D02*
X93253000Y-108707000D01*
X93253000Y-108707000D02*
X104006999Y-108707000D01*
X104006999Y-99303001D02*
X93253000Y-99303001D01*
X104006999Y-108707000D02*
X104006999Y-99303001D01*
D17*
X92999000Y-103580000D02*
G75*
G02*
X92237000Y-103580000I-381000J0D01*
G01*
X92237000Y-103580000D02*
G75*
G02*
X92999000Y-103580000I381000J0D01*
G01*
D13*
%TO.C,TP18*%
X136650000Y-74600000D02*
G75*
G02*
X135750000Y-74600000I-450000J0D01*
G01*
X135750000Y-74600000D02*
G75*
G02*
X136650000Y-74600000I450000J0D01*
G01*
D16*
%TO.C,U5*%
X131758272Y-79742500D02*
X131758272Y-77542500D01*
X131758272Y-79742500D02*
X131758272Y-81942500D01*
X138528272Y-79742500D02*
X138528272Y-77542500D01*
X138528272Y-79742500D02*
X138528272Y-81942500D01*
X138068272Y-75882500D02*
X137828272Y-75552500D01*
X138308272Y-75552500D01*
X138068272Y-75882500D01*
G36*
X138068272Y-75882500D02*
G01*
X137828272Y-75552500D01*
X138308272Y-75552500D01*
X138068272Y-75882500D01*
G37*
%TO.C,C13*%
X140319420Y-77350000D02*
X140600580Y-77350000D01*
X140319420Y-78370000D02*
X140600580Y-78370000D01*
%TO.C,R12*%
X156095000Y-73587064D02*
X156095000Y-73132936D01*
X157565000Y-73587064D02*
X157565000Y-73132936D01*
%TO.C,R14*%
X128977064Y-76090000D02*
X127522936Y-76090000D01*
X128977064Y-77910000D02*
X127522936Y-77910000D01*
%TO.C,SW7*%
X147020000Y-74225000D02*
X147020000Y-80625000D01*
X147020000Y-80625000D02*
X148220000Y-80625000D01*
X148220000Y-74225000D02*
X147020000Y-74225000D01*
X149820000Y-80625000D02*
X151020000Y-80625000D01*
X151020000Y-74225000D02*
X149820000Y-74225000D01*
X151020000Y-80625000D02*
X151020000Y-74225000D01*
%TO.C,R20*%
X126278272Y-89377936D02*
X126278272Y-90832064D01*
X128098272Y-89377936D02*
X128098272Y-90832064D01*
D13*
%TO.C,TP19*%
X135350000Y-74600000D02*
G75*
G02*
X134450000Y-74600000I-450000J0D01*
G01*
X134450000Y-74600000D02*
G75*
G02*
X135350000Y-74600000I450000J0D01*
G01*
D15*
%TO.C,J1*%
X150192998Y-99263001D02*
X150192998Y-108667000D01*
X150192998Y-108667000D02*
X157446999Y-108667000D01*
X157446999Y-99263001D02*
X150192998Y-99263001D01*
X157446999Y-108667000D02*
X157446999Y-99263001D01*
D17*
X149938999Y-103540000D02*
G75*
G02*
X149176999Y-103540000I-381000J0D01*
G01*
X149176999Y-103540000D02*
G75*
G02*
X149938999Y-103540000I381000J0D01*
G01*
D13*
%TO.C,TP2*%
X132920000Y-86600000D02*
G75*
G02*
X132020000Y-86600000I-450000J0D01*
G01*
X132020000Y-86600000D02*
G75*
G02*
X132920000Y-86600000I450000J0D01*
G01*
D16*
%TO.C,J2*%
X62690000Y-55212500D02*
X62690000Y-55462500D01*
X62690000Y-57762500D02*
X62690000Y-59612500D01*
X62690000Y-59612500D02*
X63140000Y-59612500D01*
X68290000Y-60162500D02*
X67840000Y-60162500D01*
X68290000Y-60162500D02*
X68290000Y-59712500D01*
X70490000Y-55212500D02*
X70490000Y-55462500D01*
X70490000Y-57762500D02*
X70490000Y-59612500D01*
X70490000Y-59612500D02*
X70040000Y-59612500D01*
D13*
%TO.C,TP12*%
X205380000Y-101980000D02*
G75*
G02*
X204480000Y-101980000I-450000J0D01*
G01*
X204480000Y-101980000D02*
G75*
G02*
X205380000Y-101980000I450000J0D01*
G01*
D16*
%TO.C,JP3*%
X147570000Y-62390000D02*
X148950000Y-62390000D01*
X148950000Y-62340000D02*
X148950000Y-62390000D01*
X148950000Y-62340000D02*
X151370000Y-62340000D01*
X148950000Y-64410000D02*
X148950000Y-64460000D01*
X148950000Y-64460000D02*
X151370000Y-64460000D01*
X151370000Y-62340000D02*
X151370000Y-62390000D01*
X151370000Y-64410000D02*
X151370000Y-64460000D01*
%TO.C,C10*%
X65135580Y-61420000D02*
X64854420Y-61420000D01*
X65135580Y-62440000D02*
X64854420Y-62440000D01*
%TO.C,R13*%
X161147742Y-86417500D02*
X161622258Y-86417500D01*
X161147742Y-87462500D02*
X161622258Y-87462500D01*
%TO.C,R16*%
X139438272Y-89377936D02*
X139438272Y-90832064D01*
X141258272Y-89377936D02*
X141258272Y-90832064D01*
%TO.C,R22*%
X173265000Y-97972936D02*
X173265000Y-98427064D01*
X174735000Y-97972936D02*
X174735000Y-98427064D01*
%TO.C,C1*%
X147125000Y-98028748D02*
X147125000Y-98551252D01*
X148595000Y-98028748D02*
X148595000Y-98551252D01*
D15*
%TO.C,J3*%
X88863001Y-54243001D02*
X88863001Y-63647000D01*
X88863001Y-63647000D02*
X106617001Y-63647000D01*
X106617001Y-54243001D02*
X88863001Y-54243001D01*
X106617001Y-63647000D02*
X106617001Y-54243001D01*
D17*
X88609001Y-58520000D02*
G75*
G02*
X87847001Y-58520000I-381000J0D01*
G01*
X87847001Y-58520000D02*
G75*
G02*
X88609001Y-58520000I381000J0D01*
G01*
D13*
%TO.C,TP6*%
X149860000Y-105190000D02*
G75*
G02*
X148960000Y-105190000I-450000J0D01*
G01*
X148960000Y-105190000D02*
G75*
G02*
X149860000Y-105190000I450000J0D01*
G01*
D18*
%TO.C,U4*%
X158150000Y-83975000D02*
X158150000Y-76475000D01*
X169700000Y-83975000D02*
X169700000Y-76475000D01*
D12*
X158725000Y-84922000D02*
G75*
G02*
X158525000Y-84922000I-100000J0D01*
G01*
X158525000Y-84922000D02*
G75*
G02*
X158725000Y-84922000I100000J0D01*
G01*
D19*
X159325000Y-83022000D02*
G75*
G02*
X158925000Y-83022000I-200000J0D01*
G01*
X158925000Y-83022000D02*
G75*
G02*
X159325000Y-83022000I200000J0D01*
G01*
D13*
%TO.C,TP15*%
X147800000Y-67970000D02*
G75*
G02*
X146900000Y-67970000I-450000J0D01*
G01*
X146900000Y-67970000D02*
G75*
G02*
X147800000Y-67970000I450000J0D01*
G01*
D16*
%TO.C,C2*%
X154228748Y-84545000D02*
X154751252Y-84545000D01*
X154228748Y-86015000D02*
X154751252Y-86015000D01*
D13*
%TO.C,TP9*%
X150430000Y-97340000D02*
G75*
G02*
X149530000Y-97340000I-450000J0D01*
G01*
X149530000Y-97340000D02*
G75*
G02*
X150430000Y-97340000I450000J0D01*
G01*
%TO.C,TP11*%
X99080000Y-96210000D02*
G75*
G02*
X98180000Y-96210000I-450000J0D01*
G01*
X98180000Y-96210000D02*
G75*
G02*
X99080000Y-96210000I450000J0D01*
G01*
D16*
%TO.C,C5*%
X110915000Y-57448748D02*
X110915000Y-57971252D01*
X112385000Y-57448748D02*
X112385000Y-57971252D01*
D13*
%TO.C,TP7*%
X176660000Y-102190000D02*
G75*
G02*
X175760000Y-102190000I-450000J0D01*
G01*
X175760000Y-102190000D02*
G75*
G02*
X176660000Y-102190000I450000J0D01*
G01*
D15*
%TO.C,BT1*%
X190043600Y-56552000D02*
X190043600Y-62099360D01*
X190043600Y-67260640D02*
X190043600Y-72808000D01*
X190043600Y-72808000D02*
X218796400Y-72808000D01*
X218796400Y-56552000D02*
X190043600Y-56552000D01*
X218796400Y-62099360D02*
X218796400Y-56552000D01*
X218796400Y-72808000D02*
X218796400Y-67260640D01*
D13*
%TO.C,TP3*%
X135250000Y-86100000D02*
G75*
G02*
X134350000Y-86100000I-450000J0D01*
G01*
X134350000Y-86100000D02*
G75*
G02*
X135250000Y-86100000I450000J0D01*
G01*
%TO.C,TP14*%
X151600000Y-69240000D02*
G75*
G02*
X150700000Y-69240000I-450000J0D01*
G01*
X150700000Y-69240000D02*
G75*
G02*
X151600000Y-69240000I450000J0D01*
G01*
D16*
%TO.C,R4*%
X201245436Y-101070000D02*
X202699564Y-101070000D01*
X201245436Y-102890000D02*
X202699564Y-102890000D01*
%TO.C,U1*%
X149630000Y-90260000D02*
X150890000Y-90260000D01*
X149630000Y-94020000D02*
X149630000Y-90260000D01*
X156450000Y-90260000D02*
X155190000Y-90260000D01*
X156450000Y-94020000D02*
X156450000Y-90260000D01*
X149730000Y-95300000D02*
X149400000Y-95540000D01*
X149400000Y-95060000D01*
X149730000Y-95300000D01*
G36*
X149730000Y-95300000D02*
G01*
X149400000Y-95540000D01*
X149400000Y-95060000D01*
X149730000Y-95300000D01*
G37*
%TO.C,R18*%
X132858272Y-89377936D02*
X132858272Y-90832064D01*
X134678272Y-89377936D02*
X134678272Y-90832064D01*
%TO.C,R15*%
X142458272Y-89402936D02*
X142458272Y-90857064D01*
X144278272Y-89402936D02*
X144278272Y-90857064D01*
%TO.C,R21*%
X158727064Y-92165000D02*
X158272936Y-92165000D01*
X158727064Y-93635000D02*
X158272936Y-93635000D01*
D13*
%TO.C,TP21*%
X131950000Y-75300000D02*
G75*
G02*
X131050000Y-75300000I-450000J0D01*
G01*
X131050000Y-75300000D02*
G75*
G02*
X131950000Y-75300000I450000J0D01*
G01*
%TO.C,TP1*%
X132940000Y-84930000D02*
G75*
G02*
X132040000Y-84930000I-450000J0D01*
G01*
X132040000Y-84930000D02*
G75*
G02*
X132940000Y-84930000I450000J0D01*
G01*
D16*
%TO.C,R5*%
X70267064Y-63140000D02*
X68812936Y-63140000D01*
X70267064Y-64960000D02*
X68812936Y-64960000D01*
%TO.C,R7*%
X113230000Y-69497064D02*
X113230000Y-68042936D01*
X115050000Y-69497064D02*
X115050000Y-68042936D01*
D13*
%TO.C,TP17*%
X137850000Y-74900000D02*
G75*
G02*
X136950000Y-74900000I-450000J0D01*
G01*
X136950000Y-74900000D02*
G75*
G02*
X137850000Y-74900000I450000J0D01*
G01*
D16*
%TO.C,R9*%
X110400000Y-70687064D02*
X110400000Y-69232936D01*
X112220000Y-70687064D02*
X112220000Y-69232936D01*
%TO.C,R17*%
X136148272Y-89377936D02*
X136148272Y-90832064D01*
X137968272Y-89377936D02*
X137968272Y-90832064D01*
%TO.C,R6*%
X117000000Y-68527064D02*
X117000000Y-67072936D01*
X118820000Y-68527064D02*
X118820000Y-67072936D01*
%TO.C,Q2*%
X207757500Y-101240000D02*
X207107500Y-101240000D01*
X207757500Y-101240000D02*
X208407500Y-101240000D01*
X207757500Y-104360000D02*
X207107500Y-104360000D01*
X207757500Y-104360000D02*
X208407500Y-104360000D01*
X206595000Y-101290000D02*
X206355000Y-100960000D01*
X206835000Y-100960000D01*
X206595000Y-101290000D01*
G36*
X206595000Y-101290000D02*
G01*
X206355000Y-100960000D01*
X206835000Y-100960000D01*
X206595000Y-101290000D01*
G37*
%TO.C,C4*%
X170585000Y-101828748D02*
X170585000Y-102351252D01*
X172055000Y-101828748D02*
X172055000Y-102351252D01*
%TD*%
%LPC*%
D20*
%TO.C,TP16*%
X139000000Y-75012500D03*
%TD*%
D21*
%TO.C,D80*%
X158600000Y-98400000D03*
X158600000Y-96800000D03*
%TD*%
D22*
%TO.C,U2*%
X162190000Y-102880000D03*
D23*
X164490000Y-96030000D03*
D22*
X166790000Y-102880000D03*
%TD*%
D24*
%TO.C,Q1*%
X143100000Y-105500000D03*
X143100000Y-103569600D03*
X141068000Y-104534800D03*
%TD*%
D25*
%TO.C,C6*%
X114870000Y-56925000D03*
X114870000Y-58475000D03*
%TD*%
D26*
%TO.C,R3*%
X120217500Y-62090000D03*
X123142500Y-62090000D03*
%TD*%
D20*
%TO.C,TP4*%
X136700000Y-86800000D03*
%TD*%
%TO.C,TP10*%
X59530000Y-69570000D03*
%TD*%
D27*
%TO.C,C14*%
X139615000Y-80980000D03*
X141165000Y-80980000D03*
%TD*%
D26*
%TO.C,R1*%
X142017500Y-99290000D03*
X144942500Y-99290000D03*
%TD*%
D28*
%TO.C,D79*%
X177500000Y-95600000D03*
X175900000Y-95600000D03*
%TD*%
D29*
%TO.C,R10*%
X108400000Y-72745000D03*
X108400000Y-69820000D03*
%TD*%
D30*
%TO.C,R11*%
X154140000Y-74272500D03*
X154140000Y-72447500D03*
%TD*%
D31*
%TO.C,R19*%
X130478272Y-88642500D03*
X130478272Y-91567500D03*
%TD*%
D20*
%TO.C,TP13*%
X147660000Y-70500000D03*
%TD*%
%TO.C,TP22*%
X164390000Y-73140000D03*
%TD*%
D25*
%TO.C,C11*%
X158620000Y-87095000D03*
X158620000Y-88645000D03*
%TD*%
D32*
%TO.C,SW2*%
X171900000Y-88980000D03*
X164150000Y-88980000D03*
%TD*%
D20*
%TO.C,TP5*%
X137650000Y-84650000D03*
%TD*%
D33*
%TO.C,J5*%
X132720001Y-104280000D03*
X129220000Y-104280000D03*
X125720000Y-104280000D03*
%TD*%
D27*
%TO.C,C9*%
X67935000Y-61930000D03*
X69485000Y-61930000D03*
%TD*%
D20*
%TO.C,TP20*%
X133100000Y-74600000D03*
%TD*%
%TO.C,TP8*%
X156920000Y-86050000D03*
%TD*%
D27*
%TO.C,C8*%
X113435000Y-65390000D03*
X114985000Y-65390000D03*
%TD*%
D25*
%TO.C,C12*%
X176490000Y-73140000D03*
X176490000Y-74690000D03*
%TD*%
D34*
%TO.C,JP1*%
X147780000Y-59370000D03*
X147780000Y-56070000D03*
X148780000Y-59370000D03*
X148780000Y-56070000D03*
%TD*%
D32*
%TO.C,SW1*%
X110175000Y-62110000D03*
X117925000Y-62110000D03*
%TD*%
D35*
%TO.C,U3*%
X127530000Y-55270000D03*
X127530000Y-56540000D03*
X127530000Y-57810000D03*
X127530000Y-59080000D03*
X127530000Y-60350000D03*
X127530000Y-61620000D03*
X127530000Y-62890000D03*
X127530000Y-64160000D03*
X127530000Y-65430000D03*
X127530000Y-66700000D03*
X127530000Y-67970000D03*
X127530000Y-69240000D03*
X127530000Y-70510000D03*
X127530000Y-71780000D03*
D36*
X129295000Y-73030000D03*
X130565000Y-73030000D03*
X131835000Y-73030000D03*
X133105000Y-73030000D03*
X134375000Y-73030000D03*
X135645000Y-73030000D03*
X136915000Y-73030000D03*
X138185000Y-73030000D03*
X139455000Y-73030000D03*
X140725000Y-73030000D03*
X141995000Y-73030000D03*
X143265000Y-73030000D03*
D35*
X145030000Y-71780000D03*
X145030000Y-70510000D03*
X145030000Y-69240000D03*
X145030000Y-67970000D03*
X145030000Y-66700000D03*
X145030000Y-65430000D03*
X145030000Y-64160000D03*
X145030000Y-62890000D03*
X145030000Y-61620000D03*
X145030000Y-60350000D03*
X145030000Y-59080000D03*
X145030000Y-57810000D03*
X145030000Y-56540000D03*
X145030000Y-55270000D03*
D37*
X133380000Y-62290000D03*
X133380000Y-63690000D03*
X134080000Y-61590000D03*
X134080000Y-62990000D03*
X134080000Y-64390000D03*
X134780000Y-62290000D03*
D38*
X134780000Y-62990000D03*
D37*
X134780000Y-63690000D03*
X135480000Y-61590000D03*
X135480000Y-62990000D03*
X135480000Y-64390000D03*
X136180000Y-62290000D03*
X136180000Y-63690000D03*
%TD*%
D33*
%TO.C,J6*%
X216145000Y-105246601D03*
X216145000Y-101746599D03*
%TD*%
D39*
%TO.C,CR1*%
X147096700Y-95040000D03*
X144023300Y-95040000D03*
%TD*%
D27*
%TO.C,C7*%
X119925000Y-59600000D03*
X121475000Y-59600000D03*
%TD*%
D26*
%TO.C,R2*%
X118457500Y-57510000D03*
X121382500Y-57510000D03*
%TD*%
D40*
%TO.C,C3*%
X166740000Y-105730000D03*
X168640000Y-105730000D03*
%TD*%
D26*
%TO.C,R8*%
X62777500Y-64100000D03*
X65702500Y-64100000D03*
%TD*%
D33*
%TO.C,J4*%
X95129999Y-103580000D03*
X98630000Y-103580000D03*
X102130000Y-103580000D03*
%TD*%
D20*
%TO.C,TP18*%
X136200000Y-74600000D03*
%TD*%
D41*
%TO.C,U5*%
X138068272Y-76880000D03*
X137418272Y-76880000D03*
X136768272Y-76880000D03*
X136118272Y-76880000D03*
X135468272Y-76880000D03*
X134818272Y-76880000D03*
X134168272Y-76880000D03*
X133518272Y-76880000D03*
X132868272Y-76880000D03*
X132218272Y-76880000D03*
X132218272Y-82605000D03*
X132868272Y-82605000D03*
X133518272Y-82605000D03*
X134168272Y-82605000D03*
X134818272Y-82605000D03*
X135468272Y-82605000D03*
X136118272Y-82605000D03*
X136768272Y-82605000D03*
X137418272Y-82605000D03*
X138068272Y-82605000D03*
%TD*%
D27*
%TO.C,C13*%
X139685000Y-77860000D03*
X141235000Y-77860000D03*
%TD*%
D30*
%TO.C,R12*%
X156830000Y-74272500D03*
X156830000Y-72447500D03*
%TD*%
D42*
%TO.C,R14*%
X129712500Y-77000000D03*
X126787500Y-77000000D03*
%TD*%
D43*
%TO.C,SW7*%
X149020000Y-81300000D03*
X149020000Y-73550000D03*
%TD*%
D31*
%TO.C,R20*%
X127188272Y-88642500D03*
X127188272Y-91567500D03*
%TD*%
D20*
%TO.C,TP19*%
X134900000Y-74600000D03*
%TD*%
D33*
%TO.C,J1*%
X152069998Y-103540000D03*
X155570000Y-103540000D03*
%TD*%
D20*
%TO.C,TP2*%
X132470000Y-86600000D03*
%TD*%
D44*
%TO.C,J2*%
X67890000Y-59312500D03*
X67240000Y-59312500D03*
X66590000Y-59312500D03*
X65940000Y-59312500D03*
X65290000Y-59312500D03*
D45*
X70090000Y-56612500D03*
D46*
X69490000Y-56612500D03*
D47*
X69090000Y-59312500D03*
D48*
X67590000Y-56612500D03*
X65590000Y-56612500D03*
D47*
X64090000Y-59312500D03*
D46*
X63690000Y-56612500D03*
D45*
X63090000Y-56612500D03*
%TD*%
D20*
%TO.C,TP12*%
X204930000Y-101980000D03*
%TD*%
D49*
%TO.C,JP3*%
X148510000Y-62900000D03*
X151810000Y-62900000D03*
X148510000Y-63900000D03*
X151810000Y-63900000D03*
%TD*%
D50*
%TO.C,C10*%
X65770000Y-61930000D03*
X64220000Y-61930000D03*
%TD*%
D51*
%TO.C,R13*%
X160560000Y-86940000D03*
X162210000Y-86940000D03*
%TD*%
D31*
%TO.C,R16*%
X140348272Y-88642500D03*
X140348272Y-91567500D03*
%TD*%
D52*
%TO.C,R22*%
X174000000Y-97287500D03*
X174000000Y-99112500D03*
%TD*%
D53*
%TO.C,C1*%
X147860000Y-97340000D03*
X147860000Y-99240000D03*
%TD*%
D33*
%TO.C,J3*%
X90740000Y-58520000D03*
X94240001Y-58520000D03*
X97740001Y-58520000D03*
X101240002Y-58520000D03*
X104740003Y-58520000D03*
%TD*%
D20*
%TO.C,TP6*%
X149410000Y-105190000D03*
%TD*%
D54*
%TO.C,U4*%
X159480000Y-84880000D03*
X160750000Y-84880000D03*
X162020000Y-84880000D03*
X163290000Y-84880000D03*
X164560000Y-84880000D03*
X165830000Y-84880000D03*
X167100000Y-84880000D03*
X168370000Y-84880000D03*
X168370000Y-75570000D03*
X167100000Y-75570000D03*
X165830000Y-75570000D03*
X164560000Y-75570000D03*
X163290000Y-75570000D03*
X162020000Y-75570000D03*
X160750000Y-75570000D03*
X159480000Y-75570000D03*
%TD*%
D20*
%TO.C,TP15*%
X147350000Y-67970000D03*
%TD*%
D40*
%TO.C,C2*%
X153540000Y-85280000D03*
X155440000Y-85280000D03*
%TD*%
D20*
%TO.C,TP9*%
X149980000Y-97340000D03*
%TD*%
%TO.C,TP11*%
X98630000Y-96210000D03*
%TD*%
D53*
%TO.C,C5*%
X111650000Y-56760000D03*
X111650000Y-58660000D03*
%TD*%
D20*
%TO.C,TP7*%
X176210000Y-102190000D03*
%TD*%
D55*
%TO.C,BT1*%
X189771795Y-64680000D03*
X219068205Y-64680000D03*
%TD*%
D20*
%TO.C,TP3*%
X134800000Y-86100000D03*
%TD*%
%TO.C,TP14*%
X151150000Y-69240000D03*
%TD*%
D26*
%TO.C,R4*%
X200510000Y-101980000D03*
X203435000Y-101980000D03*
%TD*%
D56*
%TO.C,U1*%
X150740000Y-95320000D03*
X153040000Y-95320000D03*
D57*
X153040000Y-89020000D03*
D56*
X155340000Y-95320000D03*
%TD*%
D31*
%TO.C,R18*%
X133768272Y-88642500D03*
X133768272Y-91567500D03*
%TD*%
%TO.C,R15*%
X143368272Y-88667500D03*
X143368272Y-91592500D03*
%TD*%
D58*
%TO.C,R21*%
X159412500Y-92900000D03*
X157587500Y-92900000D03*
%TD*%
D20*
%TO.C,TP21*%
X131500000Y-75300000D03*
%TD*%
%TO.C,TP1*%
X132490000Y-84930000D03*
%TD*%
D42*
%TO.C,R5*%
X71002500Y-64050000D03*
X68077500Y-64050000D03*
%TD*%
D29*
%TO.C,R7*%
X114140000Y-70232500D03*
X114140000Y-67307500D03*
%TD*%
D20*
%TO.C,TP17*%
X137400000Y-74900000D03*
%TD*%
D29*
%TO.C,R9*%
X111310000Y-71422500D03*
X111310000Y-68497500D03*
%TD*%
D31*
%TO.C,R17*%
X137058272Y-88642500D03*
X137058272Y-91567500D03*
%TD*%
D29*
%TO.C,R6*%
X117910000Y-69262500D03*
X117910000Y-66337500D03*
%TD*%
D59*
%TO.C,Q2*%
X206820000Y-101850000D03*
X206820000Y-103750000D03*
X208695000Y-102800000D03*
%TD*%
D53*
%TO.C,C4*%
X171320000Y-101140000D03*
X171320000Y-103040000D03*
%TD*%
%LPD*%
M02*
