%TF.GenerationSoftware,KiCad,Pcbnew,8.0.6*%
%TF.CreationDate,2024-11-19T16:34:12-08:00*%
%TF.ProjectId,SleepBud,536c6565-7042-4756-942e-6b696361645f,rev?*%
%TF.SameCoordinates,Original*%
%TF.FileFunction,Legend,Bot*%
%TF.FilePolarity,Positive*%
%FSLAX46Y46*%
G04 Gerber Fmt 4.6, Leading zero omitted, Abs format (unit mm)*
G04 Created by KiCad (PCBNEW 8.0.6) date 2024-11-19 16:34:12*
%MOMM*%
%LPD*%
G01*
G04 APERTURE LIST*
%ADD10C,0.508000*%
%ADD11C,0.150000*%
%ADD12C,1.701800*%
%ADD13O,1.200000X1.900000*%
%ADD14C,1.450000*%
%ADD15R,3.150000X2.400000*%
%ADD16R,2.400000X3.150000*%
G04 APERTURE END LIST*
D10*
%TO.C,J5*%
X135613000Y-104280000D02*
G75*
G02*
X134851000Y-104280000I-381000J0D01*
G01*
X134851000Y-104280000D02*
G75*
G02*
X135613000Y-104280000I381000J0D01*
G01*
%TO.C,J6*%
X216526000Y-107758600D02*
G75*
G02*
X215764000Y-107758600I-381000J0D01*
G01*
X215764000Y-107758600D02*
G75*
G02*
X216526000Y-107758600I381000J0D01*
G01*
%TO.C,J4*%
X92999000Y-103580000D02*
G75*
G02*
X92237000Y-103580000I-381000J0D01*
G01*
X92237000Y-103580000D02*
G75*
G02*
X92999000Y-103580000I381000J0D01*
G01*
%TO.C,J1*%
X149938999Y-103540000D02*
G75*
G02*
X149176999Y-103540000I-381000J0D01*
G01*
X149176999Y-103540000D02*
G75*
G02*
X149938999Y-103540000I381000J0D01*
G01*
%TO.C,J3*%
X88609001Y-58520000D02*
G75*
G02*
X87847001Y-58520000I-381000J0D01*
G01*
X87847001Y-58520000D02*
G75*
G02*
X88609001Y-58520000I381000J0D01*
G01*
%TO.C,D19*%
D11*
X130310000Y-84612500D02*
X124210000Y-84612500D01*
X124210000Y-94612500D01*
X130310000Y-94612500D01*
X130310000Y-84612500D01*
%TO.C,D25*%
X85775000Y-77122500D02*
X91875000Y-77122500D01*
X91875000Y-67122500D01*
X85775000Y-67122500D01*
X85775000Y-77122500D01*
%TO.C,D12*%
X154615000Y-84660000D02*
X148515000Y-84660000D01*
X148515000Y-94660000D01*
X154615000Y-94660000D01*
X154615000Y-84660000D01*
%TO.C,D30*%
X72075000Y-77772500D02*
X82075000Y-77772500D01*
X82075000Y-83872500D01*
X72075000Y-83872500D01*
X72075000Y-77772500D01*
%TO.C,D23*%
X110510000Y-77787500D02*
X120510000Y-77787500D01*
X120510000Y-83887500D01*
X110510000Y-83887500D01*
X110510000Y-77787500D01*
%TO.C,D17*%
X110535000Y-60287500D02*
X120535000Y-60287500D01*
X120535000Y-66387500D01*
X110535000Y-66387500D01*
X110535000Y-60287500D01*
%TO.C,D9*%
X172015000Y-77135000D02*
X178115000Y-77135000D01*
X178115000Y-67135000D01*
X172015000Y-67135000D01*
X172015000Y-77135000D01*
%TO.C,D22*%
X100735000Y-77112500D02*
X106835000Y-77112500D01*
X106835000Y-67112500D01*
X100735000Y-67112500D01*
X100735000Y-77112500D01*
%TO.C,D15*%
X134440000Y-69090000D02*
X144440000Y-69090000D01*
X144440000Y-75190000D01*
X134440000Y-75190000D01*
X134440000Y-69090000D01*
%TO.C,D5*%
X193050000Y-84675000D02*
X186950000Y-84675000D01*
X186950000Y-94675000D01*
X193050000Y-94675000D01*
X193050000Y-84675000D01*
%TO.C,D1*%
X196775000Y-60300000D02*
X206775000Y-60300000D01*
X206775000Y-66400000D01*
X196775000Y-66400000D01*
X196775000Y-60300000D01*
%TO.C,D11*%
X158365000Y-95360000D02*
X168365000Y-95360000D01*
X168365000Y-101460000D01*
X158365000Y-101460000D01*
X158365000Y-95360000D01*
%TO.C,D24*%
X72100000Y-60272500D02*
X82100000Y-60272500D01*
X82100000Y-66372500D01*
X72100000Y-66372500D01*
X72100000Y-60272500D01*
%TO.C,D7*%
X196750000Y-77800000D02*
X206750000Y-77800000D01*
X206750000Y-83900000D01*
X196750000Y-83900000D01*
X196750000Y-77800000D01*
%TO.C,D3*%
X216550000Y-84625000D02*
X210450000Y-84625000D01*
X210450000Y-94625000D01*
X216550000Y-94625000D01*
X216550000Y-84625000D01*
%TO.C,D2*%
X210450000Y-77150000D02*
X216550000Y-77150000D01*
X216550000Y-67150000D01*
X210450000Y-67150000D01*
X210450000Y-77150000D01*
%TO.C,D16*%
X134440000Y-86620000D02*
X144440000Y-86620000D01*
X144440000Y-92720000D01*
X134440000Y-92720000D01*
X134440000Y-86620000D01*
%TO.C,D18*%
X124210000Y-77137500D02*
X130310000Y-77137500D01*
X130310000Y-67137500D01*
X124210000Y-67137500D01*
X124210000Y-77137500D01*
%TO.C,D10*%
X178115000Y-84610000D02*
X172015000Y-84610000D01*
X172015000Y-94610000D01*
X178115000Y-94610000D01*
X178115000Y-84610000D01*
%TO.C,D4*%
X196800000Y-95375000D02*
X206800000Y-95375000D01*
X206800000Y-101475000D01*
X196800000Y-101475000D01*
X196800000Y-95375000D01*
%TO.C,D26*%
X91875000Y-84597500D02*
X85775000Y-84597500D01*
X85775000Y-94597500D01*
X91875000Y-94597500D01*
X91875000Y-84597500D01*
%TO.C,D27*%
X72125000Y-95347500D02*
X82125000Y-95347500D01*
X82125000Y-101447500D01*
X72125000Y-101447500D01*
X72125000Y-95347500D01*
%TO.C,D6*%
X186975000Y-77125000D02*
X193075000Y-77125000D01*
X193075000Y-67125000D01*
X186975000Y-67125000D01*
X186975000Y-77125000D01*
%TO.C,D14*%
X158315000Y-77785000D02*
X168315000Y-77785000D01*
X168315000Y-83885000D01*
X158315000Y-83885000D01*
X158315000Y-77785000D01*
%TO.C,D13*%
X148540000Y-77110000D02*
X154640000Y-77110000D01*
X154640000Y-67110000D01*
X148540000Y-67110000D01*
X148540000Y-77110000D01*
%TO.C,D21*%
X106810000Y-84662500D02*
X100710000Y-84662500D01*
X100710000Y-94662500D01*
X106810000Y-94662500D01*
X106810000Y-84662500D01*
%TO.C,D8*%
X158340000Y-60285000D02*
X168340000Y-60285000D01*
X168340000Y-66385000D01*
X158340000Y-66385000D01*
X158340000Y-60285000D01*
%TO.C,D28*%
X68375000Y-84647500D02*
X62275000Y-84647500D01*
X62275000Y-94647500D01*
X68375000Y-94647500D01*
X68375000Y-84647500D01*
%TO.C,D20*%
X110560000Y-95362500D02*
X120560000Y-95362500D01*
X120560000Y-101462500D01*
X110560000Y-101462500D01*
X110560000Y-95362500D01*
%TO.C,D29*%
X62300000Y-77097500D02*
X68400000Y-77097500D01*
X68400000Y-67097500D01*
X62300000Y-67097500D01*
X62300000Y-77097500D01*
%TD*%
%LPC*%
D12*
%TO.C,J5*%
X132720001Y-104280000D03*
X129220000Y-104280000D03*
X125720000Y-104280000D03*
%TD*%
%TO.C,J6*%
X216145000Y-105246601D03*
X216145000Y-101746599D03*
%TD*%
%TO.C,J4*%
X95129999Y-103580000D03*
X98630000Y-103580000D03*
X102130000Y-103580000D03*
%TD*%
%TO.C,J1*%
X152069998Y-103540000D03*
X155570000Y-103540000D03*
%TD*%
D13*
%TO.C,J2*%
X70090000Y-56612500D03*
D14*
X69090000Y-59312500D03*
X64090000Y-59312500D03*
D13*
X63090000Y-56612500D03*
%TD*%
D12*
%TO.C,J3*%
X90740000Y-58520000D03*
X94240001Y-58520000D03*
X97740001Y-58520000D03*
X101240002Y-58520000D03*
X104740003Y-58520000D03*
%TD*%
D15*
%TO.C,D19*%
X131960000Y-92562500D03*
X122560000Y-92562500D03*
X122560000Y-89612500D03*
X131960000Y-86662500D03*
X122560000Y-86662500D03*
X131960000Y-89612500D03*
%TD*%
%TO.C,D25*%
X84125000Y-69172500D03*
X93525000Y-69172500D03*
X93525000Y-72122500D03*
X84125000Y-75072500D03*
X93525000Y-75072500D03*
X84125000Y-72122500D03*
%TD*%
%TO.C,D12*%
X156265000Y-92610000D03*
X146865000Y-92610000D03*
X146865000Y-89660000D03*
X156265000Y-86710000D03*
X146865000Y-86710000D03*
X156265000Y-89660000D03*
%TD*%
D16*
%TO.C,D30*%
X80025000Y-76122500D03*
X80025000Y-85522500D03*
X77075000Y-85522500D03*
X74125000Y-76122500D03*
X74125000Y-85522500D03*
X77075000Y-76122500D03*
%TD*%
%TO.C,D23*%
X118460000Y-76137500D03*
X118460000Y-85537500D03*
X115510000Y-85537500D03*
X112560000Y-76137500D03*
X112560000Y-85537500D03*
X115510000Y-76137500D03*
%TD*%
%TO.C,D17*%
X118485000Y-58637500D03*
X118485000Y-68037500D03*
X115535000Y-68037500D03*
X112585000Y-58637500D03*
X112585000Y-68037500D03*
X115535000Y-58637500D03*
%TD*%
D15*
%TO.C,D9*%
X170365000Y-69185000D03*
X179765000Y-69185000D03*
X179765000Y-72135000D03*
X170365000Y-75085000D03*
X179765000Y-75085000D03*
X170365000Y-72135000D03*
%TD*%
%TO.C,D22*%
X99085000Y-69162500D03*
X108485000Y-69162500D03*
X108485000Y-72112500D03*
X99085000Y-75062500D03*
X108485000Y-75062500D03*
X99085000Y-72112500D03*
%TD*%
D16*
%TO.C,D15*%
X142390000Y-67440000D03*
X142390000Y-76840000D03*
X139440000Y-76840000D03*
X136490000Y-67440000D03*
X136490000Y-76840000D03*
X139440000Y-67440000D03*
%TD*%
D15*
%TO.C,D5*%
X194700000Y-92625000D03*
X185300000Y-92625000D03*
X185300000Y-89675000D03*
X194700000Y-86725000D03*
X185300000Y-86725000D03*
X194700000Y-89675000D03*
%TD*%
D16*
%TO.C,D1*%
X204725000Y-58650000D03*
X204725000Y-68050000D03*
X201775000Y-68050000D03*
X198825000Y-58650000D03*
X198825000Y-68050000D03*
X201775000Y-58650000D03*
%TD*%
%TO.C,D11*%
X166315000Y-93710000D03*
X166315000Y-103110000D03*
X163365000Y-103110000D03*
X160415000Y-93710000D03*
X160415000Y-103110000D03*
X163365000Y-93710000D03*
%TD*%
%TO.C,D24*%
X80050000Y-58622500D03*
X80050000Y-68022500D03*
X77100000Y-68022500D03*
X74150000Y-58622500D03*
X74150000Y-68022500D03*
X77100000Y-58622500D03*
%TD*%
%TO.C,D7*%
X204700000Y-76150000D03*
X204700000Y-85550000D03*
X201750000Y-85550000D03*
X198800000Y-76150000D03*
X198800000Y-85550000D03*
X201750000Y-76150000D03*
%TD*%
D15*
%TO.C,D3*%
X218200000Y-92575000D03*
X208800000Y-92575000D03*
X208800000Y-89625000D03*
X218200000Y-86675000D03*
X208800000Y-86675000D03*
X218200000Y-89625000D03*
%TD*%
%TO.C,D2*%
X208800000Y-69200000D03*
X218200000Y-69200000D03*
X218200000Y-72150000D03*
X208800000Y-75100000D03*
X218200000Y-75100000D03*
X208800000Y-72150000D03*
%TD*%
D16*
%TO.C,D16*%
X142390000Y-84970000D03*
X142390000Y-94370000D03*
X139440000Y-94370000D03*
X136490000Y-84970000D03*
X136490000Y-94370000D03*
X139440000Y-84970000D03*
%TD*%
D15*
%TO.C,D18*%
X122560000Y-69187500D03*
X131960000Y-69187500D03*
X131960000Y-72137500D03*
X122560000Y-75087500D03*
X131960000Y-75087500D03*
X122560000Y-72137500D03*
%TD*%
%TO.C,D10*%
X179765000Y-92560000D03*
X170365000Y-92560000D03*
X170365000Y-89610000D03*
X179765000Y-86660000D03*
X170365000Y-86660000D03*
X179765000Y-89610000D03*
%TD*%
D16*
%TO.C,D4*%
X204750000Y-93725000D03*
X204750000Y-103125000D03*
X201800000Y-103125000D03*
X198850000Y-93725000D03*
X198850000Y-103125000D03*
X201800000Y-93725000D03*
%TD*%
D15*
%TO.C,D26*%
X93525000Y-92547500D03*
X84125000Y-92547500D03*
X84125000Y-89597500D03*
X93525000Y-86647500D03*
X84125000Y-86647500D03*
X93525000Y-89597500D03*
%TD*%
D16*
%TO.C,D27*%
X80075000Y-93697500D03*
X80075000Y-103097500D03*
X77125000Y-103097500D03*
X74175000Y-93697500D03*
X74175000Y-103097500D03*
X77125000Y-93697500D03*
%TD*%
D15*
%TO.C,D6*%
X185325000Y-69175000D03*
X194725000Y-69175000D03*
X194725000Y-72125000D03*
X185325000Y-75075000D03*
X194725000Y-75075000D03*
X185325000Y-72125000D03*
%TD*%
D16*
%TO.C,D14*%
X166265000Y-76135000D03*
X166265000Y-85535000D03*
X163315000Y-85535000D03*
X160365000Y-76135000D03*
X160365000Y-85535000D03*
X163315000Y-76135000D03*
%TD*%
D15*
%TO.C,D13*%
X146890000Y-69160000D03*
X156290000Y-69160000D03*
X156290000Y-72110000D03*
X146890000Y-75060000D03*
X156290000Y-75060000D03*
X146890000Y-72110000D03*
%TD*%
%TO.C,D21*%
X108460000Y-92612500D03*
X99060000Y-92612500D03*
X99060000Y-89662500D03*
X108460000Y-86712500D03*
X99060000Y-86712500D03*
X108460000Y-89662500D03*
%TD*%
D16*
%TO.C,D8*%
X166290000Y-58635000D03*
X166290000Y-68035000D03*
X163340000Y-68035000D03*
X160390000Y-58635000D03*
X160390000Y-68035000D03*
X163340000Y-58635000D03*
%TD*%
D15*
%TO.C,D28*%
X70025000Y-92597500D03*
X60625000Y-92597500D03*
X60625000Y-89647500D03*
X70025000Y-86697500D03*
X60625000Y-86697500D03*
X70025000Y-89647500D03*
%TD*%
D16*
%TO.C,D20*%
X118510000Y-93712500D03*
X118510000Y-103112500D03*
X115560000Y-103112500D03*
X112610000Y-93712500D03*
X112610000Y-103112500D03*
X115560000Y-93712500D03*
%TD*%
D15*
%TO.C,D29*%
X60650000Y-69147500D03*
X70050000Y-69147500D03*
X70050000Y-72097500D03*
X60650000Y-75047500D03*
X70050000Y-75047500D03*
X60650000Y-72097500D03*
%TD*%
%LPD*%
M02*
