M48
; DRILL file {KiCad 8.0.6} date 2024-11-20T14:38:46-0800
; FORMAT={-:-/ absolute / inch / decimal}
; #@! TF.CreationDate,2024-11-20T14:38:46-08:00
; #@! TF.GenerationSoftware,Kicad,Pcbnew,8.0.6
; #@! TF.FileFunction,Plated,1,2,PTH
FMAT,2
INCH
; #@! TA.AperFunction,Plated,PTH,ComponentDrill
T1C0.0100
; #@! TA.AperFunction,Plated,PTH,ViaDrill
T2C0.0118
; #@! TA.AperFunction,Plated,PTH,ComponentDrill
T3C0.0236
; #@! TA.AperFunction,Plated,PTH,ComponentDrill
T4C0.0335
; #@! TA.AperFunction,Plated,PTH,ComponentDrill
T5C0.0470
%
G90
G05
T1
X5.2512Y-2.4524
X5.2512Y-2.5075
X5.2787Y-2.4248
X5.2787Y-2.4799
X5.2787Y-2.535
X5.3063Y-2.4524
X5.3063Y-2.5075
X5.3339Y-2.4248
X5.3339Y-2.4799
X5.3339Y-2.535
X5.3614Y-2.4524
X5.3614Y-2.5075
T2
X2.2835Y-2.1614
X2.2835Y-4.2559
X2.4173Y-2.2283
X2.4646Y-3.3307
X2.4685Y-2.3898
X2.4724Y-3.0394
X2.5551Y-3.1772
X2.5827Y-2.1614
X2.6614Y-2.1614
X2.7579Y-2.9546
X2.7673Y-3.289
X2.7717Y-2.3898
X2.8189Y-2.2283
X2.8819Y-2.7835
X2.8819Y-3.4882
X2.9203Y-3.6889
X2.9203Y-4.059
X2.9488Y-3.1772
X3.2953Y-3.1732
X3.311Y-2.4921
X3.312Y-2.9556
X3.4252Y-3.315
X3.5197Y-2.3583
X3.5276Y-3.6102
X3.5984Y-3.311
X3.6821Y-2.9556
X3.689Y-3.1732
X3.7795Y-3.8559
X3.901Y-2.9552
X3.9122Y-3.0626
X3.9921Y-3.3189
X4.0236Y-2.9016
X4.0709Y-3.1732
X4.0787Y-4.0197
X4.0921Y-2.8768
X4.0965Y-3.6772
X4.1378Y-3.0161
X4.1417Y-3.0626
X4.1545Y-3.4762
X4.2533Y-3.1219
X4.2823Y-2.1748
X4.3228Y-2.3661
X4.3346Y-3.2953
X4.3346Y-3.9724
X4.3898Y-2.5709
X4.4335Y-3.6895
X4.4961Y-3.4882
X4.6417Y-2.8937
X4.6724Y-2.3953
X4.8346Y-3.2323
X4.8858Y-3.0315
X4.9094Y-4.0354
X4.9488Y-2.1732
X5.0069Y-3.1963
X5.0079Y-3.8071
X5.0906Y-2.1772
X5.098Y-3.4386
X5.1496Y-3.2008
X5.1496Y-3.2953
X5.2933Y-2.728
X5.3241Y-3.5474
X5.361Y-3.1902
X5.3736Y-3.7154
X5.4469Y-3.435
X5.5591Y-3.2559
X5.6339Y-2.1772
X5.6575Y-3.2559
X5.673Y-3.0409
X5.673Y-3.1526
X5.7047Y-3.8228
X5.7512Y-3.3378
X5.7717Y-2.1732
X5.7732Y-2.4579
X5.8246Y-2.6315
X5.8728Y-3.1205
X5.8969Y-3.3
X5.9079Y-2.6803
X5.9122Y-2.4252
X5.9657Y-3.1984
X5.9992Y-2.6661
X5.9992Y-2.8862
X6.125Y-3.0541
X6.1772Y-4.1339
X6.1795Y-3.2228
X6.189Y-3.3071
X6.1969Y-2.4488
X6.2126Y-2.2008
X6.2323Y-3.9724
X6.2346Y-2.5988
X6.2992Y-2.7835
X6.348Y-3.1518
X6.4291Y-3.0984
X6.6693Y-4.0551
X6.7073Y-2.9561
X6.7323Y-4.1614
X6.7638Y-2.4764
X6.9933Y-3.3217
X7.0138Y-3.2524
X7.0774Y-2.9561
X7.1209Y-3.1594
X7.1941Y-4.1862
X7.2963Y-2.9557
X7.3819Y-3.311
X7.4295Y-3.1228
X7.5118Y-3.7559
X7.5591Y-3.311
X7.6614Y-3.0709
X7.689Y-3.9173
X7.7402Y-3.2638
X7.8268Y-2.1772
X7.8287Y-3.69
X7.8287Y-4.06
X8.0039Y-2.8937
X8.1575Y-4.2087
X8.2126Y-3.0551
X8.2559Y-3.8898
X8.2874Y-4.0906
X8.311Y-3.3189
X8.4252Y-3.6299
X8.4921Y-3.0512
X8.5Y-3.315
X8.5906Y-2.9567
X8.7047Y-2.3622
X8.7047Y-2.689
X8.7087Y-2.1614
X8.7087Y-4.2559
T4
X2.5232Y-2.3351
X2.7201Y-2.3351
T5
X3.5724Y-2.3039
X3.7102Y-2.3039
X3.7453Y-4.078
X3.848Y-2.3039
X3.8831Y-4.078
X3.9858Y-2.3039
X4.0209Y-4.078
X4.1236Y-2.3039
X4.9496Y-4.1055
X5.0874Y-4.1055
X5.2252Y-4.1055
X5.987Y-4.0764
X6.1248Y-4.0764
X8.5096Y-4.0058
X8.5096Y-4.1436
T3
G00X2.4839Y-2.2426
M15
G01X2.4839Y-2.2151
M16
G05
G00X2.7594Y-2.2151
M15
G01X2.7594Y-2.2426
M16
G05
M30
