%TF.GenerationSoftware,KiCad,Pcbnew,8.0.6*%
%TF.CreationDate,2024-11-19T16:34:12-08:00*%
%TF.ProjectId,SleepBud,536c6565-7042-4756-942e-6b696361645f,rev?*%
%TF.SameCoordinates,Original*%
%TF.FileFunction,Soldermask,Top*%
%TF.FilePolarity,Negative*%
%FSLAX46Y46*%
G04 Gerber Fmt 4.6, Leading zero omitted, Abs format (unit mm)*
G04 Created by KiCad (PCBNEW 8.0.6) date 2024-11-19 16:34:12*
%MOMM*%
%LPD*%
G01*
G04 APERTURE LIST*
G04 Aperture macros list*
%AMRoundRect*
0 Rectangle with rounded corners*
0 $1 Rounding radius*
0 $2 $3 $4 $5 $6 $7 $8 $9 X,Y pos of 4 corners*
0 Add a 4 corners polygon primitive as box body*
4,1,4,$2,$3,$4,$5,$6,$7,$8,$9,$2,$3,0*
0 Add four circle primitives for the rounded corners*
1,1,$1+$1,$2,$3*
1,1,$1+$1,$4,$5*
1,1,$1+$1,$6,$7*
1,1,$1+$1,$8,$9*
0 Add four rect primitives between the rounded corners*
20,1,$1+$1,$2,$3,$4,$5,0*
20,1,$1+$1,$4,$5,$6,$7,0*
20,1,$1+$1,$6,$7,$8,$9,0*
20,1,$1+$1,$8,$9,$2,$3,0*%
G04 Aperture macros list end*
%ADD10C,0.250000*%
%ADD11R,1.500000X2.500000*%
%ADD12R,7.000000X7.000000*%
%ADD13RoundRect,0.102000X0.660400X0.279400X-0.660400X0.279400X-0.660400X-0.279400X0.660400X-0.279400X0*%
%ADD14RoundRect,0.225000X-0.250000X0.225000X-0.250000X-0.225000X0.250000X-0.225000X0.250000X0.225000X0*%
%ADD15RoundRect,0.250000X-0.312500X-0.625000X0.312500X-0.625000X0.312500X0.625000X-0.312500X0.625000X0*%
%ADD16RoundRect,0.225000X-0.225000X-0.250000X0.225000X-0.250000X0.225000X0.250000X-0.225000X0.250000X0*%
%ADD17RoundRect,0.250000X0.625000X-0.312500X0.625000X0.312500X-0.625000X0.312500X-0.625000X-0.312500X0*%
%ADD18RoundRect,0.250000X0.450000X-0.262500X0.450000X0.262500X-0.450000X0.262500X-0.450000X-0.262500X0*%
%ADD19RoundRect,0.250000X-0.625000X0.312500X-0.625000X-0.312500X0.625000X-0.312500X0.625000X0.312500X0*%
%ADD20R,1.250000X1.000000*%
%ADD21C,1.701800*%
%ADD22R,0.500000X2.000000*%
%ADD23R,1.500000X0.900000*%
%ADD24R,0.900000X1.500000*%
%ADD25C,0.600000*%
%ADD26R,3.900000X3.900000*%
%ADD27R,1.143000X1.092200*%
%ADD28RoundRect,0.250000X-0.250000X-0.475000X0.250000X-0.475000X0.250000X0.475000X-0.250000X0.475000X0*%
%ADD29RoundRect,0.100000X-0.100000X0.637500X-0.100000X-0.637500X0.100000X-0.637500X0.100000X0.637500X0*%
%ADD30RoundRect,0.250000X0.312500X0.625000X-0.312500X0.625000X-0.312500X-0.625000X0.312500X-0.625000X0*%
%ADD31R,1.000000X1.250000*%
%ADD32R,0.400000X1.350000*%
%ADD33O,1.200000X1.900000*%
%ADD34R,1.200000X1.900000*%
%ADD35C,1.450000*%
%ADD36R,1.500000X1.900000*%
%ADD37R,2.000000X0.500000*%
%ADD38RoundRect,0.225000X0.225000X0.250000X-0.225000X0.250000X-0.225000X-0.250000X0.225000X-0.250000X0*%
%ADD39RoundRect,0.200000X-0.200000X-0.275000X0.200000X-0.275000X0.200000X0.275000X-0.200000X0.275000X0*%
%ADD40RoundRect,0.250000X-0.475000X0.250000X-0.475000X-0.250000X0.475000X-0.250000X0.475000X0.250000X0*%
%ADD41RoundRect,0.099250X0.297750X-1.027750X0.297750X1.027750X-0.297750X1.027750X-0.297750X-1.027750X0*%
%ADD42R,3.810000X4.495800*%
%ADD43RoundRect,0.375000X0.375000X-0.625000X0.375000X0.625000X-0.375000X0.625000X-0.375000X-0.625000X0*%
%ADD44RoundRect,0.500000X1.400000X-0.500000X1.400000X0.500000X-1.400000X0.500000X-1.400000X-0.500000X0*%
%ADD45RoundRect,0.150000X-0.587500X-0.150000X0.587500X-0.150000X0.587500X0.150000X-0.587500X0.150000X0*%
G04 APERTURE END LIST*
D10*
%TO.C,TP16*%
X138070000Y-75040000D03*
%TD*%
D11*
%TO.C,U2*%
X162190000Y-102880000D03*
D12*
X164490000Y-96030000D03*
D11*
X166790000Y-102880000D03*
%TD*%
D13*
%TO.C,Q1*%
X143100000Y-105500000D03*
X143100000Y-103569600D03*
X141068000Y-104534800D03*
%TD*%
D14*
%TO.C,C6*%
X114870000Y-56925000D03*
X114870000Y-58475000D03*
%TD*%
D15*
%TO.C,R3*%
X120217500Y-62090000D03*
X123142500Y-62090000D03*
%TD*%
D10*
%TO.C,TP4*%
X136120000Y-86740000D03*
%TD*%
%TO.C,TP10*%
X59530000Y-69570000D03*
%TD*%
D16*
%TO.C,C14*%
X139615000Y-80980000D03*
X141165000Y-80980000D03*
%TD*%
D15*
%TO.C,R1*%
X142017500Y-99290000D03*
X144942500Y-99290000D03*
%TD*%
D17*
%TO.C,R10*%
X108400000Y-72745000D03*
X108400000Y-69820000D03*
%TD*%
D18*
%TO.C,R11*%
X154140000Y-74272500D03*
X154140000Y-72447500D03*
%TD*%
D19*
%TO.C,R19*%
X130478272Y-88642500D03*
X130478272Y-91567500D03*
%TD*%
D10*
%TO.C,TP13*%
X147660000Y-70500000D03*
%TD*%
%TO.C,TP22*%
X164390000Y-73140000D03*
%TD*%
D14*
%TO.C,C11*%
X158620000Y-87095000D03*
X158620000Y-88645000D03*
%TD*%
D20*
%TO.C,SW2*%
X171900000Y-88980000D03*
X164150000Y-88980000D03*
%TD*%
D10*
%TO.C,TP5*%
X137350000Y-85640000D03*
%TD*%
D21*
%TO.C,J5*%
X132720001Y-104280000D03*
X129220000Y-104280000D03*
X125720000Y-104280000D03*
%TD*%
D16*
%TO.C,C9*%
X67935000Y-61930000D03*
X69485000Y-61930000D03*
%TD*%
D10*
%TO.C,TP20*%
X133550000Y-74500000D03*
%TD*%
%TO.C,TP8*%
X156920000Y-86050000D03*
%TD*%
D16*
%TO.C,C8*%
X113435000Y-65390000D03*
X114985000Y-65390000D03*
%TD*%
D14*
%TO.C,C12*%
X176490000Y-73140000D03*
X176490000Y-74690000D03*
%TD*%
D22*
%TO.C,JP1*%
X147780000Y-59370000D03*
X147780000Y-56070000D03*
X148780000Y-59370000D03*
X148780000Y-56070000D03*
%TD*%
D20*
%TO.C,SW1*%
X110175000Y-62110000D03*
X117925000Y-62110000D03*
%TD*%
D23*
%TO.C,U3*%
X127530000Y-55270000D03*
X127530000Y-56540000D03*
X127530000Y-57810000D03*
X127530000Y-59080000D03*
X127530000Y-60350000D03*
X127530000Y-61620000D03*
X127530000Y-62890000D03*
X127530000Y-64160000D03*
X127530000Y-65430000D03*
X127530000Y-66700000D03*
X127530000Y-67970000D03*
X127530000Y-69240000D03*
X127530000Y-70510000D03*
X127530000Y-71780000D03*
D24*
X129295000Y-73030000D03*
X130565000Y-73030000D03*
X131835000Y-73030000D03*
X133105000Y-73030000D03*
X134375000Y-73030000D03*
X135645000Y-73030000D03*
X136915000Y-73030000D03*
X138185000Y-73030000D03*
X139455000Y-73030000D03*
X140725000Y-73030000D03*
X141995000Y-73030000D03*
X143265000Y-73030000D03*
D23*
X145030000Y-71780000D03*
X145030000Y-70510000D03*
X145030000Y-69240000D03*
X145030000Y-67970000D03*
X145030000Y-66700000D03*
X145030000Y-65430000D03*
X145030000Y-64160000D03*
X145030000Y-62890000D03*
X145030000Y-61620000D03*
X145030000Y-60350000D03*
X145030000Y-59080000D03*
X145030000Y-57810000D03*
X145030000Y-56540000D03*
X145030000Y-55270000D03*
D25*
X133380000Y-62290000D03*
X133380000Y-63690000D03*
X134080000Y-61590000D03*
X134080000Y-62990000D03*
X134080000Y-64390000D03*
X134780000Y-62290000D03*
D26*
X134780000Y-62990000D03*
D25*
X134780000Y-63690000D03*
X135480000Y-61590000D03*
X135480000Y-62990000D03*
X135480000Y-64390000D03*
X136180000Y-62290000D03*
X136180000Y-63690000D03*
%TD*%
D21*
%TO.C,J6*%
X216145000Y-105246601D03*
X216145000Y-101746599D03*
%TD*%
D27*
%TO.C,CR1*%
X147096700Y-95040000D03*
X144023300Y-95040000D03*
%TD*%
D16*
%TO.C,C7*%
X119925000Y-59600000D03*
X121475000Y-59600000D03*
%TD*%
D15*
%TO.C,R2*%
X118457500Y-57510000D03*
X121382500Y-57510000D03*
%TD*%
D28*
%TO.C,C3*%
X166740000Y-105730000D03*
X168640000Y-105730000D03*
%TD*%
D15*
%TO.C,R8*%
X62777500Y-64100000D03*
X65702500Y-64100000D03*
%TD*%
D21*
%TO.C,J4*%
X95129999Y-103580000D03*
X98630000Y-103580000D03*
X102130000Y-103580000D03*
%TD*%
D10*
%TO.C,TP18*%
X135640000Y-74340000D03*
%TD*%
D29*
%TO.C,U5*%
X138068272Y-76880000D03*
X137418272Y-76880000D03*
X136768272Y-76880000D03*
X136118272Y-76880000D03*
X135468272Y-76880000D03*
X134818272Y-76880000D03*
X134168272Y-76880000D03*
X133518272Y-76880000D03*
X132868272Y-76880000D03*
X132218272Y-76880000D03*
X132218272Y-82605000D03*
X132868272Y-82605000D03*
X133518272Y-82605000D03*
X134168272Y-82605000D03*
X134818272Y-82605000D03*
X135468272Y-82605000D03*
X136118272Y-82605000D03*
X136768272Y-82605000D03*
X137418272Y-82605000D03*
X138068272Y-82605000D03*
%TD*%
D16*
%TO.C,C13*%
X139685000Y-77860000D03*
X141235000Y-77860000D03*
%TD*%
D18*
%TO.C,R12*%
X156830000Y-74272500D03*
X156830000Y-72447500D03*
%TD*%
D30*
%TO.C,R14*%
X129712500Y-77000000D03*
X126787500Y-77000000D03*
%TD*%
D31*
%TO.C,SW7*%
X149020000Y-81300000D03*
X149020000Y-73550000D03*
%TD*%
D19*
%TO.C,R20*%
X127188272Y-88642500D03*
X127188272Y-91567500D03*
%TD*%
D10*
%TO.C,TP19*%
X134380000Y-74300000D03*
%TD*%
D21*
%TO.C,J1*%
X152069998Y-103540000D03*
X155570000Y-103540000D03*
%TD*%
D10*
%TO.C,TP2*%
X132470000Y-86600000D03*
%TD*%
D32*
%TO.C,J2*%
X67890000Y-59312500D03*
X67240000Y-59312500D03*
X66590000Y-59312500D03*
X65940000Y-59312500D03*
X65290000Y-59312500D03*
D33*
X70090000Y-56612500D03*
D34*
X69490000Y-56612500D03*
D35*
X69090000Y-59312500D03*
D36*
X67590000Y-56612500D03*
X65590000Y-56612500D03*
D35*
X64090000Y-59312500D03*
D34*
X63690000Y-56612500D03*
D33*
X63090000Y-56612500D03*
%TD*%
D10*
%TO.C,TP12*%
X204930000Y-101980000D03*
%TD*%
D37*
%TO.C,JP3*%
X148510000Y-62900000D03*
X151810000Y-62900000D03*
X148510000Y-63900000D03*
X151810000Y-63900000D03*
%TD*%
D38*
%TO.C,C10*%
X65770000Y-61930000D03*
X64220000Y-61930000D03*
%TD*%
D39*
%TO.C,R13*%
X160560000Y-86940000D03*
X162210000Y-86940000D03*
%TD*%
D19*
%TO.C,R16*%
X140348272Y-88642500D03*
X140348272Y-91567500D03*
%TD*%
D40*
%TO.C,C1*%
X147860000Y-97340000D03*
X147860000Y-99240000D03*
%TD*%
D21*
%TO.C,J3*%
X90740000Y-58520000D03*
X94240001Y-58520000D03*
X97740001Y-58520000D03*
X101240002Y-58520000D03*
X104740003Y-58520000D03*
%TD*%
D10*
%TO.C,TP6*%
X149410000Y-105190000D03*
%TD*%
D41*
%TO.C,U4*%
X159480000Y-84880000D03*
X160750000Y-84880000D03*
X162020000Y-84880000D03*
X163290000Y-84880000D03*
X164560000Y-84880000D03*
X165830000Y-84880000D03*
X167100000Y-84880000D03*
X168370000Y-84880000D03*
X168370000Y-75570000D03*
X167100000Y-75570000D03*
X165830000Y-75570000D03*
X164560000Y-75570000D03*
X163290000Y-75570000D03*
X162020000Y-75570000D03*
X160750000Y-75570000D03*
X159480000Y-75570000D03*
%TD*%
D10*
%TO.C,TP15*%
X147350000Y-67970000D03*
%TD*%
D28*
%TO.C,C2*%
X153540000Y-85280000D03*
X155440000Y-85280000D03*
%TD*%
D10*
%TO.C,TP9*%
X149980000Y-97340000D03*
%TD*%
%TO.C,TP11*%
X98630000Y-96210000D03*
%TD*%
D40*
%TO.C,C5*%
X111650000Y-56760000D03*
X111650000Y-58660000D03*
%TD*%
D10*
%TO.C,TP7*%
X176210000Y-102190000D03*
%TD*%
D42*
%TO.C,BT1*%
X189771795Y-64680000D03*
X219068205Y-64680000D03*
%TD*%
D10*
%TO.C,TP3*%
X135470000Y-85670000D03*
%TD*%
%TO.C,TP14*%
X151150000Y-69240000D03*
%TD*%
D15*
%TO.C,R4*%
X200510000Y-101980000D03*
X203435000Y-101980000D03*
%TD*%
D43*
%TO.C,U1*%
X150740000Y-95320000D03*
X153040000Y-95320000D03*
D44*
X153040000Y-89020000D03*
D43*
X155340000Y-95320000D03*
%TD*%
D19*
%TO.C,R18*%
X133768272Y-88642500D03*
X133768272Y-91567500D03*
%TD*%
%TO.C,R15*%
X143368272Y-88667500D03*
X143368272Y-91592500D03*
%TD*%
D10*
%TO.C,TP21*%
X132160000Y-74410000D03*
%TD*%
%TO.C,TP1*%
X132490000Y-84930000D03*
%TD*%
D30*
%TO.C,R5*%
X71002500Y-64050000D03*
X68077500Y-64050000D03*
%TD*%
D17*
%TO.C,R7*%
X114140000Y-70232500D03*
X114140000Y-67307500D03*
%TD*%
D10*
%TO.C,TP17*%
X136770000Y-74310000D03*
%TD*%
D17*
%TO.C,R9*%
X111310000Y-71422500D03*
X111310000Y-68497500D03*
%TD*%
D19*
%TO.C,R17*%
X137058272Y-88642500D03*
X137058272Y-91567500D03*
%TD*%
D17*
%TO.C,R6*%
X117910000Y-69262500D03*
X117910000Y-66337500D03*
%TD*%
D45*
%TO.C,Q2*%
X206820000Y-101850000D03*
X206820000Y-103750000D03*
X208695000Y-102800000D03*
%TD*%
D40*
%TO.C,C4*%
X171320000Y-101140000D03*
X171320000Y-103040000D03*
%TD*%
M02*
